<svg width="407" height="335" viewBox="0 0 407 335" fill="none" xmlns="http://www.w3.org/2000/svg">
<path opacity="0.05" d="M74.7785 168.944C74.7785 168.944 65.8175 135.789 82.8435 117.868C99.8685 99.9471 143.776 87.4021 159.905 133.101C176.034 178.8 216.357 129.517 222.63 104.427C228.903 79.3371 261.212 34.1671 314.029 31.8461C395.571 28.2621 430.518 121.453 367.793 189.554C305.068 257.655 124.958 324.859 74.7785 168.944Z" fill="#194D4D"/>
<path d="M125.24 222.853C119.317 226.489 115.836 240.514 114.675 244.53C109.79 213.239 80.7555 159.537 57.4605 176.784C33.4405 194.568 69.0735 239.537 98.3045 256.75C85.9355 249.221 67.2085 245.271 66.8425 263.477C66.1255 299.075 119.514 296.249 119.514 296.249L136.088 297.794C136.088 297.794 152.036 206.403 125.24 222.853Z" fill="#50AA9E"/>
<path d="M268.173 276.64C268.173 276.64 249.899 247.924 267.52 237.482C285.141 227.04 280.573 268.809 280.573 268.809C280.573 268.809 276.657 198.977 306.026 195.061C335.395 191.145 313.858 225.082 313.858 225.082C313.858 225.082 344.635 177.809 363.458 193.103C384.342 210.072 314.51 261.63 314.51 261.63C314.51 261.63 356.279 221.166 362.805 245.314C369.331 269.462 309.941 274.683 309.941 274.683C309.941 274.683 339.962 262.283 341.268 280.557C342.573 298.831 276.004 292.957 276.004 292.957L268.173 276.64Z" fill="#50AA9E"/>
<path d="M97.3737 112.097C95.0557 113.204 93.4467 114.106 93.2517 118.123C93.2447 118.263 92.9076 118.254 92.8796 118.117C92.0616 113.976 91.2486 112.999 88.8286 112.097C88.4646 111.961 88.3877 111.273 88.7637 111.174C91.8907 110.348 92.2786 108.533 92.8796 104.646C92.8996 104.516 93.1997 104.53 93.2517 104.651C94.0837 106.59 93.5757 110.478 97.4797 111.174C97.8647 111.242 97.7257 111.929 97.3737 112.097Z" fill="#E9FFFD"/>
<path d="M106.978 103.48C104.971 104.439 103.578 105.219 103.409 108.697C103.403 108.818 103.111 108.811 103.087 108.691C102.379 105.106 101.675 104.26 99.5797 103.479C99.2647 103.362 99.1977 102.766 99.5237 102.68C102.231 101.965 102.568 100.394 103.087 97.028C103.104 96.916 103.364 96.928 103.409 97.032C104.129 98.71 103.69 102.077 107.069 102.68C107.402 102.74 107.282 103.335 106.978 103.48Z" fill="#E9FFFD"/>
<path d="M87.0317 103.196C85.8407 103.765 85.0147 104.228 84.9147 106.291C84.9107 106.363 84.7377 106.358 84.7237 106.288C84.3037 104.161 83.8857 103.66 82.6437 103.196C82.4567 103.126 82.4177 102.773 82.6107 102.722C84.2167 102.298 84.4157 101.366 84.7247 99.369C84.7347 99.302 84.8887 99.31 84.9157 99.372C85.3427 100.368 85.0817 102.364 87.0867 102.722C87.2837 102.757 87.2127 103.109 87.0317 103.196Z" fill="#E9FFFD"/>
<path d="M376.697 62.167C374.379 63.274 372.769 64.176 372.575 68.193C372.568 68.333 372.231 68.324 372.203 68.187C371.385 64.046 370.572 63.069 368.152 62.167C367.788 62.031 367.711 61.343 368.087 61.244C371.214 60.418 371.602 58.603 372.203 54.716C372.223 54.586 372.523 54.6 372.575 54.721C373.407 56.66 372.899 60.548 376.803 61.244C377.187 61.312 377.049 61.999 376.697 62.167Z" fill="#E9FFFD"/>
<path d="M386.3 53.551C384.293 54.51 382.9 55.29 382.731 58.768C382.725 58.889 382.433 58.882 382.409 58.763C381.701 55.178 380.997 54.332 378.902 53.551C378.587 53.433 378.52 52.837 378.846 52.752C381.553 52.037 381.889 50.466 382.409 47.1C382.426 46.988 382.686 47 382.731 47.104C383.451 48.782 383.012 52.149 386.392 52.752C386.725 52.81 386.605 53.405 386.3 53.551Z" fill="#E9FFFD"/>
<path d="M366.355 53.2659C365.164 53.8349 364.338 54.2979 364.238 56.3609C364.235 56.4329 364.061 56.4279 364.047 56.3579C363.627 54.2309 363.209 53.7299 361.967 53.2659C361.78 53.1959 361.741 52.8429 361.934 52.7919C363.54 52.3679 363.739 51.4359 364.048 49.4389C364.058 49.3719 364.212 49.3789 364.239 49.4419C364.666 50.4379 364.405 52.4339 366.41 52.7919C366.607 52.8269 366.536 53.1799 366.355 53.2659Z" fill="#E9FFFD"/>
<path d="M128.481 297.403C130.552 301.993 135.159 305.194 140.522 305.194H292.426C297.789 305.194 302.396 301.993 304.467 297.403H128.481Z" fill="#103737"/>
<path d="M305.641 291.981V13.214C305.641 5.916 299.725 0 292.427 0H140.523C133.225 0 127.309 5.916 127.309 13.214V291.981C127.309 293.916 127.735 295.747 128.482 297.403H304.468C305.215 295.747 305.641 293.915 305.641 291.981Z" fill="#194D4D"/>
<path d="M285.298 260.549H146.659C144.058 260.549 141.949 258.44 141.949 255.839V23.734C141.949 21.133 144.058 19.024 146.659 19.024H285.298C287.899 19.024 290.008 21.133 290.008 23.734V255.839C290.008 258.441 287.899 260.549 285.298 260.549Z" fill="#EEF6FF"/>
<path d="M225.812 282.733C227.287 276.798 223.671 270.79 217.736 269.315C211.8 267.84 205.793 271.455 204.318 277.391C202.842 283.327 206.458 289.334 212.394 290.809C218.329 292.285 224.337 288.669 225.812 282.733Z" fill="#50AA9E"/>
<path d="M218.781 9.55904C218.781 11.183 217.464 12.5 215.84 12.5C214.216 12.5 212.899 11.183 212.899 9.55904C212.899 7.93504 214.216 6.61804 215.84 6.61804C217.464 6.61804 218.781 7.93404 218.781 9.55904Z" fill="#50AA9E"/>
<path opacity="0.15" d="M216.576 22.058C247.622 22.058 280.836 25.483 305.641 36.23V13.215C305.641 5.91697 299.725 0.000976562 292.427 0.000976562H140.523C133.225 0.000976562 127.309 5.91697 127.309 13.215V41.175C146.314 29.736 178.899 22.058 216.576 22.058Z" fill="#194D4D"/>
<path d="M223.601 182.536C228.994 186.161 230.453 193.544 227.041 199.297L234.843 204.539C241.133 194.477 238.532 181.251 228.843 174.738C220.873 169.38 210.506 170.178 203.214 175.987C200.749 177.951 200.949 181.765 203.565 183.523C205.276 184.673 207.517 184.548 209.139 183.274C213.306 180.001 219.137 179.535 223.601 182.536Z" fill="#F97467"/>
<path d="M233.823 233.374L198.785 233.366C196.442 233.366 194.543 231.466 194.543 229.122L194.55 196.411L238.073 196.421L238.066 229.132C238.066 231.475 236.166 233.374 233.823 233.374Z" fill="#F97467"/>
<path d="M238.073 196.211H194.276V202.438H238.073V196.211Z" fill="#B54A47"/>
<path d="M220.428 218.862L219.463 217.087C220.812 215.975 221.622 214.16 221.332 212.141C221.02 209.973 219.373 208.168 217.338 207.79C214.215 207.211 211.502 209.746 211.502 212.955C211.502 214.641 212.264 216.125 213.428 217.086L212.463 218.86L210.054 223.287C209.354 224.574 210.228 226.183 211.628 226.183L216.444 226.184L221.261 226.185C222.661 226.185 223.536 224.577 222.837 223.29L220.428 218.862Z" fill="#B54A47"/>
<path opacity="0.15" d="M266.572 98.155H167.315C164.585 98.155 162.352 95.922 162.352 93.192V73.892C162.352 71.162 164.585 68.929 167.315 68.929H266.572C269.302 68.929 271.535 71.162 271.535 73.892V93.192C271.535 95.921 269.302 98.155 266.572 98.155Z" fill="#194D4D"/>
<path opacity="0.15" d="M266.572 156.054H167.315C164.585 156.054 162.352 153.821 162.352 151.091V131.791C162.352 129.061 164.585 126.828 167.315 126.828H266.572C269.302 126.828 271.535 129.061 271.535 131.791V151.091C271.535 153.821 269.302 156.054 266.572 156.054Z" fill="#194D4D"/>
<path d="M340.196 88.164L343.956 65.311C344.547 61.72 342.092 58.298 338.501 57.707L203.017 35.415C199.426 34.824 196.004 37.279 195.413 40.87L191.653 63.723C191.533 64.452 191.544 65.173 191.66 65.866L339.502 90.191C339.834 89.573 340.076 88.893 340.196 88.164Z" fill="#F97467"/>
<path d="M191.661 65.8669C192.113 68.5859 194.248 70.856 197.109 71.327L332.593 93.6189C335.455 94.0899 338.204 92.6229 339.503 90.1919L191.661 65.8669Z" fill="#E5605A"/>
<path d="M236.597 62.5266C236.044 62.4357 235.579 62.2531 235.2 61.979C234.821 61.7048 234.55 61.3424 234.387 60.8918C234.232 60.4426 234.206 59.9085 234.307 59.2896L234.928 55.5143L235.807 55.6588L235.203 59.3351C235.089 60.0283 235.172 60.5801 235.451 60.9906C235.741 61.3942 236.195 61.6469 236.814 61.7487C237.268 61.8233 237.675 61.797 238.035 61.6698C238.404 61.5357 238.705 61.3054 238.937 60.9791C239.177 60.6541 239.337 60.2441 239.419 59.7489L239.979 56.345L240.857 56.4895L239.789 62.988L238.947 62.8496L239.24 61.0671L239.323 61.4113C239.038 61.856 238.655 62.1786 238.173 62.3789C237.7 62.5724 237.175 62.6217 236.597 62.5266ZM243.973 63.7399C243.437 63.6516 242.941 63.4939 242.487 63.2666C242.034 63.0311 241.691 62.7754 241.456 62.4996L241.967 61.8716C242.198 62.113 242.508 62.342 242.896 62.5584C243.286 62.7665 243.707 62.9079 244.161 62.9826C244.78 63.0844 245.241 63.0628 245.545 62.9178C245.85 62.7645 246.029 62.527 246.082 62.2052C246.121 61.9659 246.073 61.7673 245.938 61.6095C245.813 61.4448 245.631 61.309 245.395 61.2023C245.159 61.0873 244.893 60.9799 244.596 60.8802C244.299 60.7805 244.003 60.6725 243.708 60.5562C243.422 60.4414 243.166 60.3017 242.938 60.1372C242.713 59.9644 242.54 59.7537 242.419 59.5051C242.307 59.2579 242.282 58.9486 242.343 58.5773C242.402 58.2224 242.553 57.921 242.797 57.673C243.041 57.425 243.366 57.2539 243.771 57.1595C244.186 57.0583 244.67 57.0531 245.223 57.1441C245.644 57.2133 246.055 57.3403 246.457 57.525C246.86 57.7015 247.183 57.903 247.426 58.1293L246.926 58.7717C246.67 58.5262 246.383 58.335 246.067 58.1982C245.752 58.0531 245.429 57.9534 245.099 57.8991C244.513 57.8028 244.063 57.8346 243.748 57.9948C243.444 58.1481 243.265 58.3815 243.214 58.695C243.173 58.9426 243.215 59.1487 243.341 59.3135C243.475 59.4795 243.658 59.6242 243.892 59.7474C244.136 59.8638 244.402 59.9711 244.691 60.0695C244.988 60.1693 245.279 60.2807 245.564 60.4038C245.859 60.5201 246.12 60.6604 246.347 60.8249C246.584 60.9825 246.758 61.185 246.87 61.4322C246.991 61.6725 247.023 61.9701 246.964 62.325C246.902 62.7046 246.74 63.017 246.48 63.2623C246.229 63.5007 245.888 63.665 245.458 63.7553C245.037 63.8387 244.542 63.8335 243.973 63.7399ZM251.032 64.901C250.355 64.7897 249.784 64.5517 249.319 64.1869C248.855 63.814 248.519 63.3561 248.312 62.8135C248.105 62.2626 248.055 61.6654 248.161 61.0217C248.267 60.378 248.497 59.8311 248.851 59.3807C249.213 58.9318 249.656 58.6063 250.181 58.4045C250.715 58.1958 251.284 58.1409 251.886 58.24C252.497 58.3405 253.014 58.5697 253.438 58.9276C253.872 59.2786 254.184 59.7283 254.373 60.2764C254.564 60.8163 254.606 61.4122 254.499 62.0642C254.492 62.1054 254.48 62.1501 254.464 62.1983C254.457 62.2395 254.45 62.2849 254.442 62.3344L248.785 61.404L248.893 60.7479L254.079 61.601L253.69 61.804C253.767 61.3336 253.733 60.8999 253.586 60.5029C253.449 60.099 253.224 59.7653 252.912 59.502C252.599 59.2387 252.216 59.0697 251.762 58.9951C251.316 58.9218 250.899 58.9591 250.51 59.107C250.122 59.255 249.798 59.4983 249.538 59.8371C249.279 60.1759 249.11 60.5846 249.032 61.0632L249.009 61.1993C248.928 61.6945 248.963 62.1495 249.115 62.5643C249.277 62.9723 249.534 63.3155 249.887 63.5938C250.249 63.8653 250.682 64.0424 251.185 64.1252C251.581 64.1904 251.96 64.1806 252.321 64.096C252.691 64.0127 253.023 63.847 253.318 63.5989L253.72 64.2498C253.374 64.5489 252.967 64.7532 252.5 64.8628C252.041 64.9738 251.552 64.9865 251.032 64.901ZM255.752 65.6138L256.821 59.1153L257.663 59.2538L257.372 61.0239L257.336 60.7002C257.599 60.2349 257.966 59.9097 258.437 59.7244C258.91 59.5309 259.464 59.4865 260.099 59.591L259.959 60.4451C259.926 60.4396 259.893 60.4342 259.86 60.4288C259.828 60.4151 259.796 60.4055 259.763 60.4001C259.078 60.2874 258.507 60.4096 258.05 60.7667C257.594 61.1155 257.303 61.6736 257.177 62.4411L256.631 65.7584L255.752 65.6138ZM265.02 60.4004C265.548 60.4873 265.993 60.6664 266.356 60.9379C266.727 61.2025 266.991 61.5594 267.146 62.0086C267.309 62.4592 267.339 62.9981 267.236 63.6253L266.615 67.4006L265.736 67.256L266.343 63.5673C266.455 62.8824 266.367 62.3382 266.077 61.9346C265.797 61.5241 265.348 61.2679 264.729 61.1661C264.267 61.0901 263.847 61.1185 263.469 61.2513C263.101 61.3772 262.793 61.6019 262.544 61.9256C262.306 62.2423 262.146 62.6482 262.064 63.1433L261.502 66.5597L260.624 66.4151L261.693 59.9166L262.534 60.0551L262.241 61.8375L262.16 61.4809C262.444 61.0445 262.834 60.7316 263.331 60.5422C263.83 60.3445 264.393 60.2972 265.02 60.4004ZM273.061 68.4609L273.297 67.025L273.299 66.7837L273.694 64.3824C273.785 63.8295 273.698 63.3787 273.433 63.0301C273.176 62.6828 272.743 62.4589 272.132 62.3585C271.711 62.2893 271.3 62.2936 270.897 62.3714C270.494 62.4493 270.142 62.582 269.84 62.7696L269.552 62.0484C269.928 61.8222 270.359 61.6728 270.846 61.6002C271.334 61.5195 271.834 61.5211 272.345 61.6053C273.187 61.7437 273.8 62.0607 274.185 62.5562C274.579 63.0448 274.706 63.7141 274.566 64.5641L273.903 68.5993L273.061 68.4609ZM270.81 68.1543C270.323 68.0742 269.911 67.9259 269.574 67.7094C269.246 67.486 269.011 67.2184 268.867 66.9066C268.725 66.5865 268.684 66.2408 268.745 65.8695C268.801 65.5312 268.929 65.2387 269.131 64.9922C269.342 64.7388 269.643 64.5594 270.033 64.4541C270.433 64.3419 270.942 64.3367 271.561 64.4385L273.802 64.807L273.694 65.463L271.478 65.0986C270.851 64.9954 270.395 65.0349 270.111 65.217C269.835 65.4004 269.67 65.6572 269.616 65.9873C269.555 66.3586 269.65 66.6794 269.902 66.9497C270.155 67.2201 270.541 67.398 271.06 67.4835C271.556 67.5649 271.999 67.5234 272.39 67.359C272.791 67.1877 273.11 66.901 273.345 66.4991L273.444 67.1382C273.208 67.5401 272.863 67.8351 272.408 68.023C271.962 68.2123 271.429 68.2561 270.81 68.1543ZM285.489 63.7673C286.017 63.8541 286.458 64.0326 286.812 64.3027C287.175 64.5659 287.43 64.9215 287.577 65.3693C287.732 65.8186 287.758 66.3568 287.655 66.984L287.034 70.7593L286.155 70.6147L286.762 66.926C286.874 66.2411 286.794 65.6982 286.521 65.2973C286.258 64.8896 285.829 64.6368 285.235 64.5391C284.789 64.4658 284.386 64.4969 284.024 64.6324C283.673 64.761 283.377 64.9878 283.137 65.3128C282.907 65.6308 282.751 66.0375 282.669 66.5326L282.107 69.9489L281.228 69.8044L281.835 66.1157C281.948 65.4308 281.868 64.8879 281.595 64.487C281.323 64.0779 280.89 63.8244 280.296 63.7267C279.858 63.6548 279.459 63.6865 279.098 63.8221C278.738 63.9493 278.438 64.1754 278.198 64.5004C277.968 64.8185 277.812 65.2251 277.73 65.7202L277.168 69.1365L276.29 68.992L277.359 62.4935L278.2 62.632L277.911 64.3896L277.826 64.0578C278.101 63.62 278.479 63.305 278.96 63.1129C279.451 62.9139 279.997 62.8639 280.599 62.963C281.235 63.0675 281.749 63.3174 282.142 63.7125C282.536 64.0994 282.746 64.6214 282.774 65.2785L282.45 65.0853C282.726 64.5884 283.13 64.2184 283.662 63.9753C284.203 63.7253 284.812 63.6559 285.489 63.7673ZM292.167 71.6672C291.491 71.5559 290.92 71.3179 290.454 70.9532C289.99 70.5802 289.654 70.1224 289.447 69.5798C289.241 69.0289 289.191 68.4316 289.297 67.788C289.402 67.1443 289.632 66.5973 289.986 66.147C290.348 65.698 290.791 65.3726 291.316 65.1707C291.851 64.962 292.419 64.9072 293.021 65.0063C293.632 65.1067 294.149 65.3359 294.574 65.6938C295.007 66.0449 295.319 66.4945 295.509 67.0427C295.7 67.5826 295.741 68.1785 295.634 68.8304C295.627 68.8717 295.616 68.9164 295.599 68.9645C295.593 69.0058 295.585 69.0512 295.577 69.1007L289.92 68.1702L290.028 67.5142L295.215 68.3673L294.825 68.5702C294.903 68.0998 294.868 67.6661 294.721 67.2691C294.584 66.8652 294.36 66.5316 294.047 66.2683C293.734 66.005 293.351 65.836 292.897 65.7613C292.452 65.688 292.034 65.7254 291.646 65.8733C291.257 66.0212 290.933 66.2646 290.674 66.6033C290.415 66.9421 290.246 67.3508 290.167 67.8294L290.145 67.9656C290.063 68.4607 290.098 68.9157 290.251 69.3306C290.412 69.7386 290.669 70.0817 291.022 70.3601C291.384 70.6315 291.817 70.8087 292.32 70.8915C292.716 70.9566 293.095 70.9469 293.457 70.8623C293.826 70.779 294.159 70.6133 294.454 70.3652L294.855 71.016C294.509 71.3151 294.103 71.5194 293.636 71.629C293.177 71.74 292.687 71.7527 292.167 71.6672Z" fill="white"/>
<path d="M393.392 318.806C393.392 318.806 394.575 321.071 396.146 322.987C400.099 327.81 400.169 321.082 396.389 316.397L393.392 318.806Z" fill="#FCD9D2"/>
<path d="M395.227 309.335L394.122 305.534L393.129 301.692L391.176 294.023C390.037 288.854 388.804 283.748 387.854 278.556C385.819 268.226 384.177 257.837 382.977 247.433C382.375 242.233 381.866 237.034 381.462 231.852C381.284 229.262 381.087 226.675 380.968 224.108C380.892 222.819 380.841 221.546 380.797 220.279L380.738 218.399C380.725 217.786 380.706 217.135 380.717 216.658L361.762 218.875L357.325 219.394C357.477 220.244 357.624 220.917 357.773 221.629L358.23 223.719C358.537 225.097 358.849 226.468 359.182 227.815C359.82 230.531 360.528 233.2 361.218 235.872C362.644 241.197 364.168 246.464 365.78 251.684C367.348 256.767 369.019 261.802 370.78 266.79C372.636 272.047 374.591 277.253 376.647 282.402C378.581 287.442 380.793 292.366 382.896 297.301L386.29 304.597L387.996 308.226L389.809 311.801C390.961 314.163 392.16 316.497 393.392 318.808L397.875 318.201C396.94 315.262 396.042 312.312 395.227 309.335Z" fill="#103737"/>
<path d="M376.397 308.403L375.7 304.486L374.337 296.671C373.596 291.42 372.754 286.222 372.203 280.964C371.643 276.243 371.176 271.516 370.781 266.789C369.02 261.801 367.349 256.766 365.781 251.683C364.169 246.462 362.645 241.196 361.219 235.871C360.529 233.198 359.821 230.53 359.183 227.814C358.85 226.467 358.538 225.096 358.231 223.718L357.774 221.628C357.626 220.916 357.478 220.243 357.326 219.393L361.763 218.874L346.272 219.295C346.358 220.155 346.454 220.839 346.548 221.562L346.844 223.685C347.045 225.086 347.252 226.479 347.482 227.851C347.911 230.614 348.413 233.336 348.898 236.06C349.914 241.493 351.033 246.876 352.242 252.221C354.657 262.91 357.508 273.44 360.737 283.796C362.281 288.99 364.112 294.093 365.833 299.198L368.661 306.77L370.085 310.538L371.62 314.261C372.561 316.647 373.552 319.009 374.571 321.353L379.025 320.75C378.371 317.941 377.756 315.123 377.209 312.288L376.397 308.403Z" fill="#194D4D"/>
<path d="M375.535 146.274C375.535 146.274 372.648 150.547 371.399 157.994C370.737 161.942 381.742 161.639 381.742 161.639C381.742 161.639 364.032 170.233 357.239 163.727C350.446 157.221 356.42 153.44 356.42 153.44C356.42 153.44 357.972 154.782 362.692 153.299C365.871 152.3 363.041 142.849 363.041 142.849L375.535 146.274Z" fill="#FFCDC5"/>
<path d="M371.399 157.483C371.399 157.483 382.655 160.131 383.42 162.565C384.185 164.999 369.592 184.419 383.167 221.519C383.167 226.114 347.01 225.391 345.319 219.062C339.416 196.965 339.49 153.425 351.301 152.425C354.463 152.157 360.24 153.661 360.24 153.661C360.24 153.661 358.524 156.739 362.925 159.173C367.326 161.607 371.399 157.483 371.399 157.483Z" fill="#194D4D"/>
<path d="M369.036 122.127C369.036 122.127 366.505 127.204 363.652 132.918C362.233 135.297 358.907 143.282 359.191 145.217C359.504 147.343 370.683 153.036 377.859 145.217C383.565 139 386.574 135.243 384.236 130.885C381.898 126.527 373.145 117.097 369.036 122.127Z" fill="#FCD9D2"/>
<path d="M374.225 318.806C374.225 318.806 374.703 326.358 378.074 326.237C381.445 326.115 378.829 319.793 378.829 319.793L374.225 318.806Z" fill="#FCD9D2"/>
<path d="M372.385 319.898H379.766" stroke="#103737" stroke-width="2.533" stroke-miterlimit="10" stroke-linecap="round"/>
<path d="M392.681 319.562L398.835 318.274" stroke="#103737" stroke-width="2.533" stroke-miterlimit="10" stroke-linecap="round"/>
<path d="M374.644 322.777L369.014 324.561C368.862 324.609 368.726 324.706 368.626 324.838C368.199 325.396 368.567 326.238 369.238 326.238H375.519H380.48C380.918 326.238 381.273 325.855 381.273 325.382V323.598C381.273 323.125 380.918 322.742 380.48 322.742H374.867C374.792 322.742 374.717 322.754 374.644 322.777Z" fill="#103737"/>
<path d="M394.797 322.116L391.881 323.9C391.729 323.948 391.594 324.045 391.493 324.177C391.066 324.735 391.434 325.577 392.105 325.577H395.672H400.633C401.071 325.577 401.426 325.194 401.426 324.721L400.837 322.937C400.837 322.464 400.482 322.081 400.044 322.081H395.019C394.945 322.081 394.87 322.093 394.797 322.116Z" fill="#103737"/>
<path d="M330.388 122.312C330.388 122.312 323.951 123.776 323.846 126.458C323.78 128.136 325.83 137.228 330.925 144.498C334.958 150.251 346.271 156.304 346.271 156.304C346.271 156.304 349.079 152.383 336.186 131.086C330.874 122.312 330.388 122.312 330.388 122.312Z" fill="#FCD9D2"/>
<path d="M324.929 128.862C324.929 128.862 317.978 120.636 319.094 97.8079C320.567 93.2869 321.063 97.8079 321.063 97.8079C321.063 97.8079 332.048 120.769 331.629 124.207C331.211 127.645 324.929 128.862 324.929 128.862Z" fill="#FCD9D2"/>
<path d="M319.794 100.675C319.794 100.675 318.191 97.808 318.293 96.023C318.492 92.543 318.374 88.273 318.374 88.273C323.091 87.499 321.051 96.954 321.051 96.954L319.794 100.675Z" fill="#FCD9D2"/>
<path d="M353.173 152.954C353.173 152.954 341.361 141.16 334.516 127.513C329.449 117.411 326.036 105.464 324.905 100.941C324.905 95.57 313.421 101.358 316.425 103.485C317.835 104.484 319.83 133.186 326.602 144.191C334.252 156.625 342.998 166.806 342.998 166.806L344.519 163.848C346.14 160.696 348.106 157.733 350.379 155.014L353.173 152.954Z" fill="#194D4D"/>
<path d="M364.992 122.197C365.793 123.715 367.841 123.98 369.554 123.875C371.267 123.77 373.176 123.539 374.527 124.598C376.513 126.155 376.033 129.494 377.803 131.292C378.595 132.097 379.717 132.461 380.699 133.018C381.681 133.575 382.62 134.517 382.541 135.643C382.453 136.899 381.204 137.684 380.186 138.425C377.353 140.487 375.424 143.749 374.982 147.225C374.933 147.609 374.909 148.027 375.113 148.356C375.328 148.701 375.743 148.862 376.138 148.957C378.125 149.433 380.265 148.768 381.906 147.549C383.547 146.33 384.747 144.61 385.732 142.819C388.538 137.718 389.741 131.305 387.16 126.087C386.336 124.422 385.17 122.956 384.013 121.503C383.124 120.387 382.208 119.247 380.985 118.512C379.764 117.778 378.327 117.504 376.92 117.285C374.458 116.901 370.245 115.725 367.826 116.545C365.858 117.212 363.895 120.118 364.992 122.197Z" fill="#194D4D"/>
<path d="M365.335 129.07C365.339 129.072 365.343 129.074 365.347 129.075C365.221 129.005 365.293 129.053 365.335 129.07Z" fill="#194D4D"/>
<path d="M367.634 130.838C367.664 130.704 367.639 130.573 367.587 130.452C367.478 130.144 367.195 129.974 366.907 129.85C366.793 129.804 366.679 129.757 366.565 129.712C366.309 129.599 366.078 129.45 365.833 129.318C365.77 129.284 365.708 129.248 365.648 129.211C365.554 129.153 365.451 129.116 365.347 129.076C365.352 129.079 365.352 129.079 365.357 129.082C365.332 129.068 365.304 129.059 365.278 129.046C365.212 129.014 365.148 128.977 365.085 128.939C364.748 128.738 364.292 129.072 364.41 129.458C364.442 129.562 364.478 129.666 364.515 129.768C364.533 129.817 364.553 129.866 364.573 129.915C364.599 129.977 364.62 130.048 364.654 130.106C364.694 130.175 364.755 130.239 364.805 130.302C364.987 130.531 365.203 130.709 365.446 130.871C365.641 131.002 365.848 131.112 366.064 131.205C366.282 131.298 366.501 131.367 366.74 131.374C366.967 131.381 367.259 131.309 367.423 131.138C367.524 131.063 367.605 130.967 367.634 130.838Z" fill="#194D4D"/>
<path d="M366.846 129.821C366.866 129.829 366.887 129.84 366.907 129.849C366.949 129.866 366.991 129.882 367.032 129.9C366.97 129.874 366.908 129.848 366.846 129.821Z" fill="#194D4D"/>
<path d="M375.387 130.221C373.512 129.132 371.123 128.119 368.938 128.603C367.09 129.013 366.633 131.088 367.32 132.58C368.222 134.538 370.866 135.721 372.829 136.289C376.45 137.338 378.645 132.113 375.387 130.221Z" fill="#194D4D"/>
<path d="M375.374 164.699C371.106 164.31 366.867 163.674 362.671 162.804C358.786 161.998 354.987 160.946 351.187 159.817C349.297 159.255 347.379 158.512 345.436 157.927C344.745 159.446 344.151 161.234 343.648 163.235C345.092 163.824 346.594 164.307 348.055 164.8C352.601 166.336 357.326 167.407 362.045 168.257C366.174 169.001 370.347 169.543 374.53 169.871C376.584 170.032 378.754 170.308 380.845 170.202C381.534 168.198 382.186 166.58 382.668 165.342C380.321 164.824 377.798 164.919 375.374 164.699Z" fill="#EEF6FF"/>
<path d="M379.049 176.434C378.552 176.381 378.057 176.324 377.567 176.26C372.726 175.621 367.888 174.925 363.057 174.214C356.193 173.203 349.17 172.107 342.301 170.667C342.098 172.283 341.933 173.966 341.806 175.701C348.524 178.366 355.399 180.076 362.823 181.373C367.553 182.2 372.321 182.841 377.083 183.449C377.326 183.48 377.569 183.511 377.812 183.541C378.116 180.928 378.55 178.561 379.049 176.434Z" fill="#EEF6FF"/>
<path d="M377.476 195.179C377.363 193.069 377.34 191.057 377.399 189.152C373.525 188.9 369.655 188.605 365.799 188.141C360.092 187.454 354.388 186.461 348.811 185.055C346.353 184.435 343.912 183.722 341.487 182.979C341.457 184.842 341.464 186.732 341.505 188.634C347.221 190.83 353.261 192.23 359.293 193.205C365.312 194.177 371.393 194.79 377.476 195.179Z" fill="#EEF6FF"/>
<path d="M378.852 206.169C378.459 204.139 378.151 202.179 377.923 200.292C373.028 200.009 368.129 199.661 363.25 199.174C358.197 198.67 353.166 197.975 348.142 197.239C346.09 196.938 343.971 196.488 341.845 196.165C341.982 198.176 342.154 200.173 342.362 202.135C344.092 202.47 345.829 202.727 347.465 203.028C352.394 203.934 357.383 204.562 362.365 205.088C367.385 205.619 372.412 206.004 377.46 206.132C377.924 206.143 378.388 206.156 378.852 206.169Z" fill="#EEF6FF"/>
<path d="M365.22 212.722C357.755 212.451 350.534 211.249 343.359 209.656C343.694 211.73 344.069 213.723 344.483 215.605C351.257 217.397 358.304 218.293 365.22 218.55C370.793 218.757 376.36 218.492 381.892 217.823C381.26 215.889 380.712 214.01 380.229 212.177C375.247 212.72 370.224 212.904 365.22 212.722Z" fill="#EEF6FF"/>
<path d="M396.315 202.178C396.315 202.178 404.66 200.288 405.119 197.573C405.407 195.874 404.13 186.808 399.034 179.765C395.001 174.191 380.56 166.479 380.56 166.479C380.56 166.479 378.619 172.874 391.151 193.628C396.315 202.178 396.315 202.178 396.315 202.178Z" fill="#FCD9D2"/>
<path d="M396.987 200.047C394.811 201.572 389.452 214.092 387.427 221.389C387.229 221.561 387.041 221.74 386.89 221.96C386.704 222.231 386.516 222.499 386.311 222.757C386.112 223.007 385.903 223.248 385.684 223.481C385.668 223.498 385.667 223.499 385.667 223.499C385.659 223.507 385.657 223.509 385.639 223.527C385.612 223.555 385.585 223.582 385.558 223.609C385.503 223.664 385.45 223.719 385.395 223.774C385.272 223.897 385.146 224.016 385.017 224.134C384.815 224.318 384.75 224.598 384.896 224.839C385.022 225.047 385.344 225.197 385.577 225.057C385.617 225.033 385.655 225.005 385.696 224.981L385.698 224.984C385.702 224.98 385.706 224.976 385.71 224.972C386.047 224.766 386.374 224.546 386.694 224.316C386.161 225.819 384.655 227.105 384.655 227.105C384.655 227.105 380.196 231.193 384.89 229.064C403.91 213.63 405.214 197.475 405.214 197.475C405.214 197.475 400.037 197.909 396.987 200.047Z" fill="#FCD9D2"/>
<path d="M406.124 193.662C399.716 173.592 384.984 159.728 379.044 160.688C374.231 161.466 376.074 170.678 379.114 176.907C381.438 181.67 391.01 197.544 394.304 199.803C394.5 199.98 394.739 200.117 394.965 200.254L393.802 201.758C390.57 205.935 388.275 210.759 387.074 215.903L386.27 219.344C386.27 219.344 392.4 222.154 393.165 223.47C401.935 213.903 405.215 203.415 406.323 198.645C406.708 196.993 406.639 195.275 406.124 193.662Z" fill="#194D4D"/>
<path d="M394.623 221.529C394.095 220.902 393.332 220.493 392.633 220.076C391.912 219.646 391.161 219.26 390.426 218.856C389.819 218.522 389.186 218.231 388.564 217.925C387.732 217.515 386.727 217.1 385.906 217.771C385.271 218.29 385.353 219.178 385.941 219.683C385.896 219.64 385.85 219.597 385.805 219.554C385.886 219.632 385.967 219.71 386.048 219.788C386.093 219.826 386.142 219.854 386.19 219.888C386.254 219.934 386.31 219.986 386.372 220.034C386.393 220.05 386.387 220.044 386.391 220.045C386.675 220.318 386.968 220.571 387.273 220.821C387.787 221.242 388.295 221.67 388.827 222.067C389.341 222.45 389.848 222.848 390.372 223.217C390.642 223.407 390.919 223.588 391.191 223.774C391.584 224.044 391.966 224.34 392.424 224.488C393.207 224.742 394.171 224.584 394.665 223.856C395.134 223.166 395.183 222.195 394.623 221.529Z" fill="#194D4D"/>
<path d="M365.578 225.428L355.585 221.085C354.015 220.403 352.171 221.129 351.489 222.699L325.741 281.943C325.059 283.513 325.785 285.357 327.355 286.039L337.348 290.382C337.667 290.521 337.997 290.598 338.327 290.625L366.423 225.976C366.179 225.755 365.897 225.567 365.578 225.428Z" fill="#F97467"/>
<path d="M338.328 290.626C339.621 290.732 340.902 290.02 341.445 288.768L367.193 229.524C367.737 228.273 367.384 226.85 366.424 225.977L338.328 290.626Z" fill="#E5605A"/>
<path d="M343.027 269.208C342.92 269.453 342.768 269.651 342.569 269.801C342.368 269.949 342.134 270.036 341.87 270.063C341.603 270.084 341.315 270.027 341.004 269.893C340.694 269.758 340.457 269.586 340.295 269.378C340.128 269.169 340.032 268.94 340.007 268.693C339.981 268.446 340.023 268.198 340.131 267.949C340.248 267.679 340.415 267.463 340.63 267.304C340.843 267.139 341.087 267.043 341.36 267.016C341.63 266.988 341.907 267.035 342.192 267.159C342.481 267.285 342.707 267.456 342.87 267.673C343.033 267.889 343.129 268.133 343.158 268.403C343.188 268.669 343.144 268.937 343.027 269.208ZM343.412 271.119L339.52 269.428L339.68 269.06L340.535 269.431L341.087 269.716L341.685 269.912L343.579 270.735L343.412 271.119ZM342.674 269.087C342.762 268.885 342.795 268.685 342.774 268.487C342.749 268.287 342.674 268.104 342.549 267.938C342.42 267.771 342.245 267.639 342.025 267.544C341.805 267.448 341.592 267.411 341.385 267.433C341.178 267.454 340.993 267.524 340.831 267.642C340.668 267.76 340.542 267.92 340.455 268.122C340.367 268.324 340.334 268.527 340.358 268.73C340.383 268.93 340.458 269.112 340.583 269.278C340.71 269.441 340.883 269.57 341.103 269.665C341.323 269.761 341.538 269.801 341.746 269.784C341.953 269.762 342.138 269.693 342.301 269.575C342.462 269.451 342.586 269.289 342.674 269.087ZM344.723 265.23L344.096 264.957L343.986 264.928L342.936 264.472C342.694 264.367 342.478 264.355 342.289 264.435C342.101 264.512 341.949 264.684 341.833 264.951C341.753 265.135 341.707 265.324 341.697 265.516C341.686 265.709 341.706 265.885 341.757 266.044L341.394 266.093C341.335 265.895 341.316 265.681 341.339 265.451C341.358 265.219 341.416 264.991 341.514 264.768C341.674 264.4 341.889 264.156 342.159 264.038C342.427 263.914 342.747 263.933 343.119 264.095L344.883 264.862L344.723 265.23ZM344.325 266.221C344.232 266.434 344.117 266.605 343.98 266.734C343.84 266.858 343.691 266.934 343.532 266.964C343.37 266.992 343.207 266.971 343.045 266.9C342.897 266.836 342.778 266.744 342.689 266.623C342.598 266.498 342.55 266.34 342.547 266.15C342.542 265.955 342.598 265.722 342.716 265.451L343.142 264.471L343.429 264.596L343.008 265.565C342.888 265.839 342.854 266.052 342.904 266.202C342.956 266.349 343.054 266.454 343.199 266.517C343.361 266.587 343.518 266.581 343.671 266.497C343.823 266.413 343.949 266.257 344.047 266.03C344.142 265.813 344.174 265.606 344.144 265.409C344.112 265.206 344.017 265.028 343.861 264.874L344.164 264.903C344.32 265.057 344.415 265.248 344.449 265.477C344.484 265.702 344.442 265.95 344.325 266.221ZM345.696 263.066C345.594 263.301 345.465 263.509 345.309 263.69C345.15 263.869 344.993 263.997 344.841 264.072L344.613 263.767C344.75 263.689 344.89 263.574 345.033 263.422C345.173 263.268 345.286 263.092 345.372 262.893C345.49 262.623 345.533 262.41 345.502 262.255C345.467 262.098 345.379 261.989 345.238 261.928C345.134 261.882 345.037 261.881 344.95 261.925C344.86 261.963 344.778 262.03 344.702 262.126C344.622 262.22 344.543 262.329 344.463 262.453C344.383 262.577 344.3 262.7 344.213 262.821C344.128 262.938 344.034 263.039 343.933 263.124C343.828 263.207 343.712 263.262 343.585 263.288C343.46 263.311 343.316 263.287 343.153 263.216C342.998 263.149 342.878 263.045 342.793 262.905C342.708 262.765 342.667 262.597 342.671 262.402C342.672 262.201 342.726 261.979 342.831 261.737C342.911 261.553 343.016 261.38 343.146 261.218C343.273 261.055 343.402 260.931 343.533 260.846L343.769 261.148C343.628 261.236 343.507 261.345 343.409 261.474C343.306 261.601 343.224 261.737 343.161 261.881C343.049 262.137 343.012 262.346 343.049 262.508C343.084 262.665 343.17 262.773 343.307 262.833C343.415 262.88 343.514 262.884 343.604 262.846C343.695 262.804 343.782 262.737 343.865 262.644C343.946 262.546 344.026 262.437 344.104 262.317C344.184 262.193 344.268 262.073 344.357 261.957C344.444 261.836 344.538 261.733 344.639 261.648C344.738 261.558 344.851 261.502 344.976 261.479C345.1 261.452 345.239 261.472 345.394 261.539C345.56 261.611 345.684 261.721 345.766 261.868C345.846 262.01 345.882 262.184 345.874 262.391C345.863 262.592 345.804 262.817 345.696 263.066ZM346.844 260.423C346.743 260.658 346.614 260.866 346.458 261.047C346.298 261.226 346.142 261.354 345.989 261.429L345.761 261.124C345.898 261.046 346.038 260.931 346.182 260.779C346.321 260.625 346.434 260.449 346.521 260.251C346.638 259.98 346.681 259.767 346.65 259.612C346.615 259.455 346.528 259.346 346.387 259.285C346.282 259.24 346.186 259.239 346.099 259.282C346.009 259.32 345.926 259.387 345.85 259.483C345.771 259.577 345.691 259.686 345.612 259.81C345.532 259.935 345.449 260.057 345.362 260.178C345.276 260.295 345.183 260.396 345.082 260.481C344.977 260.564 344.861 260.619 344.734 260.645C344.608 260.668 344.464 260.644 344.302 260.573C344.147 260.506 344.027 260.402 343.942 260.262C343.857 260.122 343.816 259.954 343.819 259.759C343.821 259.558 343.874 259.336 343.979 259.095C344.059 258.911 344.165 258.737 344.295 258.575C344.422 258.412 344.551 258.288 344.682 258.203L344.918 258.505C344.776 258.594 344.656 258.702 344.557 258.831C344.455 258.958 344.372 259.094 344.309 259.238C344.198 259.494 344.161 259.703 344.198 259.865C344.233 260.022 344.319 260.13 344.456 260.19C344.564 260.237 344.663 260.241 344.752 260.203C344.844 260.161 344.931 260.094 345.014 260.001C345.095 259.903 345.175 259.794 345.253 259.674C345.332 259.55 345.417 259.43 345.506 259.314C345.593 259.193 345.687 259.09 345.788 259.005C345.887 258.915 345.999 258.859 346.125 258.837C346.249 258.809 346.388 258.829 346.543 258.896C346.709 258.968 346.833 259.078 346.915 259.225C346.995 259.367 347.031 259.541 347.022 259.748C347.012 259.949 346.953 260.175 346.844 260.423ZM347.863 258.006L344.556 257.842L344.716 257.474L347.775 257.646L347.702 257.813L345.501 255.666L345.645 255.336L348.711 255.491L348.638 255.659L346.433 253.523L346.586 253.171L348.959 255.483L348.802 255.846L345.909 255.721L345.958 255.608L348.021 257.643L347.863 258.006ZM350.175 252.76C350.056 253.035 349.887 253.255 349.669 253.422C349.448 253.584 349.202 253.68 348.931 253.713C348.656 253.743 348.378 253.697 348.096 253.575C347.811 253.451 347.588 253.279 347.426 253.059C347.265 252.838 347.17 252.593 347.141 252.323C347.112 252.054 347.159 251.78 347.279 251.502C347.402 251.22 347.571 250.998 347.788 250.835C348.006 250.668 348.25 250.57 348.52 250.542C348.792 250.51 349.07 250.555 349.355 250.679C349.636 250.802 349.86 250.974 350.025 251.196C350.188 251.413 350.285 251.658 350.316 251.934C350.343 252.207 350.296 252.483 350.175 252.76ZM349.834 252.612C349.923 252.407 349.958 252.205 349.936 252.007C349.912 251.807 349.836 251.626 349.709 251.464C349.58 251.296 349.406 251.165 349.186 251.069C348.962 250.972 348.747 250.934 348.54 250.956C348.335 250.974 348.152 251.043 347.993 251.162C347.83 251.28 347.705 251.44 347.617 251.642C347.529 251.844 347.498 252.045 347.523 252.245C347.544 252.443 347.617 252.625 347.742 252.791C347.868 252.957 348.042 253.088 348.266 253.185C348.486 253.281 348.701 253.319 348.912 253.299C349.118 253.277 349.303 253.207 349.466 253.089C349.625 252.97 349.748 252.811 349.834 252.612ZM351.12 250.514L348.278 249.278L348.438 248.91L349.212 249.247L349.06 249.226C348.878 249.052 348.772 248.848 348.742 248.611C348.708 248.373 348.751 248.116 348.872 247.838L349.245 248C349.239 248.015 349.233 248.029 349.227 248.043C349.217 248.056 349.209 248.07 349.202 248.084C349.072 248.384 349.062 248.658 349.173 248.908C349.279 249.156 349.5 249.353 349.836 249.499L351.287 250.129L351.12 250.514ZM352.553 247.29C352.435 247.561 352.268 247.778 352.051 247.941C351.836 248.101 351.593 248.195 351.323 248.223C351.05 248.25 350.771 248.202 350.486 248.078C350.197 247.952 349.971 247.781 349.808 247.565C349.645 247.348 349.55 247.107 349.523 246.842C349.495 246.573 349.539 246.302 349.657 246.032C349.765 245.783 349.917 245.585 350.114 245.439C350.312 245.289 350.545 245.203 350.811 245.182C351.076 245.156 351.363 245.21 351.674 245.345C351.98 245.478 352.217 245.649 352.383 245.859C352.55 246.068 352.647 246.298 352.677 246.546C352.704 246.79 352.662 247.038 352.553 247.29ZM352.223 247.115C352.311 246.913 352.344 246.713 352.323 246.515C352.3 246.312 352.225 246.129 352.098 245.967C351.969 245.799 351.795 245.668 351.575 245.572C351.351 245.475 351.136 245.437 350.929 245.459C350.724 245.477 350.541 245.547 350.38 245.67C350.217 245.788 350.092 245.948 350.004 246.15C349.918 246.349 349.887 246.548 349.912 246.748C349.933 246.945 350.006 247.127 350.132 247.293C350.257 247.459 350.431 247.591 350.655 247.688C350.875 247.784 351.09 247.822 351.301 247.802C351.508 247.78 351.692 247.71 351.855 247.592C352.014 247.472 352.137 247.313 352.223 247.115ZM353.003 246.18L352.148 245.808L351.591 245.521L350.993 245.326L348.98 244.45L349.147 244.066L353.163 245.812L353.003 246.18Z" fill="white"/>
<path d="M340.26 231.471L329.37 231.123C327.659 231.068 326.214 232.424 326.159 234.135L325.772 279.661C325.717 281.372 327.073 282.817 328.784 282.872L339.674 283.22C340.022 283.231 340.357 283.182 340.673 283.085L341.248 231.67C340.94 231.553 340.608 231.482 340.26 231.471Z" fill="#F97467"/>
<path d="M340.674 283.085C341.915 282.707 342.842 281.572 342.886 280.208L343.273 234.682C343.317 233.318 342.463 232.126 341.25 231.67L340.674 283.085Z" fill="#E5605A"/>
<path d="M335.17 271.607C335.161 271.874 335.093 272.114 334.964 272.327C334.831 272.539 334.647 272.706 334.41 272.829C334.17 272.947 333.881 273.001 333.543 272.99C333.205 272.979 332.922 272.907 332.694 272.774C332.462 272.64 332.288 272.464 332.173 272.243C332.058 272.023 332.005 271.777 332.014 271.506C332.023 271.211 332.099 270.95 332.24 270.722C332.377 270.49 332.568 270.311 332.812 270.185C333.052 270.059 333.328 270.001 333.638 270.011C333.953 270.021 334.226 270.097 334.458 270.238C334.689 270.379 334.868 270.57 334.995 270.81C335.121 271.046 335.179 271.312 335.17 271.607ZM336.234 273.241L331.992 273.106L332.005 272.705L332.937 272.734L333.555 272.795L334.182 272.756L336.247 272.822L336.234 273.241ZM334.797 271.624C334.804 271.404 334.761 271.206 334.669 271.03C334.572 270.854 334.435 270.711 334.257 270.603C334.076 270.495 333.865 270.437 333.625 270.43C333.385 270.422 333.173 270.466 332.989 270.563C332.805 270.659 332.659 270.793 332.551 270.962C332.443 271.132 332.386 271.327 332.379 271.547C332.372 271.768 332.416 271.968 332.513 272.148C332.61 272.324 332.747 272.466 332.925 272.574C333.102 272.679 333.311 272.734 333.551 272.742C333.791 272.75 334.005 272.707 334.193 272.615C334.377 272.518 334.523 272.385 334.631 272.216C334.735 272.042 334.79 271.845 334.797 271.624ZM335.278 267.283L334.594 267.261L334.481 267.275L333.337 267.239C333.074 267.23 332.869 267.299 332.722 267.444C332.576 267.585 332.498 267.801 332.489 268.092C332.483 268.292 332.51 268.484 332.571 268.667C332.632 268.85 332.716 269.006 332.822 269.136L332.503 269.314C332.374 269.153 332.278 268.961 332.214 268.738C332.147 268.516 332.117 268.282 332.125 268.039C332.137 267.638 332.248 267.332 332.455 267.122C332.659 266.908 332.963 266.808 333.368 266.821L335.291 266.882L335.278 267.283ZM335.274 268.352C335.266 268.584 335.223 268.785 335.142 268.956C335.058 269.122 334.948 269.249 334.811 269.335C334.671 269.421 334.512 269.461 334.335 269.456C334.174 269.45 334.03 269.408 333.902 269.33C333.771 269.247 333.669 269.117 333.596 268.942C333.519 268.762 333.485 268.525 333.494 268.23L333.528 267.162L333.841 267.172L333.807 268.228C333.798 268.527 333.844 268.737 333.947 268.859C334.049 268.976 334.179 269.037 334.336 269.042C334.513 269.048 334.657 268.984 334.768 268.849C334.878 268.715 334.938 268.524 334.946 268.276C334.953 268.04 334.906 267.836 334.806 267.664C334.701 267.487 334.548 267.356 334.346 267.271L334.638 267.186C334.84 267.271 334.999 267.414 335.114 267.614C335.23 267.811 335.283 268.057 335.274 268.352ZM335.384 264.914C335.375 265.169 335.332 265.41 335.254 265.636C335.172 265.861 335.074 266.037 334.96 266.164L334.635 265.964C334.734 265.842 334.822 265.683 334.899 265.489C334.972 265.294 335.012 265.089 335.019 264.872C335.028 264.577 334.99 264.364 334.903 264.231C334.813 264.098 334.691 264.029 334.538 264.024C334.424 264.021 334.334 264.055 334.269 264.128C334.2 264.197 334.148 264.289 334.112 264.406C334.073 264.523 334.04 264.654 334.011 264.799C333.983 264.944 333.951 265.088 333.915 265.233C333.879 265.373 333.829 265.502 333.767 265.618C333.7 265.734 333.612 265.827 333.504 265.899C333.395 265.966 333.253 265.997 333.076 265.991C332.907 265.986 332.757 265.934 332.626 265.835C332.495 265.737 332.395 265.596 332.326 265.412C332.254 265.225 332.222 265 332.23 264.736C332.236 264.536 332.27 264.336 332.332 264.137C332.389 263.938 332.463 263.775 332.554 263.648L332.884 263.842C332.786 263.976 332.714 264.122 332.67 264.278C332.621 264.434 332.595 264.59 332.59 264.748C332.581 265.027 332.623 265.235 332.718 265.372C332.808 265.504 332.928 265.573 333.077 265.578C333.195 265.582 333.289 265.549 333.358 265.481C333.427 265.408 333.483 265.313 333.526 265.197C333.565 265.076 333.599 264.945 333.627 264.804C333.656 264.66 333.69 264.517 333.73 264.377C333.766 264.232 333.815 264.102 333.878 263.986C333.937 263.865 334.02 263.772 334.129 263.704C334.234 263.633 334.37 263.6 334.54 263.605C334.72 263.611 334.876 263.667 335.007 263.774C335.133 263.876 335.231 264.025 335.299 264.22C335.364 264.411 335.392 264.642 335.384 264.914ZM335.475 262.033C335.467 262.289 335.424 262.529 335.346 262.755C335.264 262.981 335.166 263.157 335.052 263.283L334.727 263.084C334.826 262.961 334.914 262.803 334.991 262.608C335.064 262.414 335.104 262.208 335.111 261.992C335.12 261.697 335.082 261.483 334.995 261.351C334.905 261.218 334.783 261.149 334.63 261.144C334.516 261.14 334.426 261.175 334.361 261.248C334.292 261.316 334.24 261.409 334.204 261.526C334.165 261.643 334.131 261.774 334.103 261.918C334.075 262.063 334.043 262.208 334.007 262.352C333.971 262.493 333.921 262.621 333.859 262.737C333.792 262.853 333.704 262.947 333.596 263.018C333.487 263.086 333.345 263.117 333.168 263.111C332.998 263.106 332.849 263.054 332.718 262.955C332.587 262.856 332.487 262.715 332.418 262.532C332.346 262.345 332.313 262.119 332.322 261.856C332.328 261.655 332.362 261.455 332.424 261.257C332.481 261.058 332.555 260.895 332.646 260.768L332.976 260.961C332.878 261.096 332.806 261.241 332.762 261.397C332.713 261.553 332.687 261.71 332.682 261.867C332.673 262.146 332.715 262.354 332.809 262.491C332.9 262.624 333.02 262.693 333.169 262.698C333.287 262.701 333.381 262.669 333.45 262.6C333.519 262.528 333.575 262.433 333.618 262.316C333.657 262.196 333.691 262.065 333.719 261.924C333.747 261.779 333.782 261.637 333.821 261.496C333.858 261.352 333.907 261.221 333.97 261.105C334.029 260.985 334.112 260.891 334.221 260.824C334.325 260.752 334.462 260.719 334.631 260.725C334.812 260.731 334.968 260.787 335.098 260.893C335.225 260.996 335.323 261.144 335.391 261.34C335.456 261.531 335.484 261.762 335.475 262.033ZM335.53 259.41L332.395 260.479L332.408 260.078L335.315 259.108L335.309 259.291L332.471 258.108L332.483 257.748L335.39 256.76L335.384 256.943L332.546 255.772L332.558 255.388L335.617 256.661L335.605 257.056L332.87 258.008L332.874 257.884L335.542 259.015L335.53 259.41ZM335.742 253.681C335.732 253.98 335.657 254.248 335.516 254.483C335.37 254.715 335.178 254.896 334.937 255.026C334.693 255.156 334.418 255.216 334.111 255.206C333.8 255.196 333.529 255.119 333.297 254.973C333.066 254.828 332.887 254.635 332.761 254.395C332.635 254.155 332.576 253.883 332.586 253.581C332.596 253.274 332.671 253.005 332.813 252.773C332.954 252.537 333.145 252.356 333.385 252.23C333.625 252.1 333.901 252.04 334.212 252.05C334.518 252.06 334.789 252.137 335.025 252.283C335.257 252.424 335.437 252.617 335.567 252.861C335.693 253.105 335.752 253.379 335.742 253.681ZM335.37 253.67C335.378 253.445 335.335 253.245 335.242 253.069C335.145 252.893 335.008 252.753 334.83 252.648C334.649 252.54 334.438 252.482 334.198 252.475C333.954 252.467 333.74 252.511 333.556 252.608C333.372 252.7 333.228 252.832 333.124 253.001C333.016 253.171 332.959 253.366 332.952 253.586C332.945 253.807 332.99 254.005 333.086 254.181C333.179 254.357 333.314 254.5 333.492 254.608C333.67 254.716 333.881 254.773 334.124 254.781C334.364 254.789 334.578 254.745 334.766 254.648C334.95 254.552 335.096 254.419 335.204 254.249C335.308 254.079 335.363 253.886 335.37 253.67ZM335.79 251.244L332.693 251.146L332.706 250.744L333.55 250.771L333.401 250.808C333.168 250.714 332.993 250.563 332.878 250.354C332.759 250.146 332.704 249.89 332.713 249.587L333.12 249.6C333.12 249.616 333.119 249.632 333.119 249.647C333.115 249.663 333.112 249.679 333.112 249.694C333.101 250.021 333.193 250.28 333.388 250.471C333.579 250.662 333.857 250.763 334.223 250.775L335.804 250.826L335.79 251.244ZM335.932 247.72C335.923 248.015 335.848 248.278 335.706 248.51C335.565 248.737 335.374 248.914 335.134 249.041C334.89 249.167 334.613 249.225 334.302 249.215C333.987 249.205 333.714 249.129 333.483 248.988C333.251 248.847 333.074 248.658 332.951 248.422C332.825 248.181 332.767 247.914 332.776 247.619C332.785 247.348 332.854 247.108 332.982 246.899C333.111 246.687 333.296 246.521 333.535 246.403C333.772 246.281 334.059 246.225 334.397 246.236C334.731 246.246 335.014 246.318 335.246 246.452C335.478 246.585 335.654 246.762 335.773 246.982C335.888 247.199 335.941 247.444 335.932 247.72ZM335.562 247.678C335.569 247.458 335.526 247.26 335.433 247.084C335.336 246.903 335.199 246.761 335.021 246.657C334.84 246.549 334.629 246.491 334.389 246.484C334.145 246.476 333.931 246.52 333.747 246.617C333.563 246.709 333.419 246.842 333.315 247.016C333.207 247.186 333.15 247.381 333.143 247.601C333.136 247.817 333.181 248.014 333.278 248.19C333.37 248.366 333.506 248.508 333.683 248.616C333.861 248.724 334.072 248.782 334.316 248.79C334.555 248.798 334.769 248.753 334.958 248.657C335.142 248.561 335.288 248.427 335.395 248.258C335.499 248.088 335.555 247.895 335.562 247.678ZM335.941 246.521L335.009 246.491L334.385 246.43L333.758 246.469L331.563 246.399L331.577 245.98L335.954 246.12L335.941 246.521Z" fill="white"/>
<path d="M343.164 285.155H325.36L310.201 311.977C306.598 318.352 311.204 326.244 318.526 326.244H349.998C357.32 326.244 361.926 318.351 358.323 311.977L343.164 285.155Z" fill="#194D4D"/>
<path d="M325.102 285.155C325.102 285.155 316.575 274.325 322.336 270.868C326.485 268.379 330.395 274.017 332.258 277.367C332.738 278.231 333.991 278.189 334.4 277.289C337.061 271.43 344.596 257.046 351.832 263.725C355.927 267.505 343.075 285.155 343.075 285.155L333.654 295.656L325.102 285.155Z" fill="#194D4D"/>
<path opacity="0.31" d="M358.713 312.751C353.652 316.835 345.151 317.278 334.566 317.569C320.289 317.962 313.624 316.892 309.621 313.184C307.183 319.304 311.66 326.243 318.526 326.243H349.998C357.027 326.244 361.547 318.973 358.713 312.751Z" fill="#B54A47"/>
<path opacity="0.31" d="M325.102 285.155C325.102 285.155 334.31 289.036 343.075 285.155C342.937 285.155 345.905 289.492 345.905 289.492C345.905 289.492 333.578 294.057 323.306 288.807C323.534 288.579 325.102 285.155 325.102 285.155Z" fill="#B54A47"/>
<path d="M74.9364 239.795L68.8344 229.277C67.8754 227.624 65.7384 227.056 64.0864 228.015L1.72842 264.188C0.0754243 265.147 -0.492577 267.284 0.466423 268.936L6.56842 279.454C6.76342 279.79 7.00842 280.078 7.28642 280.32L75.3324 240.847C75.2594 240.487 75.1304 240.131 74.9364 239.795Z" fill="#F97467"/>
<path d="M7.28662 280.322C8.37762 281.273 9.99962 281.481 11.3176 280.717L73.6746 244.544C74.9916 243.78 75.6166 242.268 75.3326 240.849L7.28662 280.322Z" fill="#E5605A"/>
<path d="M25.3453 263.621C25.087 263.771 24.8193 263.848 24.5421 263.851C24.2627 263.851 23.9953 263.775 23.7399 263.624C23.4862 263.466 23.2646 263.224 23.0751 262.898C22.8856 262.571 22.7866 262.26 22.7782 261.966C22.7675 261.667 22.8325 261.399 22.9731 261.16C23.1137 260.921 23.315 260.725 23.5771 260.573C23.8619 260.408 24.1539 260.325 24.4529 260.324C24.7535 260.317 25.0356 260.392 25.2991 260.549C25.5605 260.702 25.7782 260.929 25.9522 261.229C26.1285 261.532 26.2182 261.836 26.2212 262.139C26.2243 262.441 26.1493 262.724 25.9964 262.985C25.8472 263.244 25.6302 263.456 25.3453 263.621ZM24.426 265.594L22.0496 261.498L22.437 261.273L22.9592 262.173L23.2664 262.794L23.6737 263.365L24.8305 265.359L24.426 265.594ZM25.1086 263.279C25.3213 263.156 25.4837 262.998 25.5957 262.806C25.7055 262.61 25.7591 262.397 25.7565 262.165C25.7517 261.929 25.6821 261.695 25.5477 261.463C25.4133 261.232 25.246 261.057 25.0459 260.94C24.8458 260.822 24.6336 260.763 24.4092 260.761C24.1847 260.759 23.9662 260.82 23.7535 260.943C23.5408 261.067 23.3776 261.227 23.264 261.425C23.1542 261.621 23.1005 261.835 23.1032 262.067C23.1096 262.296 23.18 262.527 23.3144 262.759C23.4488 262.991 23.6152 263.168 23.8138 263.292C24.0139 263.409 24.2261 263.469 24.4505 263.47C24.6765 263.466 24.8959 263.402 25.1086 263.279ZM29.5038 261.171L29.1204 260.51L29.0405 260.412L28.3993 259.306C28.2517 259.052 28.0661 258.898 27.8424 258.845C27.6225 258.79 27.3721 258.844 27.091 259.007C26.8973 259.119 26.7318 259.259 26.5946 259.424C26.4573 259.59 26.3587 259.762 26.2989 259.939L25.9414 259.742C26.0184 259.525 26.1435 259.321 26.3165 259.129C26.4873 258.933 26.6905 258.767 26.926 258.631C27.3134 258.406 27.6677 258.33 27.989 258.402C28.3119 258.469 28.5868 258.698 28.8137 259.089L29.8912 260.946L29.5038 261.171ZM28.4891 261.798C28.265 261.928 28.0485 262.005 27.8395 262.03C27.6321 262.049 27.4473 262.019 27.285 261.94C27.1205 261.858 26.9887 261.731 26.8895 261.561C26.7992 261.405 26.7538 261.243 26.7532 261.076C26.7543 260.903 26.8163 260.73 26.9394 260.557C27.064 260.378 27.2688 260.206 27.5536 260.041L28.5848 259.443L28.76 259.744L27.7402 260.336C27.4515 260.504 27.28 260.672 27.2255 260.84C27.1749 261.007 27.1936 261.166 27.2817 261.318C27.3809 261.489 27.5267 261.587 27.7191 261.612C27.9115 261.638 28.1274 261.581 28.3667 261.442C28.5946 261.31 28.7604 261.145 28.8643 260.948C28.9697 260.745 29.0031 260.522 28.9645 260.281L29.2176 260.507C29.2562 260.749 29.2147 260.983 29.0931 261.211C28.9753 261.437 28.774 261.632 28.4891 261.798ZM31.8098 259.871C31.5629 260.015 31.3094 260.116 31.0495 260.175C30.7873 260.231 30.5627 260.242 30.3757 260.208L30.3729 259.783C30.5473 259.804 30.7493 259.794 30.9789 259.752C31.2063 259.706 31.4244 259.623 31.6333 259.502C31.9182 259.336 32.098 259.174 32.1726 259.014C32.2451 258.85 32.2383 258.694 32.1524 258.546C32.0885 258.435 32.0028 258.371 31.8954 258.352C31.7896 258.327 31.6709 258.332 31.5393 258.368C31.4056 258.4 31.2618 258.445 31.108 258.504C30.9543 258.563 30.7983 258.618 30.6402 258.669C30.4858 258.718 30.3351 258.747 30.1881 258.756C30.0389 258.761 29.8985 258.734 29.7668 258.673C29.639 258.61 29.5255 258.493 29.4263 258.322C29.3316 258.159 29.2923 257.986 29.3086 257.804C29.3248 257.622 29.3993 257.445 29.5322 257.271C29.6666 257.091 29.8611 256.928 30.1156 256.78C30.3093 256.668 30.5184 256.582 30.743 256.523C30.9653 256.46 31.1634 256.434 31.3372 256.445L31.349 256.872C31.1632 256.858 30.9833 256.876 30.8093 256.926C30.6332 256.972 30.4691 257.04 30.3172 257.128C30.0475 257.284 29.8757 257.447 29.8016 257.617C29.7291 257.781 29.7348 257.935 29.8185 258.08C29.8846 258.194 29.9706 258.263 30.0764 258.288C30.186 258.311 30.3088 258.308 30.4448 258.28C30.5824 258.246 30.7262 258.2 30.8761 258.144C31.0299 258.085 31.185 258.033 31.3416 257.988C31.4998 257.937 31.6523 257.907 31.7993 257.898C31.9479 257.882 32.0861 257.906 32.214 257.969C32.3435 258.026 32.4556 258.136 32.5503 258.3C32.6517 258.474 32.6904 258.655 32.6666 258.841C32.6443 259.022 32.5611 259.202 32.4168 259.382C32.2742 259.556 32.0718 259.719 31.8098 259.871ZM34.5916 258.257C34.3448 258.401 34.0913 258.502 33.8314 258.561C33.5692 258.617 33.3446 258.628 33.1576 258.594L33.1548 258.17C33.3292 258.19 33.5312 258.18 33.7608 258.138C33.9882 258.092 34.2063 258.009 34.4152 257.888C34.7001 257.722 34.8799 257.56 34.9545 257.4C35.027 257.236 35.0202 257.08 34.9343 256.932C34.8704 256.822 34.7847 256.757 34.6773 256.738C34.5715 256.713 34.4528 256.719 34.3212 256.754C34.1874 256.786 34.0437 256.832 33.8899 256.89C33.7362 256.949 33.5802 257.004 33.4221 257.055C33.2677 257.104 33.117 257.133 32.97 257.142C32.8208 257.148 32.6804 257.12 32.5487 257.059C32.4209 256.996 32.3074 256.879 32.2082 256.709C32.1135 256.545 32.0742 256.373 32.0904 256.191C32.1067 256.008 32.1812 255.831 32.3141 255.657C32.4485 255.478 32.643 255.314 32.8975 255.166C33.0912 255.054 33.3003 254.968 33.5249 254.909C33.7472 254.846 33.9453 254.82 34.1191 254.831L34.1309 255.258C33.9451 255.244 33.7652 255.262 33.5912 255.312C33.4151 255.359 33.251 255.426 33.0991 255.514C32.8294 255.67 32.6576 255.834 32.5835 256.003C32.511 256.167 32.5167 256.321 32.6004 256.466C32.6665 256.58 32.7525 256.649 32.8583 256.674C32.9679 256.697 33.0907 256.694 33.2267 256.666C33.3643 256.632 33.508 256.586 33.658 256.53C33.8118 256.471 33.9669 256.419 34.1235 256.374C34.2816 256.323 34.4342 256.293 34.5812 256.284C34.7298 256.269 34.868 256.292 34.9959 256.355C35.1254 256.412 35.2375 256.522 35.3322 256.686C35.4336 256.86 35.4723 257.041 35.4485 257.227C35.4262 257.408 35.343 257.588 35.1987 257.768C35.0561 257.942 34.8537 258.105 34.5916 258.257ZM37.1077 256.76L34.2444 254.423L34.6318 254.198L37.2669 256.378L37.0903 256.481L36.5347 253.095L36.8823 252.893L39.5345 255.063L39.3579 255.165L38.7909 251.786L39.1612 251.571L39.7626 255.22L39.3809 255.441L36.8644 253.413L36.9841 253.344L37.4894 256.538L37.1077 256.76ZM42.6578 253.578C42.3691 253.746 42.0715 253.832 41.7649 253.837C41.4598 253.837 41.1748 253.761 40.9096 253.61C40.6423 253.455 40.4227 253.23 40.2508 252.934C40.0767 252.634 39.9901 252.331 39.9908 252.026C39.9915 251.721 40.0684 251.438 40.2214 251.177C40.3744 250.915 40.5971 250.7 40.8895 250.53C41.1858 250.358 41.4853 250.271 41.7881 250.268C42.0947 250.262 42.3787 250.336 42.6401 250.489C42.9052 250.64 43.1248 250.866 43.2989 251.166C43.4707 251.462 43.5574 251.764 43.5589 252.073C43.562 252.376 43.4862 252.661 43.3316 252.928C43.1748 253.192 42.9502 253.409 42.6578 253.578ZM42.4495 253.219C42.666 253.094 42.8303 252.935 42.9423 252.743C43.0522 252.547 43.1039 252.335 43.0975 252.105C43.0927 251.869 43.0231 251.635 42.8887 251.404C42.7521 251.168 42.5837 250.992 42.3836 250.874C42.1873 250.755 41.978 250.696 41.7558 250.698C41.5314 250.696 41.3129 250.757 41.1002 250.88C40.8875 251.003 40.7262 251.163 40.6164 251.359C40.5043 251.551 40.4496 251.763 40.4522 251.995C40.4548 252.227 40.5244 252.46 40.661 252.696C40.7954 252.928 40.9638 253.104 41.1661 253.225C41.3662 253.343 41.5785 253.402 41.8029 253.404C42.0251 253.402 42.2406 253.34 42.4495 253.219ZM44.994 252.185L43.2588 249.194L43.6462 248.969L44.1188 249.784L43.9963 249.664C43.9477 249.388 43.988 249.134 44.1172 248.901C44.2442 248.665 44.4539 248.462 44.7464 248.293L44.9744 248.686C44.9592 248.695 44.944 248.703 44.9288 248.712C44.9114 248.717 44.8951 248.724 44.8799 248.733C44.5647 248.916 44.374 249.156 44.3079 249.453C44.2395 249.747 44.3078 250.07 44.5127 250.423L45.3985 251.95L44.994 252.185ZM48.4156 250.238C48.1308 250.403 47.8369 250.487 47.5341 250.49C47.2351 250.491 46.9549 250.415 46.6936 250.262C46.43 250.106 46.2112 249.877 46.0372 249.577C45.8609 249.273 45.7712 248.97 45.7682 248.667C45.7651 248.364 45.8392 248.085 45.9906 247.83C46.1436 247.568 46.3625 247.355 46.6474 247.19C46.9095 247.038 47.1772 246.961 47.4506 246.96C47.7278 246.957 47.9933 247.034 48.2471 247.191C48.5024 247.342 48.7248 247.581 48.9143 247.908C49.1016 248.231 49.2006 248.541 49.2112 248.84C49.2219 249.138 49.158 249.409 49.0196 249.652C48.8828 249.888 48.6815 250.084 48.4156 250.238ZM48.2359 249.863C48.4486 249.739 48.611 249.581 48.723 249.39C48.8366 249.192 48.8902 248.978 48.8838 248.748C48.879 248.512 48.8094 248.278 48.675 248.047C48.5384 247.811 48.37 247.635 48.1699 247.517C47.9736 247.398 47.7625 247.34 47.5365 247.344C47.3121 247.342 47.0935 247.403 46.8808 247.527C46.6719 247.648 46.5125 247.806 46.4027 248.002C46.2907 248.194 46.2359 248.406 46.2385 248.638C46.2411 248.87 46.3108 249.104 46.4474 249.339C46.5818 249.571 46.7501 249.747 46.9524 249.868C47.1526 249.986 47.3648 250.046 47.5892 250.047C47.8114 250.045 48.027 249.984 48.2359 249.863ZM49.5557 249.539L49.0334 248.638L48.723 248.011L48.3157 247.44L47.0862 245.321L47.4907 245.086L49.9431 249.314L49.5557 249.539Z" fill="white"/>
<path d="M51.7573 333.886H124.545" stroke="#50AA9E" stroke-width="0.8961" stroke-miterlimit="10"/>
<path d="M265.158 326.583H404.118" stroke="#50AA9E" stroke-width="0.8961" stroke-miterlimit="10"/>
<path d="M31.3181 321.462C32.3181 320.874 29.0331 313.758 28.5961 312.996L26.0121 306.794C25.5761 306.032 24.2241 306.569 23.2251 307.156L20.5181 308.91L28.5111 323.046L31.3181 321.462Z" fill="#103737"/>
<path d="M27.141 305.691L36.459 299.698L40.156 309.04L29.831 312.806C29.466 313.03 29.114 313.195 28.816 313.271C27.399 313.631 25.794 311.908 25.33 310.083C25.328 310.074 25.326 310.065 25.323 310.056C24.912 308.377 25.687 306.626 27.141 305.691Z" fill="#FCD9D2"/>
<path d="M130.61 182.888L133.769 181.609L136.821 179.403C136.821 179.403 139.273 178.573 139.887 180.373C140.903 183.352 138.843 185.047 138.843 185.047L132.556 188.29L130.059 183.255L130.61 182.888Z" fill="#FCD9D2"/>
<path d="M59.5571 181.122L62.7571 179.787C63.8121 179.347 64.4641 178.279 64.3731 177.14L62.3171 167.996L70.9661 168.442L71.2941 173.949C71.7921 175.389 71.4381 177.318 72.4651 178.444L77.4751 179.678L69.2721 186.277L59.5571 181.122Z" fill="#FFCDC5"/>
<path d="M89.6021 316.26L89.7271 325.868L95.9061 326.97L100.838 314.487L89.6021 316.26Z" fill="#FCD9D2"/>
<path d="M26.9192 322.492L20.0092 310.595C19.6762 310.021 19.8712 309.285 20.4452 308.952L21.3492 308.428L29.4652 322.403L28.5592 322.928C27.9862 323.261 27.2522 323.066 26.9192 322.492Z" fill="#194D4D"/>
<path d="M104.461 329.892C104.589 328.72 96.7919 327.077 95.9059 326.97L89.7269 325.868C88.8409 325.761 88.0109 326.632 87.8829 327.804L87.6699 334.105H104.461V329.892Z" fill="#103737"/>
<path d="M103.212 334.105H88.644C88.024 334.037 87.578 334.724 87.649 334.105H87.781H104.46C104.461 334.775 103.879 334.178 103.212 334.105Z" fill="#194D4D"/>
<path d="M95.7081 327.099C95.1411 328.473 92.2061 328.904 90.4361 328.173C88.6661 327.443 89.2981 324.455 89.8641 323.081C90.4311 321.707 92.9481 321.008 94.7191 321.738C96.4891 322.468 96.2751 325.725 95.7081 327.099Z" fill="#FCD9D2"/>
<path d="M92.3991 228.002L97.1371 242.381C97.8451 244.529 103.299 262.596 106.994 274.861C109.224 282.262 109.086 290.17 106.603 297.489L98.7571 323.892L89.5241 323.439C88.8421 323.53 88.2731 322.923 88.4081 322.249L90.5131 311.678L92.3881 302.263C94.4651 291.835 92.1471 281.012 85.9821 272.349L73.9551 255.45C73.8491 255.061 73.8261 254.69 73.8731 254.343C73.8641 254.349 73.8511 254.352 73.8421 254.357L71.7991 252.42L70.8691 238.895L92.3991 228.002Z" fill="#103737"/>
<path d="M36.8162 299.163C36.9102 299.055 62.6882 284.625 62.6882 284.625C63.7952 284.033 64.3972 282.797 64.1812 281.561L58.0442 246.552C57.7472 246.07 57.4672 245.571 57.2242 245.038L80.3572 237.749L80.3532 252.313C82.0572 300.835 83.0582 294.145 33.8022 311.598L28.1572 304.672L36.8162 299.163Z" fill="#194D4D"/>
<path d="M59.5573 181.122L77.6553 179.856L78.7923 189.719L54.3823 187.239L59.5573 181.122Z" fill="#FFCDC5"/>
<path d="M70.2241 145.08C70.1641 144.185 69.9081 143.343 69.5321 142.562C64.3361 141.506 60.0301 141.895 61.0621 149.138C62.2411 157.415 63.0961 166.881 62.7201 171.646L66.5001 171.524C68.8901 171.447 72.1961 169.971 74.5721 167.989C76.7761 166.15 77.6351 163.152 76.8291 160.397L70.2241 145.08Z" fill="#FCD9D2"/>
<path d="M38.9561 244.771L38.0641 242.631L37.2781 239.794L37.9331 213.697L52.8681 196.462L48.5861 184.315L29.6981 209.353L29.1751 210.067C28.5501 210.919 28.2851 211.982 28.4341 213.027L34.3901 240.331C34.3901 240.331 34.0391 241.509 34.3211 243.494C34.4711 244.552 35.0771 245.969 36.4071 246.451C37.3351 246.786 38.7161 245.97 38.9561 244.771Z" fill="#FCD9D2"/>
<path d="M52.859 166.552C73.034 182.469 59.814 152.734 62.785 147.252C64.918 143.315 70.232 147.866 71.792 145.781C72.613 144.684 72.343 141.737 70.873 140.451C60.692 131.542 44.588 140.267 45.691 151.663C46.647 161.54 52.859 166.552 52.859 166.552Z" fill="#103737"/>
<path d="M36.7051 239.163C37.0421 239.25 37.3701 239.35 37.7051 239.44C38.0651 239.537 38.4031 239.652 38.7231 239.798C39.3411 240.08 39.8781 240.443 40.3661 240.836C40.6001 241.025 40.6521 241.357 40.3301 241.609C40.0451 241.832 39.5451 241.94 39.2881 241.743C39.1051 241.584 38.9061 241.438 38.7051 241.294L38.7021 241.292C38.5901 241.219 38.4741 241.149 38.3511 241.085C38.2971 241.057 38.2431 241.03 38.1881 241.004C38.1541 240.988 38.1571 240.989 38.1951 241.006C38.1631 240.992 38.1301 240.977 38.0971 240.963C37.8491 240.858 37.5801 240.784 37.3251 240.689C37.1591 240.627 36.9961 240.569 36.8911 240.452C36.8041 240.354 36.8021 240.23 36.8791 240.109C36.6721 239.992 36.4641 239.882 36.2311 239.787C35.7801 239.605 36.2021 239.032 36.7051 239.163Z" fill="#FCD9D2"/>
<path d="M77.4771 179.499C77.5041 179.549 77.523 179.601 77.548 179.651L77.5041 179.646L77.4771 179.499Z" fill="#194D4D"/>
<path d="M26.2943 211.957C26.8493 207.515 42.5703 190.503 47.3803 185.408C48.2693 184.467 49.3913 183.798 50.6433 183.47C53.7353 182.659 59.5583 181.122 59.5583 181.122C59.5143 181.372 73.0193 179.589 77.5493 179.651L85.9163 180.603C88.8193 180.933 91.6213 181.863 94.1463 183.334L106.316 190.423C106.799 190.612 107.334 190.619 107.822 190.442L130.236 182.341L132.711 186.031C133.661 187.447 133.206 189.373 131.722 190.214L108.151 203.576C107.21 204.056 106.119 204.148 105.111 203.833L104.266 203.569L90.6753 197.632L104.942 241.384C105.363 243.092 104.394 244.835 102.721 245.379L55.5293 253.262C53.0223 254.077 52.2213 252.579 52.1543 249.945L51.5023 236.929L49.5423 203.587C47.1653 206.175 40.4163 213.552 40.2053 214.1C39.4383 216.093 38.8033 232.065 38.6403 236.501C38.6153 237.188 38.1593 237.778 37.5033 237.983L34.4773 238.929C33.6073 239.201 32.6863 238.709 32.4353 237.832C30.8813 232.403 25.9373 214.81 26.2943 211.957Z" fill="#194D4D"/>
<path d="M60.808 183.369L76.18 181.266C78.245 180.984 79.704 179.063 79.421 176.998C79.138 174.933 77.218 173.475 75.153 173.757L59.781 175.86C57.716 176.143 56.257 178.063 56.54 180.128C56.822 182.193 58.743 183.652 60.808 183.369Z" fill="#194D4D"/>
<path d="M89.4462 321.03C90.9812 321.061 92.5452 321.293 94.0692 321.475C94.8252 321.565 95.5802 321.655 96.3352 321.746C97.2112 321.85 98.1902 321.866 99.0212 322.152C99.7962 322.419 100.47 323.129 100.431 324.003C100.396 324.784 99.8682 325.718 99.0212 325.854C97.3852 326.117 95.6312 325.851 93.9782 325.766C92.2772 325.678 90.5462 325.6 88.8612 325.345C88.3742 325.271 87.7712 324.757 87.5482 324.335C87.3142 323.891 87.2202 323.434 87.2872 322.934C87.4302 321.882 88.3462 321.007 89.4462 321.03Z" fill="#103737"/>
<path d="M29.8944 303.431C30.9144 304.579 31.8074 305.884 32.7094 307.125C33.1564 307.741 33.6034 308.356 34.0504 308.972C34.5684 309.685 35.2224 310.415 35.5774 311.219C35.9084 311.969 35.8444 312.946 35.1764 313.511C34.5794 314.016 33.5354 314.263 32.8604 313.735C31.5564 312.714 30.5584 311.246 29.4984 309.975C28.4074 308.667 27.2884 307.344 26.3304 305.935C26.0534 305.528 26.0214 304.736 26.1794 304.286C26.3454 303.812 26.6184 303.433 27.0304 303.143C27.8994 302.531 29.1634 302.609 29.8944 303.431Z" fill="#194D4D"/>
<path d="M63.2513 154.254C63.2513 154.254 63.1043 154.041 62.8623 153.753C62.1383 152.892 60.5643 151.368 59.5653 152.955C58.2333 155.071 64.1373 157.463 64.1373 157.463L63.2513 154.254Z" fill="#FCD9D2"/>
<path d="M71.5951 150.195C72.1861 150.971 71.4951 149.417 69.9811 149.906C70.0841 149.88 70.1871 149.853 70.2901 149.827C69.2581 150.03 68.4831 150.299 67.9071 150.606C65.8541 151.7 67.3561 154.89 69.5261 154.05C71.3621 153.339 73.1611 151.848 71.5951 150.195Z" fill="#103737"/>
<path d="M73.3414 149.807C73.2144 149.705 73.0184 149.692 72.8714 149.737C72.7804 149.765 72.6934 149.816 72.6064 149.858L72.2604 150.025C72.1464 150.08 72.0244 150.127 71.9144 150.192C71.7764 150.273 71.6584 150.397 71.5414 150.512C71.4194 150.632 71.3984 150.859 71.4574 151.018C71.5164 151.177 71.6684 151.316 71.8284 151.303C71.9844 151.29 72.1464 151.283 72.2964 151.228C72.4144 151.185 72.5304 151.121 72.6454 151.068C72.7614 151.015 72.8784 150.961 72.9944 150.908C73.0814 150.868 73.1784 150.834 73.2564 150.778C73.3824 150.688 73.5114 150.532 73.5384 150.36C73.5754 150.127 73.5094 149.942 73.3414 149.807Z" fill="#103737"/>
<path d="M262.402 130.215L254.658 108.388C253.441 104.958 249.639 103.147 246.209 104.364L116.808 150.278C113.378 151.495 111.568 155.297 112.785 158.727L120.53 180.554C120.777 181.251 121.135 181.876 121.571 182.428L262.776 132.326C262.766 131.623 262.65 130.912 262.402 130.215Z" fill="#F97467"/>
<path d="M121.57 182.428C123.279 184.591 126.245 185.548 128.978 184.578L258.379 138.664C261.112 137.694 262.811 135.082 262.775 132.326L121.57 182.428Z" fill="#E5605A"/>
<path d="M161.446 157.886C160.91 158.076 160.382 158.126 159.862 158.036C159.339 157.937 158.865 157.702 158.44 157.329C158.02 156.946 157.69 156.415 157.449 155.737C157.209 155.06 157.132 154.443 157.219 153.889C157.303 153.326 157.519 152.846 157.866 152.448C158.213 152.05 158.658 151.754 159.202 151.561C159.793 151.352 160.369 151.298 160.929 151.401C161.494 151.493 161.996 151.732 162.434 152.118C162.87 152.496 163.198 152.996 163.419 153.619C163.643 154.249 163.705 154.849 163.605 155.417C163.504 155.985 163.265 156.486 162.888 156.922C162.518 157.355 162.037 157.677 161.446 157.886ZM159.035 161.258L156.019 152.757L156.823 152.472L157.486 154.34L157.843 155.611L158.406 156.822L159.875 160.96L159.035 161.258ZM161.123 157.162C161.564 157.006 161.923 156.768 162.2 156.447C162.474 156.119 162.649 155.738 162.726 155.303C162.799 154.859 162.751 154.397 162.58 153.917C162.409 153.436 162.157 153.051 161.824 152.761C161.49 152.471 161.114 152.285 160.694 152.203C160.275 152.121 159.844 152.159 159.403 152.315C158.961 152.472 158.6 152.716 158.318 153.046C158.044 153.374 157.869 153.756 157.792 154.191C157.724 154.624 157.775 155.08 157.946 155.561C158.116 156.042 158.366 156.433 158.694 156.733C159.028 157.023 159.404 157.209 159.824 157.291C160.248 157.362 160.681 157.319 161.123 157.162ZM170.089 154.753L169.602 153.382L169.487 153.17L168.673 150.876C168.486 150.348 168.192 149.995 167.792 149.818C167.399 149.638 166.912 149.651 166.328 149.858C165.926 150.001 165.568 150.203 165.253 150.466C164.938 150.728 164.693 151.015 164.52 151.325L163.919 150.833C164.139 150.453 164.445 150.114 164.836 149.815C165.224 149.509 165.662 149.269 166.151 149.096C166.955 148.81 167.645 148.792 168.221 149.04C168.802 149.277 169.237 149.802 169.525 150.614L170.893 154.468L170.089 154.753ZM167.97 155.571C167.505 155.736 167.072 155.806 166.672 155.779C166.277 155.742 165.942 155.621 165.666 155.417C165.386 155.206 165.184 154.923 165.058 154.568C164.943 154.245 164.915 153.927 164.972 153.614C165.035 153.29 165.211 152.987 165.502 152.707C165.798 152.415 166.242 152.165 166.833 151.955L168.973 151.196L169.195 151.822L167.079 152.573C166.48 152.786 166.1 153.04 165.939 153.337C165.786 153.631 165.765 153.936 165.877 154.251C166.003 154.605 166.242 154.84 166.593 154.955C166.944 155.07 167.368 155.039 167.865 154.863C168.338 154.695 168.706 154.445 168.969 154.112C169.238 153.768 169.378 153.364 169.39 152.898L169.785 153.41C169.773 153.876 169.613 154.301 169.306 154.685C169.006 155.066 168.561 155.362 167.97 155.571ZM174.86 153.126C174.348 153.308 173.838 153.409 173.331 153.43C172.82 153.442 172.396 153.384 172.058 153.256L172.201 152.459C172.52 152.559 172.902 152.61 173.347 152.612C173.788 152.606 174.226 152.526 174.659 152.372C175.25 152.163 175.644 151.921 175.84 151.648C176.033 151.366 176.075 151.072 175.965 150.764C175.884 150.536 175.747 150.385 175.552 150.312C175.363 150.228 175.139 150.197 174.88 150.218C174.618 150.231 174.333 150.265 174.025 150.322C173.716 150.378 173.405 150.426 173.091 150.466C172.785 150.504 172.493 150.506 172.214 150.471C171.933 150.429 171.68 150.328 171.455 150.169C171.237 150.006 171.066 149.748 170.94 149.393C170.82 149.054 170.807 148.717 170.901 148.382C170.995 148.047 171.196 147.74 171.506 147.462C171.82 147.173 172.242 146.934 172.77 146.747C173.172 146.604 173.593 146.517 174.034 146.485C174.473 146.444 174.853 146.465 175.174 146.546L175.047 147.35C174.704 147.259 174.361 147.23 174.017 147.263C173.671 147.288 173.341 147.356 173.026 147.468C172.466 147.667 172.087 147.912 171.889 148.204C171.696 148.486 171.653 148.776 171.759 149.076C171.843 149.312 171.98 149.472 172.169 149.556C172.366 149.637 172.597 149.674 172.862 149.669C173.131 149.654 173.416 149.619 173.717 149.566C174.025 149.509 174.334 149.466 174.643 149.437C174.957 149.396 175.253 149.393 175.531 149.428C175.815 149.451 176.065 149.544 176.282 149.707C176.505 149.859 176.676 150.104 176.796 150.443C176.925 150.805 176.935 151.157 176.825 151.498C176.72 151.828 176.501 152.136 176.168 152.423C175.84 152.699 175.404 152.933 174.86 153.126ZM180.633 151.078C180.121 151.26 179.611 151.361 179.103 151.381C178.593 151.394 178.169 151.336 177.83 151.207L177.974 150.411C178.293 150.511 178.675 150.562 179.119 150.564C179.561 150.558 179.998 150.478 180.432 150.324C181.023 150.114 181.416 149.873 181.612 149.599C181.805 149.318 181.847 149.023 181.738 148.716C181.657 148.487 181.519 148.337 181.325 148.264C181.135 148.18 180.911 148.149 180.652 148.169C180.391 148.182 180.106 148.217 179.797 148.273C179.489 148.329 179.178 148.378 178.864 148.418C178.558 148.456 178.265 148.457 177.987 148.423C177.706 148.381 177.453 148.28 177.227 148.12C177.01 147.958 176.838 147.699 176.712 147.345C176.592 147.006 176.579 146.669 176.673 146.334C176.767 145.998 176.969 145.692 177.278 145.413C177.593 145.124 178.014 144.886 178.542 144.699C178.944 144.556 179.366 144.469 179.807 144.436C180.245 144.396 180.625 144.417 180.947 144.498L180.819 145.302C180.476 145.21 180.133 145.181 179.79 145.214C179.444 145.239 179.113 145.308 178.798 145.42C178.239 145.618 177.86 145.864 177.662 146.156C177.469 146.437 177.425 146.728 177.532 147.027C177.616 147.264 177.752 147.424 177.942 147.507C178.139 147.588 178.37 147.626 178.634 147.621C178.904 147.605 179.189 147.571 179.489 147.517C179.798 147.461 180.106 147.418 180.415 147.388C180.729 147.348 181.025 147.345 181.304 147.379C181.587 147.403 181.838 147.496 182.055 147.658C182.277 147.81 182.449 148.056 182.569 148.394C182.698 148.757 182.707 149.109 182.597 149.449C182.493 149.779 182.274 150.088 181.941 150.374C181.613 150.651 181.177 150.885 180.633 151.078ZM185.867 149.154L181.324 143.778L182.128 143.493L186.299 148.495L185.932 148.625L186.076 142.092L186.798 141.836L191.004 146.826L190.638 146.956L190.758 140.431L191.527 140.158L191.376 147.199L190.584 147.48L186.582 142.804L186.83 142.716L186.659 148.873L185.867 149.154ZM197.371 145.139C196.772 145.351 196.184 145.409 195.608 145.312C195.038 145.204 194.53 144.962 194.087 144.587C193.64 144.204 193.308 143.705 193.09 143.091C192.869 142.468 192.812 141.871 192.92 141.3C193.029 140.73 193.271 140.226 193.649 139.791C194.027 139.355 194.519 139.029 195.126 138.814C195.741 138.596 196.332 138.537 196.9 138.637C197.476 138.734 197.982 138.972 198.418 139.35C198.861 139.725 199.194 140.224 199.415 140.846C199.633 141.461 199.689 142.058 199.584 142.636C199.484 143.204 199.242 143.712 198.859 144.158C198.474 144.597 197.977 144.924 197.371 145.139ZM197.106 144.394C197.556 144.235 197.919 143.995 198.196 143.675C198.47 143.347 198.641 142.967 198.709 142.534C198.783 142.091 198.734 141.629 198.564 141.148C198.39 140.66 198.137 140.27 197.803 139.981C197.477 139.688 197.106 139.505 196.689 139.431C196.27 139.349 195.84 139.386 195.398 139.543C194.957 139.699 194.599 139.942 194.325 140.27C194.048 140.59 193.872 140.967 193.795 141.403C193.719 141.838 193.768 142.3 193.941 142.789C194.112 143.269 194.365 143.659 194.701 143.956C195.035 144.246 195.412 144.432 195.831 144.514C196.248 144.588 196.673 144.548 197.106 144.394ZM202.232 143.347L200.029 137.141L200.833 136.855L201.433 138.546L201.245 138.28C201.251 137.745 201.415 137.283 201.739 136.894C202.059 136.496 202.523 136.189 203.129 135.974L203.419 136.79C203.387 136.801 203.356 136.812 203.324 136.823C203.29 136.827 203.257 136.834 203.226 136.845C202.571 137.077 202.13 137.46 201.903 137.993C201.672 138.519 201.687 139.148 201.947 139.881L203.071 143.05L202.232 143.347ZM209.319 140.899C208.727 141.109 208.148 141.164 207.58 141.064C207.02 140.961 206.522 140.72 206.086 140.343C205.648 139.957 205.318 139.453 205.097 138.83C204.873 138.2 204.811 137.6 204.911 137.032C205.012 136.464 205.248 135.968 205.621 135.543C205.999 135.107 206.483 134.784 207.074 134.574C207.618 134.381 208.146 134.332 208.658 134.425C209.179 134.515 209.649 134.752 210.069 135.136C210.494 135.508 210.827 136.034 211.067 136.712C211.305 137.381 211.381 137.998 211.297 138.56C211.213 139.122 210.998 139.607 210.654 140.013C210.316 140.408 209.87 140.704 209.319 140.899ZM209.113 140.134C209.555 139.977 209.914 139.739 210.191 139.418C210.473 139.088 210.648 138.706 210.716 138.274C210.79 137.83 210.741 137.369 210.571 136.888C210.397 136.399 210.144 136.01 209.81 135.72C209.484 135.427 209.109 135.245 208.685 135.174C208.265 135.092 207.835 135.13 207.393 135.286C206.96 135.44 206.606 135.681 206.332 136.009C206.055 136.329 205.879 136.707 205.802 137.142C205.726 137.577 205.775 138.039 205.948 138.528C206.119 139.009 206.372 139.398 206.708 139.696C207.042 139.986 207.419 140.171 207.838 140.253C208.255 140.327 208.68 140.287 209.113 140.134ZM211.697 139.989L211.035 138.121L210.673 136.838L210.11 135.627L208.549 131.229L209.389 130.931L212.501 139.703L211.697 139.989Z" fill="white"/>
<path d="M135.309 180.866C135.296 180.772 135.284 180.677 135.261 180.586C135.231 180.463 135.178 180.339 135.135 180.221C135.076 180.06 134.935 179.966 134.806 179.944C134.66 179.919 134.536 179.977 134.428 180.104C134.287 180.267 134.167 180.446 134.07 180.657C134.01 180.786 133.976 180.938 133.933 181.078C133.902 181.179 133.871 181.276 133.852 181.381C133.816 181.574 133.78 181.766 133.745 181.959C133.726 182.063 133.706 182.167 133.687 182.27C133.679 182.315 133.671 182.359 133.664 182.404C133.621 182.699 133.64 182.938 133.755 183.203C133.87 183.468 134.077 183.626 134.304 183.665C134.404 183.694 134.504 183.688 134.604 183.648C134.731 183.602 134.842 183.519 134.936 183.399C135.166 183.164 135.181 182.777 135.224 182.436C135.249 182.239 135.275 182.043 135.299 181.846C135.337 181.523 135.354 181.192 135.309 180.866Z" fill="#FCD9D2"/>
<mask id="mask0_443_3720" style="mask-type:luminance" maskUnits="userSpaceOnUse" x="48" y="180" width="57" height="70">
<path d="M48.5864 184.315L52.1534 249.942L104.448 240.26L85.1664 180.157L48.5864 184.315Z" fill="white"/>
</mask>
<g mask="url(#mask0_443_3720)">
<path d="M102.013 180.148C91.0482 180.765 79.9422 183.293 69.0822 184.939C63.5872 185.772 58.0992 186.648 52.6092 187.512C47.3442 188.34 41.5252 188.59 36.7272 191.012C34.8852 191.942 35.1852 195.286 37.3322 195.638C42.0042 196.405 46.8682 195.261 51.5222 194.569C57.3472 193.703 63.1752 192.853 68.9972 191.964C80.1782 190.256 91.9172 189.317 102.879 186.547C106.38 185.662 105.734 179.938 102.013 180.148Z" fill="#EEF6FF"/>
</g>
<mask id="mask1_443_3720" style="mask-type:luminance" maskUnits="userSpaceOnUse" x="48" y="180" width="57" height="70">
<path d="M48.5864 184.315L52.1534 249.942L104.448 240.26L85.1664 180.157L48.5864 184.315Z" fill="white"/>
</mask>
<g mask="url(#mask1_443_3720)">
<path d="M104.838 193.732C99.9243 193.416 94.5303 195.155 89.6603 195.926C83.4813 196.905 77.3093 197.929 71.1363 198.943C65.2933 199.903 59.4613 200.935 53.6253 201.94C47.8833 202.929 41.7533 203.463 36.5703 206.295C34.0903 207.65 34.3673 212.221 37.4103 212.721C43.3453 213.697 49.3183 212.257 55.1823 211.281C61.3503 210.255 67.5243 209.258 73.6843 208.184C79.8393 207.111 85.9993 206.058 92.1463 204.939C97.3783 203.986 103.261 203.449 107.342 199.773C109.773 197.583 107.704 193.916 104.838 193.732Z" fill="#EEF6FF"/>
</g>
<mask id="mask2_443_3720" style="mask-type:luminance" maskUnits="userSpaceOnUse" x="48" y="180" width="57" height="70">
<path d="M48.5864 184.315L52.1534 249.942L104.448 240.26L85.1664 180.157L48.5864 184.315Z" fill="white"/>
</mask>
<g mask="url(#mask2_443_3720)">
<path d="M107.395 213.458C102.341 211.806 96.2852 213.377 91.1112 214.108C84.9762 214.975 78.8562 215.95 72.7552 217.036C66.9772 218.065 61.2092 219.175 55.4732 220.416C50.0852 221.581 43.7852 222.301 39.4032 225.8C37.8992 227.001 38.7462 229.784 40.5512 230.148C45.4962 231.146 50.7482 229.295 55.6162 228.285C61.6852 227.026 67.7482 225.765 73.8482 224.667C79.6252 223.627 85.4202 222.686 91.2302 221.843C96.6242 221.06 103.285 221.122 108.022 218.255C110.012 217.052 109.526 214.154 107.395 213.458Z" fill="#EEF6FF"/>
</g>
<mask id="mask3_443_3720" style="mask-type:luminance" maskUnits="userSpaceOnUse" x="48" y="180" width="57" height="70">
<path d="M48.5864 184.315L52.1534 249.942L104.448 240.26L85.1664 180.157L48.5864 184.315Z" fill="white"/>
</mask>
<g mask="url(#mask3_443_3720)">
<path d="M116.298 226.724C109.734 226.925 103.369 229.042 96.8306 229.611C91.2176 230.099 85.6886 230.195 80.1186 231.181C74.0946 232.248 68.0796 233.436 62.0876 234.672C56.1286 235.901 48.5556 236.348 43.4186 239.787C41.9186 240.791 41.9466 243.463 43.9566 243.899C49.4816 245.099 55.6286 243.193 61.1006 242.246C67.5416 241.133 73.9526 239.868 80.3836 238.696C92.5606 236.476 105.336 237.527 117.207 233.446C120.7 232.245 120.346 226.601 116.298 226.724Z" fill="#EEF6FF"/>
</g>
</svg>