<svg width="97" height="79" viewBox="0 0 97 79" fill="none" xmlns="http://www.w3.org/2000/svg">
<path d="M93.4665 70.5631C93.046 70.9909 92.5958 71.3765 92.1164 71.722C91.6978 72.0255 91.2583 72.2973 90.802 72.5395C90.5075 72.6997 90.2048 72.845 89.8957 72.9778C89.4645 73.1674 89.0229 73.3319 88.5707 73.4751C86.5224 74.1263 84.2931 74.3369 82.1439 74.2232C78.062 74.0041 74.1123 72.7693 70.1123 71.9244C61.9693 70.2029 53.492 70.0954 45.3089 71.6083C42.9822 72.0376 40.6805 72.5968 38.3837 73.1773C49.1424 73.4949 56.799 74.3109 56.799 75.2675C56.799 76.5003 44.0843 77.4997 28.3997 77.4997C12.7151 77.4997 0.000366211 76.5003 0.000366211 75.2675C0.000366211 74.6154 3.55936 74.0284 9.2334 73.6204C8.08581 73.0111 7.00025 72.2841 5.99881 71.423C0.827443 66.975 -0.95818 58.2771 3.60337 53.1992C6.78949 49.6509 12.2658 48.4373 14.6339 44.2947C17.0357 40.0932 15.2081 34.8234 15.5908 29.9983C16.2069 22.2506 23.0419 16.7344 30.1439 14.9856C38.3983 12.9543 44.4278 9.23749 51.6728 4.81272C57.921 0.998942 65.862 -1.84981 72.3941 1.45197C78.005 4.28807 80.7306 10.8094 81.8262 17.0105C82.922 23.2117 82.8715 29.674 85.0459 35.5821C85.3571 36.427 85.7105 37.251 86.0953 38.0601C86.8945 39.7416 87.8345 41.3556 88.8188 42.9506C89.3804 43.8629 89.9586 44.769 90.5348 45.675C90.6841 45.9132 90.8357 46.1534 90.987 46.3915C91.1742 46.6886 91.3591 46.9878 91.5463 47.2849C92.5873 48.9664 93.5863 50.6689 94.4338 52.4492C94.4949 52.5757 94.5538 52.7041 94.6126 52.8326C94.7263 53.0812 94.8334 53.332 94.9408 53.5848C95.2457 54.3244 95.519 55.0851 95.7526 55.8604C97.3108 61.0265 97.1384 66.821 93.4665 70.5631ZM73.6863 76.3896C64.2271 76.3896 56.5591 77.1978 56.5591 78.1948C56.5591 79.1918 64.2273 80 73.6863 80C83.1455 80 90.8136 79.1918 90.8136 78.1948C90.8136 77.1978 83.1454 76.3896 73.6863 76.3896Z" fill="url(#paint0_linear_189_183)"/>
<path d="M40.9083 19.3225C37.9955 16.4042 33.2561 16.4042 30.3433 19.3225C30.1767 19.4894 30.1767 19.7601 30.3433 19.927C30.5099 20.0939 30.7801 20.0939 30.9466 19.927C33.5266 17.3421 37.7246 17.3421 40.3048 19.927C40.4714 20.0939 40.7416 20.0939 40.9083 19.927C41.0751 19.7601 41.0751 19.4894 40.9083 19.3225Z" fill="white"/>
<path d="M31.6851 20.6669C31.5185 20.8338 31.5185 21.1045 31.6851 21.2716C31.8517 21.4384 32.1219 21.4384 32.2884 21.2716C34.1286 19.4278 37.1229 19.4278 38.9632 21.2716C39.1297 21.4384 39.3999 21.4384 39.5667 21.2716C39.7334 21.1047 39.7332 20.834 39.5667 20.6669C37.3937 18.4898 33.8581 18.4898 31.6851 20.6669Z" fill="white"/>
<path d="M33.0349 22.0191C32.8682 22.186 32.8683 22.4567 33.0349 22.6238C33.2015 22.7907 33.4717 22.7907 33.6382 22.6238C34.7342 21.5257 36.5174 21.5257 37.6134 22.6238C37.7799 22.7907 38.0501 22.7907 38.2169 22.6238C38.3834 22.4569 38.3834 22.1862 38.2169 22.0191C36.7883 20.5879 34.4636 20.5879 33.0349 22.0191Z" fill="white"/>
<path d="M34.9668 22.9819C34.5059 23.4439 34.5059 24.1927 34.9668 24.6545C35.4278 25.1165 36.1752 25.1165 36.6361 24.6545C37.0972 24.1926 37.0972 23.4437 36.6361 22.9819C36.1752 22.5202 35.4277 22.5202 34.9668 22.9819Z" fill="white"/>
<path d="M64.02 34.3674C62.1685 34.3674 60.6677 35.8713 60.6677 37.7261C60.6677 39.581 62.1685 41.0849 64.02 41.0849C65.8714 41.0849 67.3724 39.581 67.3724 37.7261C67.3724 35.8713 65.8714 34.3674 64.02 34.3674ZM64.02 40.1025C62.71 40.1025 61.648 39.0385 61.648 37.7261C61.648 36.4138 62.71 35.3498 64.02 35.3498C65.3301 35.3498 66.3919 36.4138 66.3919 37.7261C66.3919 39.0385 65.3299 40.1025 64.02 40.1025Z" fill="#50AA9E"/>
<path d="M71.039 38.857V36.5954H69.9642C69.9081 36.2978 69.8305 36.0081 69.7326 35.7275L70.663 35.1893L69.5343 33.2308L68.6025 33.7698C68.4072 33.5428 68.1955 33.3307 67.9691 33.1352L68.5071 32.2016L66.5521 31.0708L66.0151 32.0029C65.735 31.905 65.4459 31.8271 65.1488 31.7711V30.6942H62.8915V31.7711C62.5946 31.8272 62.3053 31.905 62.0255 32.0031L61.4882 31.071L59.5334 32.2018L60.0714 33.1353C59.8449 33.3311 59.6333 33.5432 59.438 33.7699L58.5062 33.231L57.3776 35.1895L58.3079 35.7277C58.2102 36.0083 58.1324 36.298 58.0765 36.5956H57.0017V38.8572H58.0765C58.1326 39.1549 58.2102 39.4446 58.3079 39.7251L57.3776 40.2634L58.5062 42.2219L59.438 41.6829C59.6333 41.9097 59.845 42.1218 60.0714 42.3175L59.5334 43.2511L61.4882 44.3819L62.0255 43.4498C62.3053 43.5477 62.5946 43.6256 62.8915 43.6818V44.7586H65.1488V43.6818C65.4457 43.6256 65.735 43.5479 66.0151 43.45L66.5521 44.3821L68.5071 43.2513L67.9691 42.3177C68.1955 42.122 68.4073 41.9099 68.6025 41.6831L69.5343 42.2221L70.663 40.2636L69.7326 39.7253C69.8305 39.4448 69.9081 39.1551 69.9642 38.8574H71.039V38.857ZM64.0203 42.2171C61.5449 42.2171 59.5381 40.2064 59.5381 37.7262C59.5381 35.246 61.5449 33.2354 64.0203 33.2354C66.4958 33.2354 68.5026 35.246 68.5026 37.7262C68.5026 40.2064 66.4956 42.2171 64.0203 42.2171Z" fill="#50AA9E"/>
<path d="M95.0497 67.2867C94.8709 67.4785 94.686 67.6681 94.5008 67.8599C93.5965 68.7954 92.6691 69.7583 92.3052 71.0035C92.238 71.2354 92.1769 71.4776 92.116 71.7221C91.6974 72.0255 91.2579 72.2973 90.8016 72.5396C90.5071 72.6997 90.2044 72.845 89.8953 72.9779C89.4641 73.1675 89.0225 73.3319 88.5703 73.4752C88.1098 72.2363 87.91 70.5379 87.6892 69.9353C87.0941 68.317 85.6199 67.0845 85.3506 65.3756C85.031 63.3233 86.5745 61.2416 85.9647 59.261C85.4284 57.5268 83.3906 56.4839 83.2497 54.674C83.1234 53.0558 84.5746 51.8358 85.1866 50.3462C86.3077 47.6176 84.4675 44.518 84.6567 41.5471C84.7388 40.2596 85.2771 39.027 86.0951 38.06C87.0835 36.8927 88.482 36.1109 89.9879 36.0793C92.7408 36.0246 95.3402 38.6983 95.1151 41.5407C94.9552 43.5677 93.5735 45.4935 94.0741 47.4615C94.5432 49.3179 96.56 50.5251 96.7512 52.4299C96.8732 53.6394 96.217 54.7244 95.7522 55.8602C95.5882 56.2669 95.4473 56.68 95.3758 57.1077C94.7723 60.7254 98.0929 64.0229 95.0497 67.2867Z" fill="#0CC3BE"/>
<path d="M95.0161 53.5002C94.9909 53.5275 94.9656 53.5549 94.9404 53.5845C93.6071 55.0552 92.5007 56.6797 91.6217 58.4602C91.6659 61.1235 91.5964 63.791 91.4156 66.4523C92.118 65.3923 92.8794 64.3747 93.7079 63.4054C94.0591 62.9923 94.7153 63.5233 94.3619 63.9363C93.2095 65.2848 92.1769 66.7218 91.2746 68.2495C91.1483 69.6822 90.9927 71.1129 90.8015 72.5395C90.507 72.6997 90.2043 72.845 89.8951 72.9779C90.3998 69.1684 90.6459 65.2407 90.6901 64.2967C90.6249 64.2567 90.5681 64.1998 90.5281 64.1175C89.8067 62.6848 88.7763 61.4816 87.4893 60.5313C87.0538 60.2089 87.584 59.5536 88.0192 59.876C89.1191 60.6894 90.0277 61.6798 90.7489 62.8197C90.7888 61.4586 90.7174 56.2077 90.6648 55.1731C89.3 53.6624 87.7858 52.3201 86.1307 51.1361C85.6892 50.818 86.2191 50.1647 86.6587 50.4808C88.074 51.4922 89.38 52.6278 90.5892 53.8712C90.3851 50.7127 90.0234 47.5647 89.4998 44.4358C88.6227 43.8352 87.7459 43.2349 86.8689 42.6322C86.421 42.3268 86.953 41.6715 87.3988 41.979L88.8185 42.9504L89.2979 43.2791C89.1759 42.6153 89.0539 41.9537 88.9195 41.2921C88.8101 40.7591 89.6429 40.6242 89.7503 41.1552C89.8869 41.8231 90.2782 44.1115 90.5346 45.6749C90.6356 46.2901 90.7133 46.7938 90.7471 47.0403C90.8228 46.8231 90.9006 46.6062 90.9868 46.3913C91.4432 45.1988 92.0109 44.0546 92.6902 42.9506C92.9741 42.4892 93.626 43.0242 93.3442 43.4816C92.6038 44.6825 92.0046 45.9532 91.5461 47.2847C91.3925 47.7294 91.2559 48.1802 91.1339 48.6375C91.1066 48.7407 91.0518 48.8187 90.9825 48.8713C91.2915 51.4926 91.4893 54.1242 91.5797 56.7601C92.3684 55.4031 93.2936 54.1369 94.3621 52.9716C94.4357 52.8894 94.5241 52.8451 94.6124 52.8327C94.9532 52.7817 95.3064 53.1821 95.0161 53.5002Z" fill="#0797A7"/>
<path d="M34.7593 14.3361C33.9528 15.2759 32.7081 15.9114 31.4881 16.0204C31.2981 16.1328 31.0807 16.261 30.8365 16.4055C32.0274 16.6063 33.1411 17.1782 34.054 17.9587C32.8078 17.9479 31.5098 17.3974 30.6391 16.5226C30.2371 16.7613 29.7764 17.037 29.2644 17.3497C29.029 17.4943 28.7824 17.6457 28.5254 17.8037C28.4043 17.8796 28.2814 17.9581 28.157 18.0381C29.8676 18.4681 31.3837 19.4928 32.5414 20.8121C30.7808 20.5884 29.0631 19.5408 28.0678 18.095C27.9586 18.1652 27.8491 18.2359 27.7362 18.3075C27.1867 18.6511 26.6213 19.0377 26.0189 19.4368C25.7504 19.6202 25.4769 19.8096 25.2002 20.0029C27.2829 20.3429 29.1967 21.3968 30.7297 22.8437C28.5672 22.8199 26.3641 21.7951 24.9513 20.1776C24.3075 20.6312 23.6465 21.1101 22.9795 21.6106C22.9752 21.6217 22.9719 21.6333 22.9676 21.6444C22.9648 21.6381 22.9624 21.6316 22.9596 21.6253C22.7306 21.7972 22.5013 21.9708 22.2714 22.1477C22.2488 22.1652 22.227 22.1827 22.2046 22.2002C24.5822 22.4761 26.9004 23.7914 28.3009 25.6915C25.8839 25.3278 23.6816 24.1031 21.9309 22.4149C20.7911 23.312 19.7523 24.1858 18.8313 24.9957C18.7566 25.0636 18.6829 25.1299 18.609 25.1966C21.5398 25.0307 24.621 26.1885 26.6595 28.2487C23.6797 28.2363 20.8104 27.1219 18.4231 25.3646C18.0753 25.6779 17.7405 25.9795 17.4406 26.2701C17.2293 26.4711 17.0197 26.6646 16.8262 26.8517C16.6364 27.0394 16.4542 27.2195 16.2804 27.3916C16.2756 27.3965 16.2711 27.4009 16.2661 27.4058C19.055 27.59 21.8336 29.0247 23.5403 31.1924C20.7294 30.8607 18.1377 29.5133 16.06 27.6119C14.8155 28.8605 14.1256 29.6367 14.0298 29.6383C13.9669 29.6409 14.3657 29.0554 15.2307 28.0647C13.7828 26.2489 13.0388 23.9613 12.9199 21.6498C14.5483 23.2469 15.4793 25.635 15.3781 27.8971C15.5174 27.7399 15.6676 27.5734 15.8284 27.3985C15.8234 27.3939 15.8182 27.3894 15.8132 27.3846C15.8221 27.3847 15.831 27.3857 15.8399 27.3859C15.849 27.376 15.8572 27.3669 15.8663 27.3568C16.0318 27.1803 16.205 26.9952 16.3857 26.8024C16.5714 26.61 16.7745 26.411 16.9807 26.2041C17.0531 26.13 17.1301 26.0543 17.2068 25.9788C15.7562 23.4327 15.2561 20.4396 15.531 17.5308C17.249 19.794 17.9925 22.8841 17.5246 25.6709C17.7894 25.4186 18.0681 25.1592 18.3542 24.8906C18.7303 24.5492 19.1286 24.1965 19.5479 23.8359C18.565 21.0381 18.6244 17.9683 19.4463 15.1311C20.7222 17.6976 20.8693 20.9051 19.8621 23.5682C20.4813 23.043 21.1424 22.5034 21.8445 21.9581C22.1626 21.7133 22.4809 21.4735 22.7982 21.2387C21.9119 18.9899 21.836 16.4885 22.3736 14.1376C23.5247 16.1547 23.8194 18.722 23.1938 20.9488C23.9441 20.4024 24.6852 19.8869 25.4007 19.4072C25.0447 17.2913 25.6124 14.964 26.9124 13.2978C27.1578 15.2995 26.7236 17.3192 25.8382 19.1175C26.4185 18.7434 26.9689 18.384 27.5035 18.0653C27.7874 17.8932 28.0597 17.7246 28.3254 17.5678C28.4379 17.503 28.5473 17.4401 28.6559 17.3776C28.2028 16.0645 28.4578 14.5735 29.3402 13.4692C29.693 14.7341 29.4993 16.0411 28.928 17.2212C28.9837 17.1892 29.0409 17.1562 29.0955 17.1248C29.6109 16.8321 30.0767 16.5774 30.4857 16.3601C30.4841 16.3585 30.4824 16.3568 30.4809 16.3549C30.4848 16.3553 30.4887 16.3561 30.4928 16.3564C30.557 16.3222 30.6206 16.2887 30.682 16.2565C30.7251 15.0102 31.2827 13.7283 32.1612 12.8876C32.0799 14.0414 31.6441 15.1475 30.9934 16.0947C31.132 16.0234 31.2586 15.9596 31.3776 15.9002C32.318 15.0571 33.5227 14.5397 34.7593 14.3361Z" fill="#0CC3BE"/>
<path d="M59.3607 52.0667C59.6526 53.271 60.4728 54.404 61.5101 55.057C61.6282 55.2434 61.764 55.4568 61.9158 55.6968C60.764 55.3331 59.5126 55.3353 58.3453 55.6146C59.4601 56.1727 60.8659 56.2734 62.0386 55.8911C62.2883 56.2868 62.5736 56.742 62.8878 57.254C63.0319 57.4901 63.1828 57.7374 63.3401 57.9951C63.4136 58.1179 63.4872 58.2438 63.5618 58.3716C61.8431 57.9753 60.0277 58.1977 58.3981 58.8453C60.0676 59.4481 62.0729 59.2974 63.6153 58.463C63.6807 58.5752 63.7464 58.6881 63.8142 58.8033C64.1477 59.3597 64.476 59.9616 64.8312 60.5914C64.9872 60.8771 65.1449 61.1703 65.3036 61.4686C63.2942 60.8228 61.1114 60.8896 59.0894 61.4801C61.0264 62.444 63.4536 62.5348 65.4459 61.7376C65.8135 62.4349 66.1849 63.1623 66.552 63.9121C66.5507 63.924 66.5485 63.9359 66.5472 63.9477C66.5526 63.9434 66.5576 63.9385 66.563 63.9343C66.6889 64.1917 66.8144 64.4507 66.9388 64.7131C66.9509 64.7389 66.9626 64.7644 66.9747 64.7903C64.7317 63.953 62.0702 64.0686 59.9607 65.1231C62.2785 65.9 64.7958 65.8122 67.1212 65.1062C67.7293 66.4243 68.258 67.676 68.7109 68.8167C68.7466 68.9112 68.7822 69.0039 68.8177 69.0969C66.2826 67.6141 63.0129 67.2418 60.2622 68.1484C62.9219 69.4947 65.9833 69.8089 68.907 69.3311C69.0747 69.7685 69.2359 70.1897 69.3712 70.5851C69.4682 70.8602 69.5673 71.1281 69.6546 71.383C69.7385 71.6366 69.8189 71.8802 69.8958 72.1125C69.8979 72.119 69.8999 72.1252 69.9019 72.1317C67.3344 71.0253 64.2086 71.0379 61.7049 72.191C64.359 73.176 67.2787 73.1562 69.9922 72.4093C70.534 74.0883 70.7964 75.0937 70.8809 75.139C70.9357 75.1698 70.8462 74.4668 70.5253 73.1903C72.6387 72.2323 74.3394 70.5337 75.4943 68.5293C73.3194 69.21 71.4064 70.9129 70.47 72.9739C70.4172 72.7704 70.3591 72.5538 70.2951 72.3246C70.3016 72.3228 70.3084 72.3211 70.3149 72.319C70.3069 72.3151 70.2986 72.3118 70.2904 72.3079C70.2869 72.295 70.2837 72.2829 70.28 72.2701C70.2128 72.0374 70.1424 71.7936 70.0691 71.5397C69.9909 71.2837 69.9003 71.0139 69.8106 70.7358C69.7798 70.6368 69.7454 70.5343 69.7114 70.4321C72.1587 68.8251 73.9623 66.3871 75.0375 63.671C72.4801 64.9043 70.4159 67.3179 69.5683 70.0132C69.447 69.6679 69.3163 69.3099 69.1833 68.9402C69.0034 68.4649 68.8086 67.9692 68.5988 67.4571C70.7437 65.4128 72.0836 62.6515 72.6391 59.7502C70.3379 61.4552 68.7518 64.245 68.4404 67.0757C68.1271 66.3259 67.783 65.5441 67.4053 64.7387C67.2332 64.3757 67.0584 64.0172 66.8822 63.6636C68.692 62.0643 69.8947 59.871 70.4826 57.5322C68.5419 58.8046 67.1145 60.9569 66.6614 63.2252C66.241 62.3968 65.8148 61.6001 65.3952 60.847C66.6724 59.1246 67.2228 56.793 66.8209 54.7169C65.6941 56.388 65.1644 58.3848 65.1371 60.3899C64.79 59.7925 64.4628 59.2215 64.1314 58.694C63.9564 58.4113 63.7906 58.1374 63.6251 57.8766C63.5542 57.7677 63.4853 57.6617 63.417 57.5567C64.4164 56.5936 64.866 55.1495 64.5809 53.7638C63.6927 54.7298 63.2721 55.9822 63.2456 57.2935C63.2105 57.2395 63.1745 57.1843 63.1401 57.1314C62.8139 56.636 62.5147 56.1969 62.2488 55.8172C62.251 55.8163 62.2532 55.8157 62.2555 55.8148C62.2518 55.8133 62.248 55.8122 62.2443 55.8107C62.2026 55.751 62.1613 55.6922 62.1212 55.6356C62.6484 54.5059 62.7333 53.1102 62.3324 51.9612C61.8811 53.0259 61.7677 54.2096 61.9173 55.3497C61.8263 55.2232 61.7424 55.1085 61.6633 55.0016C61.208 53.8209 60.3698 52.8112 59.3607 52.0667Z" fill="#0CC3BE"/>
<path d="M12.1689 73.1415C12.6829 73.5177 13.3319 73.6539 13.9601 73.7545C17.1049 74.2598 20.3549 74.1041 23.4365 73.2959C23.6029 73.2533 23.7685 73.2079 23.9331 73.1597L23.9745 72.9925L23.9836 72.9653L24.1667 72.2485L25.5672 66.7757C26.3389 63.6151 26.2093 60.236 25.1976 57.1467C24.7523 55.7959 24.0929 54.4345 22.9205 53.6359C21.7499 52.8339 19.9587 52.8084 19.0547 53.9039C18.5095 54.5621 18.3834 55.462 18.3289 56.3143C18.1562 59.0369 18.511 61.7908 19.3706 64.3789C18.3946 62.326 16.6853 60.6319 14.6256 59.6763C13.2392 59.0326 11.3522 58.8337 10.3927 60.0257C9.88112 60.6577 9.77936 61.5496 9.96635 62.3407C10.1533 63.1318 10.5953 63.839 11.0818 64.4892C12.6314 66.5491 14.7266 68.1917 17.0951 69.1994C15.5618 69.2455 14.0397 69.6375 12.6734 70.3398C12.1716 70.5981 11.6534 70.9432 11.4874 71.4827C11.3028 72.0946 11.653 72.7689 12.1689 73.1415Z" fill="#0CC3BE"/>
<path d="M12.369 63.5721C13.1108 63.5422 13.8525 63.5121 14.5943 63.4821C15.7399 64.6388 16.8852 65.7954 18.028 66.9528L16.2176 67.1443C15.8516 67.1833 15.8797 67.7554 16.2457 67.7164C17.0094 67.6339 17.7767 67.5534 18.544 67.4728C20.0895 69.0341 21.6315 70.5936 23.177 72.1549C22.6597 72.108 22.1422 72.0613 21.6258 72.0172C21.6169 72.0081 21.6133 71.9973 21.607 71.9873C21.0343 71.4135 20.4643 70.8388 19.8942 70.2641C19.637 70.0021 19.2574 70.4312 19.5172 70.6922C19.9298 71.1078 20.3398 71.5242 20.7526 71.9398C19.4831 71.8271 18.2135 71.7143 16.9448 71.6042C16.6657 71.2291 16.3846 70.8576 16.1055 70.4825C15.8838 70.191 15.4062 70.5045 15.6288 70.7988C15.8119 71.0459 15.9969 71.2892 16.1799 71.5363C15.9471 71.5136 15.7122 71.4942 15.4801 71.4741C15.118 71.4425 14.9943 72.0012 15.3592 72.0319L18.4248 72.3043C18.16 72.5329 17.8952 72.7616 17.6321 72.9867C17.4874 72.9951 17.3452 73.0931 17.3452 73.2768C17.3441 73.3102 17.3457 73.3428 17.3446 73.3763C17.3472 73.5772 17.622 73.746 17.788 73.601C18.2642 73.1914 18.7377 72.7828 19.2112 72.374L23.3694 72.7421L23.4365 73.2954C23.6028 73.2528 23.7685 73.2074 23.933 73.1592L23.9744 72.9919C23.9735 72.9802 23.9718 72.9657 23.9711 72.954L23.9837 72.9649L24.1668 72.2481C24.1497 72.2418 24.1308 72.2388 24.1118 72.236C24.0929 72.2332 24.0749 72.233 24.0559 72.2304C23.992 72.164 23.9256 72.0985 23.8582 72.0304L23.3338 67.6754C23.3718 67.6538 23.4099 67.6233 23.44 67.5774C23.8039 67.0271 24.167 66.4739 24.5309 65.9236C24.7339 65.6159 24.2229 65.3591 24.0218 65.6633C23.7588 66.063 23.4987 66.4618 23.2348 66.8589C23.0433 65.283 22.8547 63.7065 22.6634 62.1308C22.6653 62.1273 22.6697 62.1227 22.6716 62.1191C23.2597 61.3535 23.8441 60.5859 24.4286 59.8185C24.6522 59.528 24.2268 59.1468 24.0013 59.4408L22.5661 61.3193C22.4044 59.9718 22.2391 58.6224 22.0764 57.2722C22.0321 56.9072 21.4611 56.9353 21.5054 57.3003L21.6194 58.2449C21.0958 58.0043 20.572 57.7639 20.0511 57.5224C19.7157 57.3706 19.4559 57.8808 19.792 58.0354C20.4284 58.3262 21.0648 58.617 21.6995 58.9115L22.2803 63.7238C21.7247 63.3401 21.1665 62.9574 20.6082 62.5746C20.3092 62.3686 19.9259 62.7958 20.2286 63.0036L22.2681 64.4025C22.2996 64.4252 22.3347 64.4408 22.37 64.4473C22.6482 66.7565 22.9256 69.0632 23.2066 71.3714C22.5106 70.6695 21.8183 69.9692 21.1225 69.2672C21.13 69.2438 21.1372 69.2202 21.1355 69.1876C21.0939 68.2343 21.0549 67.2803 21.0133 66.327C20.997 65.9558 20.4269 65.9867 20.4423 66.355L20.5426 68.6806C19.2894 67.415 18.0359 66.1491 16.7827 64.8834C16.7873 64.8607 16.7929 64.841 16.7866 64.8129C16.6895 64.1219 16.5916 63.4281 16.4938 62.7344C16.4412 62.3721 15.8702 62.4002 15.9228 62.7625C15.9918 63.2488 16.0609 63.7351 16.13 64.2215C15.497 63.5831 14.8641 62.9448 14.233 62.3027C13.9732 62.0417 13.5944 62.4735 13.8534 62.7318C13.9173 62.7982 13.9838 62.8637 14.0476 62.9299C13.4811 62.9535 12.9119 62.9779 12.3426 63.0025C11.9731 63.0155 12.002 63.5904 12.369 63.5721Z" fill="#0797A7"/>
<path d="M44.3979 73.1415C43.8839 73.5177 43.2349 73.6539 42.6067 73.7545C39.4618 74.2598 36.2118 74.1041 33.1302 73.2959C32.9638 73.2533 32.7982 73.2079 32.6336 73.1597L32.5922 72.9925L32.5831 72.9653L32.4 72.2485L30.9995 66.7757C30.2278 63.6151 30.3574 60.236 31.3691 57.1467C31.8144 55.7959 32.4738 54.4345 33.6462 53.6359C34.8168 52.8339 36.608 52.8084 37.512 53.9039C38.0572 54.5621 38.1833 55.462 38.2379 56.3143C38.4105 59.0369 38.0557 61.7908 37.1961 64.3789C38.1721 62.326 39.8814 60.6319 41.9411 59.6763C43.3275 59.0326 45.2145 58.8337 46.174 60.0257C46.6856 60.6577 46.7873 61.5496 46.6004 62.3407C46.4134 63.1318 45.9714 63.839 45.4849 64.4892C43.9353 66.5491 41.8401 68.1917 39.4716 69.1994C41.0049 69.2455 42.527 69.6375 43.8933 70.3398C44.3951 70.5981 44.9133 70.9432 45.0793 71.4827C45.2637 72.0946 44.9137 72.7689 44.3979 73.1415Z" fill="#0CC3BE"/>
<path d="M44.1977 63.5721C43.4559 63.5422 42.7142 63.5121 41.9724 63.4821C40.8269 64.6388 39.6815 65.7954 38.5388 66.9528L40.3491 67.1443C40.7151 67.1833 40.687 67.7554 40.321 67.7164C39.5573 67.6339 38.79 67.5534 38.0227 67.4728C36.4772 69.0341 34.9352 70.5936 33.3897 72.1549C33.907 72.108 34.4245 72.0613 34.941 72.0172C34.9499 72.0081 34.9536 71.9973 34.9597 71.9873C35.5324 71.4135 36.1025 70.8388 36.6725 70.2641C36.9297 70.0021 37.3093 70.4312 37.0495 70.6922C36.6369 71.1078 36.2269 71.5242 35.8141 71.9398C37.0837 71.8271 38.3532 71.7143 39.6219 71.6042C39.901 71.2291 40.1821 70.8576 40.4612 70.4825C40.683 70.191 41.1606 70.5045 40.9379 70.7988C40.7548 71.0459 40.5699 71.2892 40.3868 71.5363C40.6198 71.5136 40.8545 71.4942 41.0866 71.4741C41.4488 71.4425 41.5724 72.0012 41.2075 72.0319L38.1419 72.3043C38.4067 72.5329 38.6717 72.7616 38.9347 72.9867C39.0793 72.9951 39.2215 73.0931 39.2215 73.2768C39.2227 73.3102 39.221 73.3428 39.2221 73.3763C39.2195 73.5772 38.9447 73.746 38.7787 73.601C38.3026 73.1914 37.829 72.7828 37.3555 72.374L33.1973 72.7421L33.1303 73.2954C32.9639 73.2528 32.7982 73.2074 32.6337 73.1592L32.5923 72.9919C32.5932 72.9802 32.5949 72.9657 32.5957 72.954L32.583 72.9649L32.3999 72.2481C32.417 72.2418 32.436 72.2388 32.4549 72.236C32.4738 72.2332 32.4918 72.233 32.511 72.2304C32.5749 72.164 32.6413 72.0985 32.7087 72.0304L33.2331 67.6754C33.1951 67.6538 33.157 67.6233 33.1269 67.5774C32.763 67.0271 32.3999 66.4739 32.036 65.9236C31.8332 65.6159 32.344 65.3591 32.5451 65.6633C32.8081 66.063 33.0682 66.4618 33.3321 66.8589C33.5234 65.283 33.7122 63.7065 33.9035 62.1308C33.9016 62.1273 33.8972 62.1227 33.8953 62.1191C33.3072 61.3535 32.7229 60.5859 32.1383 59.8185C31.9147 59.528 32.3401 59.1468 32.5656 59.4408L34.0008 61.3193C34.1625 59.9718 34.3278 58.6224 34.4905 57.2722C34.5348 56.9072 35.1059 56.9353 35.0615 57.3003L34.9476 58.2449C35.4713 58.0043 35.9951 57.7639 36.516 57.5224C36.8514 57.3706 37.1111 57.8808 36.775 58.0354C36.1387 58.3262 35.5023 58.617 34.8676 58.9115L34.2868 63.7238C34.8424 63.3401 35.4005 62.9574 35.9589 62.5746C36.2579 62.3686 36.6412 62.7958 36.3385 63.0036L34.299 64.4025C34.2674 64.4252 34.2324 64.4408 34.1971 64.4473C33.9189 66.7565 33.6415 69.0632 33.3605 71.3714C34.0565 70.6695 34.7488 69.9692 35.4446 69.2672C35.4373 69.2438 35.4299 69.2202 35.4316 69.1876C35.4731 68.2343 35.5121 67.2803 35.5537 66.327C35.5701 65.9558 36.1402 65.9867 36.1247 66.355L36.0245 68.6806C37.2777 67.415 38.5311 66.1491 39.7844 64.8834C39.7797 64.8607 39.7742 64.841 39.7805 64.8129C39.8774 64.1219 39.9755 63.4281 40.0733 62.7344C40.1259 62.3721 40.6969 62.4002 40.6443 62.7625C40.5753 63.2488 40.5062 63.7351 40.4371 64.2215C41.0701 63.5831 41.7031 62.9448 42.3341 62.3027C42.5939 62.0417 42.9727 62.4735 42.7137 62.7318C42.6498 62.7982 42.5833 62.8637 42.5195 62.9299C43.086 62.9535 43.6552 62.9779 44.2245 63.0025C44.5935 63.0155 44.5645 63.5904 44.1977 63.5721Z" fill="#0797A7"/>
<path d="M55.0195 65.3358H1.67235C0.748715 65.3358 0 64.5856 0 63.6602V29.3128C0 28.3874 0.748715 27.6372 1.67235 27.6372H55.0195C55.9432 27.6372 56.6919 28.3874 56.6919 29.3128V63.6602C56.6919 64.5856 55.9432 65.3358 55.0195 65.3358Z" fill="#414C5B"/>
<path d="M2.35095 62.7529V30.2203C2.35095 29.989 2.53813 29.8015 2.76895 29.8015H53.9233C54.1539 29.8015 54.3411 29.9889 54.3411 30.2201V62.7531C54.3411 62.9843 54.1539 63.1717 53.9233 63.1717H2.76895C2.53813 63.1717 2.35095 62.9842 2.35095 62.7529Z" fill="#74DED0"/>
<path d="M32.8543 65.3358H23.8398V72.8285H32.8543V65.3358Z" fill="#414C5B"/>
<path d="M38.3653 72.8286H18.3267V74.2441H38.3653V72.8286Z" fill="#343C4B"/>
<path d="M32.8543 65.3358H23.8398V68.4158H32.8543V65.3358Z" fill="#343C4B"/>
<path d="M48.0767 38.8229C47.8242 38.8229 47.57 38.8144 47.3211 38.7973C47.2632 38.7932 47.2194 38.7429 47.2233 38.6849C47.2274 38.6268 47.2749 38.582 47.3354 38.5868C47.678 38.6105 48.0283 38.6175 48.3764 38.6081C48.4301 38.6112 48.4828 38.6523 48.4843 38.7106C48.4858 38.7688 48.4399 38.8172 48.382 38.8188C48.2802 38.8215 48.1785 38.8229 48.0767 38.8229ZM49.4276 38.7418C49.3751 38.7418 49.3298 38.7026 49.3233 38.6488C49.3164 38.5911 49.3576 38.5387 49.4152 38.532C49.7578 38.4912 50.1036 38.4343 50.4434 38.3628C50.5002 38.35 50.5559 38.3874 50.5678 38.4443C50.5797 38.5013 50.5433 38.5571 50.4865 38.569C50.1407 38.6415 49.7886 38.6996 49.4399 38.7411C49.4358 38.7416 49.4317 38.7418 49.4276 38.7418ZM46.2848 38.6724C46.2788 38.6724 46.2729 38.6721 46.267 38.6709C45.9158 38.6105 45.5675 38.5314 45.231 38.4358C45.1751 38.4198 45.1426 38.3615 45.1586 38.3055C45.1745 38.2494 45.2321 38.217 45.2884 38.233C45.6174 38.3268 45.9585 38.4041 46.3022 38.4633C46.3596 38.4732 46.3979 38.5277 46.388 38.5852C46.3795 38.6361 46.3351 38.6724 46.2848 38.6724ZM51.4836 38.3115C51.4385 38.3115 51.3967 38.2821 51.383 38.2365C51.3661 38.1807 51.3977 38.1219 51.4532 38.1052C51.7837 38.0054 52.115 37.8895 52.4375 37.7614C52.4914 37.7403 52.5525 37.7662 52.5742 37.8203C52.5956 37.8745 52.5692 37.9357 52.5153 37.9571C52.1872 38.0875 51.8504 38.2053 51.5143 38.3067C51.5039 38.31 51.4935 38.3115 51.4836 38.3115ZM44.2667 38.0955C44.2533 38.0955 44.2398 38.0931 44.2266 38.0877C43.8977 37.9521 43.5753 37.7965 43.2686 37.6254C43.2179 37.5971 43.1995 37.5329 43.2277 37.4821C43.2561 37.4315 43.3198 37.4129 43.3707 37.4414C43.6704 37.6084 43.9852 37.7602 44.3064 37.8925C44.3601 37.9147 44.3857 37.9762 44.3636 38.0302C44.3473 38.0711 44.3079 38.0955 44.2667 38.0955ZM53.4356 37.534C53.397 37.534 53.3599 37.5126 53.3415 37.4758C53.3155 37.4237 53.3367 37.3606 53.3885 37.3344C53.4455 37.3057 53.5021 37.2767 53.5586 37.2471C53.8078 37.1169 54.0575 36.9759 54.301 36.8285C54.3507 36.7982 54.4154 36.8144 54.4453 36.864C54.4753 36.9139 54.4594 36.9787 54.4098 37.0088C54.1626 37.1586 53.9092 37.3016 53.6559 37.4339C53.5983 37.4639 53.5404 37.4938 53.4824 37.5228C53.4676 37.5305 53.4514 37.534 53.4356 37.534ZM55.2341 36.4456C55.2012 36.4456 55.1687 36.4302 55.1483 36.4014C55.1147 36.3539 55.1256 36.2882 55.173 36.2544C55.4528 36.0549 55.7315 35.841 56.0017 35.6183C56.0467 35.5811 56.1128 35.5878 56.1497 35.6326C56.1867 35.6774 56.1802 35.7439 56.1354 35.7807C55.8615 36.0066 55.5787 36.2235 55.295 36.4257C55.2764 36.4393 55.2551 36.4456 55.2341 36.4456ZM56.8576 35.1096C56.8295 35.1096 56.8017 35.0985 56.7809 35.0765C56.741 35.0341 56.7432 34.9675 56.7855 34.9275C57.0351 34.6925 57.2838 34.4436 57.5242 34.1874C57.5643 34.145 57.6306 34.1431 57.673 34.1829C57.7153 34.2229 57.7172 34.2895 57.6774 34.3319C57.4338 34.5913 57.1822 34.8432 56.9294 35.0812C56.9094 35.1001 56.8836 35.1096 56.8576 35.1096ZM71.9708 34.9969L71.89 34.9948C71.8319 34.993 71.7864 34.9444 71.788 34.8862C71.7899 34.8279 71.8406 34.7835 71.8965 34.784L71.9747 34.7861L71.9708 34.9969ZM70.852 34.8622C70.8445 34.8622 70.8369 34.8614 70.8291 34.8598C70.4843 34.7835 70.1413 34.6754 69.8099 34.5383C69.7562 34.5163 69.7306 34.4545 69.7527 34.4008C69.7749 34.347 69.8368 34.321 69.8899 34.3437C70.2102 34.4758 70.5413 34.5803 70.8744 34.654C70.9311 34.6665 70.9669 34.7226 70.9545 34.7796C70.9437 34.8285 70.9002 34.8622 70.852 34.8622ZM68.9154 34.0659C68.8964 34.0659 68.8771 34.0607 68.8599 34.0499C68.5577 33.8612 68.2695 33.6462 68.0034 33.411C67.96 33.3725 67.9557 33.3059 67.9942 33.2622C68.0328 33.2188 68.0993 33.2145 68.1427 33.2529C68.4001 33.4804 68.6788 33.6884 68.9713 33.8713C69.0205 33.902 69.0355 33.9669 69.0049 34.0164C68.9848 34.0484 68.9505 34.0659 68.9154 34.0659ZM58.2988 33.5772C58.275 33.5772 58.251 33.5692 58.2313 33.5524C58.1868 33.5152 58.181 33.4488 58.2183 33.4041C58.4386 33.1409 58.6571 32.8646 58.8679 32.5831C58.9028 32.5364 58.9685 32.5269 59.0152 32.5619C59.0616 32.5969 59.0709 32.6629 59.0361 32.7094C58.8231 32.9941 58.6022 33.2731 58.3795 33.5396C58.3585 33.5643 58.3288 33.5772 58.2988 33.5772ZM67.347 32.6769C67.3162 32.6769 67.2857 32.6635 67.2651 32.6376C67.0397 32.3571 66.8397 32.0575 66.6711 31.7472C66.6432 31.696 66.6622 31.632 66.7131 31.6041C66.7643 31.5766 66.828 31.5956 66.8557 31.6464C67.0183 31.9457 67.2111 32.2348 67.4287 32.5055C67.4651 32.5507 67.4581 32.6171 67.4127 32.6536C67.3934 32.6692 67.3702 32.6769 67.347 32.6769ZM59.5613 31.8934C59.541 31.8934 59.5206 31.8877 59.5026 31.8756C59.4545 31.8428 59.4417 31.7773 59.4742 31.7293C59.6667 31.4432 59.8565 31.1457 60.038 30.8458C60.0682 30.7961 60.1327 30.7803 60.1824 30.8104C60.2322 30.8408 60.248 30.9055 60.2179 30.9554C60.0344 31.2581 59.843 31.558 59.6486 31.8471C59.6281 31.8771 59.5951 31.8934 59.5613 31.8934ZM66.3454 30.8369C66.3019 30.8369 66.2613 30.8097 66.246 30.7662C66.1339 30.4428 66.0369 30.1081 65.9434 29.7842L65.9346 29.7539C65.9185 29.6981 65.9506 29.6396 66.0063 29.6235C66.0626 29.6069 66.1203 29.6395 66.1367 29.6953L66.1452 29.7256C66.2382 30.0469 66.3342 30.379 66.4445 30.697C66.4637 30.7518 66.4347 30.8119 66.3797 30.8311C66.3684 30.835 66.3569 30.8369 66.3454 30.8369ZM60.6528 30.0927C60.6357 30.0927 60.6184 30.0886 60.6025 30.0796C60.5516 30.0519 60.5328 29.9877 60.5607 29.9366C60.624 29.8205 60.6864 29.7038 60.7477 29.587C60.8479 29.3959 60.946 29.2019 61.0403 29.0056C61.0658 28.9533 61.1287 28.9312 61.1807 28.9565C61.2331 28.9816 61.255 29.0445 61.2299 29.0969C61.1345 29.2956 61.0353 29.4917 60.9339 29.685C60.8721 29.8032 60.8091 29.9206 60.7451 30.038C60.7259 30.073 60.6899 30.0927 60.6528 30.0927ZM65.7224 28.8246C65.6791 28.8246 65.6386 28.7976 65.6232 28.7546C65.4927 28.3877 65.3543 28.0796 65.2 27.8132C65.1709 27.7628 65.188 27.6984 65.2383 27.6692C65.2886 27.64 65.353 27.6571 65.382 27.7075C65.5428 27.9853 65.6865 28.3048 65.8214 28.6839C65.8409 28.7386 65.8123 28.7989 65.7577 28.8184C65.746 28.8227 65.7341 28.8246 65.7224 28.8246ZM61.5558 28.1909C61.5432 28.1909 61.5304 28.1887 61.5177 28.1836C61.4637 28.1626 61.4368 28.1018 61.4578 28.0475C61.5892 27.7074 61.6982 27.3743 61.7818 27.0579C61.7966 27.0017 61.8542 26.9678 61.9103 26.9829C61.9664 26.9978 61.9998 27.0553 61.9849 27.1116C61.8995 27.4355 61.7881 27.776 61.6539 28.1234C61.6377 28.1654 61.5978 28.1909 61.5558 28.1909ZM64.6469 27.0381C64.6207 27.0381 64.5943 27.0285 64.5741 27.0088C64.3366 26.7803 64.0595 26.5762 63.7505 26.4022C63.6998 26.3738 63.682 26.3096 63.7104 26.2588C63.7388 26.208 63.8029 26.19 63.8536 26.2186C64.178 26.4013 64.4695 26.6162 64.7196 26.8569C64.7616 26.8973 64.7629 26.9639 64.7228 27.006C64.702 27.0274 64.6745 27.0381 64.6469 27.0381ZM62.0787 26.1563C62.075 26.1563 62.0711 26.1561 62.067 26.1557C62.0093 26.1494 61.9677 26.0973 61.974 26.0394C61.9833 25.9542 61.9909 25.869 61.9963 25.7846C61.9315 25.7721 61.8659 25.7604 61.8 25.7494C61.7426 25.7399 61.7038 25.6858 61.7133 25.6285C61.7226 25.571 61.776 25.5302 61.834 25.5416C61.8917 25.5511 61.9491 25.5611 62.0063 25.5719C62.0078 25.5202 62.0085 25.469 62.0085 25.418C62.0085 25.2804 62.0031 25.1423 61.9924 25.0078C61.9877 24.9498 62.031 24.899 62.0889 24.8945C62.1454 24.8904 62.1976 24.9332 62.202 24.9911C62.2132 25.1312 62.2187 25.275 62.2187 25.4182C62.2187 25.4833 62.2176 25.5486 62.2152 25.6147C62.4423 25.6642 62.6618 25.7235 62.8711 25.792C62.9262 25.81 62.9565 25.8696 62.9383 25.925C62.9203 25.9801 62.861 26.0102 62.8057 25.9926C62.6135 25.9295 62.4122 25.8746 62.2039 25.8279C62.1983 25.906 62.1912 25.9842 62.1827 26.0629C62.1773 26.1165 62.1318 26.1563 62.0787 26.1563ZM57.6182 25.7036C57.5606 25.7036 57.5138 25.6573 57.5131 25.5996C57.5123 25.5414 57.5588 25.4936 57.6169 25.4928C57.9662 25.4884 58.3156 25.4752 58.6649 25.4614C58.7175 25.4634 58.7719 25.5044 58.7741 25.5626C58.7764 25.6206 58.7312 25.6698 58.6731 25.672C58.322 25.6858 57.9706 25.699 57.6195 25.7034C57.6191 25.7036 57.6187 25.7036 57.6182 25.7036ZM56.5672 25.6824C56.5649 25.6824 56.5627 25.6824 56.5607 25.6822C56.195 25.6595 55.8396 25.6162 55.5043 25.5535C55.4472 25.5429 55.4096 25.4878 55.4201 25.4307C55.4307 25.3738 55.4846 25.3351 55.5429 25.3466C55.8697 25.4076 56.2166 25.4499 56.5735 25.4722C56.6316 25.4757 56.6756 25.526 56.6719 25.584C56.6686 25.6394 56.6223 25.6824 56.5672 25.6824ZM60.7716 25.6456C60.77 25.6456 60.7685 25.6456 60.7668 25.6454C60.4446 25.6313 60.0849 25.6292 59.7223 25.6368C59.6649 25.6383 59.6162 25.5918 59.6149 25.5338C59.6138 25.4755 59.6599 25.4273 59.718 25.4262C60.0851 25.4188 60.4494 25.4205 60.7763 25.4353C60.8342 25.4378 60.8791 25.4871 60.8765 25.5453C60.8741 25.6015 60.8275 25.6456 60.7716 25.6456ZM54.5084 25.2847C54.4967 25.2847 54.4848 25.2828 54.4731 25.2785C54.1216 25.1529 53.7959 24.9985 53.5049 24.819C53.4555 24.7885 53.4401 24.7235 53.4705 24.674C53.5008 24.6244 53.5656 24.6084 53.6152 24.6394C53.8936 24.811 54.2059 24.9593 54.5437 25.08C54.5984 25.0995 54.6269 25.1598 54.6074 25.2145C54.5921 25.2577 54.5517 25.2847 54.5084 25.2847ZM52.7445 24.1751C52.7166 24.1751 52.689 24.1641 52.6684 24.1423C52.6457 24.1185 52.6236 24.0943 52.6017 24.0701C52.3863 23.8298 52.2075 23.5499 52.0701 23.2387C52.0467 23.1855 52.0706 23.1233 52.1237 23.0997C52.1765 23.0757 52.2387 23.1003 52.2624 23.1535C52.3909 23.4445 52.5577 23.7055 52.758 23.9293C52.7787 23.9522 52.7995 23.9749 52.8206 23.9972C52.8607 24.0394 52.8589 24.106 52.8169 24.1462C52.7965 24.1654 52.7707 24.1751 52.7445 24.1751ZM61.9049 24.0709C61.8596 24.0709 61.8176 24.0415 61.8041 23.9957C61.7075 23.6718 61.5759 23.3511 61.4128 23.042C61.3855 22.9909 61.4052 22.9271 61.4566 22.8997C61.5083 22.8727 61.5716 22.8921 61.5987 22.9438C61.7684 23.2647 61.9053 23.5985 62.0056 23.9354C62.0223 23.9912 61.9905 24.05 61.935 24.0668C61.925 24.0694 61.9149 24.0709 61.9049 24.0709ZM51.9001 22.2865C51.8467 22.2865 51.8008 22.2458 51.7956 22.1912C51.7856 22.0887 51.7806 21.9851 51.7806 21.8826C51.7806 21.6134 51.8149 21.3531 51.8827 21.1086C51.8983 21.0524 51.956 21.0193 52.0121 21.0353C52.068 21.0508 52.1009 21.109 52.0853 21.165C52.0225 21.3911 51.9908 21.6325 51.9908 21.8826C51.9908 21.9782 51.9956 22.0751 52.0047 22.1711C52.0103 22.229 51.9681 22.2804 51.9102 22.2861C51.9068 22.2863 51.9035 22.2865 51.9001 22.2865ZM60.9328 22.2164C60.9016 22.2164 60.8706 22.2026 60.85 22.176C60.639 21.9066 60.4021 21.6517 60.1462 21.4188C60.1033 21.3797 60.1002 21.3131 60.1392 21.2699C60.1783 21.2266 60.245 21.2238 60.2877 21.2627C60.5521 21.5036 60.7971 21.7671 61.0154 22.0457C61.0513 22.0913 61.0433 22.1578 60.9976 22.1937C60.9785 22.2089 60.9555 22.2164 60.9328 22.2164ZM59.3841 20.8052C59.3644 20.8052 59.3448 20.7996 59.3269 20.7881C59.0434 20.6037 58.7381 20.4357 58.4196 20.2887C58.3669 20.2643 58.3437 20.2018 58.368 20.149C58.3923 20.096 58.4547 20.0727 58.5075 20.0973C58.8352 20.2485 59.1494 20.4214 59.4415 20.6115C59.4902 20.6431 59.5041 20.7084 59.4725 20.7572C59.4523 20.7883 59.4185 20.8052 59.3841 20.8052ZM52.4817 20.3256C52.4563 20.3256 52.431 20.3164 52.4108 20.298C52.3679 20.259 52.3647 20.1923 52.4041 20.1492C52.4684 20.0787 52.5382 20.0115 52.6119 19.9497C52.8123 19.781 53.0466 19.6431 53.3081 19.5395C53.3619 19.5177 53.4232 19.5447 53.4445 19.5987C53.4659 19.6528 53.4395 19.7138 53.3855 19.7352C53.145 19.8305 52.9304 19.957 52.7471 20.111C52.6804 20.167 52.6175 20.2275 52.5595 20.2911C52.5387 20.314 52.5103 20.3256 52.4817 20.3256ZM57.4823 19.9216C57.4719 19.9216 57.4613 19.9202 57.4509 19.917C57.1265 19.8156 56.7872 19.7309 56.4428 19.6656C56.3857 19.655 56.3482 19.5998 56.359 19.5427C56.3698 19.4856 56.4249 19.448 56.4817 19.4588C56.8342 19.5254 57.1814 19.6119 57.5135 19.7157C57.569 19.7332 57.5998 19.7922 57.5825 19.8478C57.5686 19.8928 57.527 19.9216 57.4823 19.9216ZM55.4207 19.5269C55.4179 19.5269 55.4151 19.5267 55.4122 19.5265L55.3663 19.5228C55.0044 19.4945 54.6733 19.493 54.379 19.5174C54.3192 19.5216 54.2701 19.479 54.2655 19.4212C54.2607 19.3631 54.3036 19.3122 54.3615 19.3073C54.667 19.282 55.0094 19.2833 55.383 19.3127L55.4291 19.3164C55.487 19.3209 55.5301 19.3719 55.5254 19.4297C55.521 19.4852 55.4749 19.5269 55.4207 19.5269Z" fill="white"/>
<path d="M65.342 77.9518C65.3647 77.8148 65.4308 77.6554 65.6085 77.5776C66.1272 77.3508 68.0305 76.6487 68.5465 76.2472C68.9473 75.9354 69.3012 75.2563 69.4395 74.9681L72.9759 75.1501C73.1781 76.0535 73.3072 77.7936 73.3326 78.1579L65.342 77.9518Z" fill="#F88859"/>
<path d="M65.3181 78.7407L73.3087 78.9468L73.3326 78.158L65.3421 77.9517L65.3181 78.7407Z" fill="white"/>
<path d="M69.213 76.4857C69.2184 76.4949 69.2234 76.5042 69.2284 76.5137C69.2654 76.5838 69.2875 76.6906 69.1935 76.7298C69.1456 76.7499 69.0908 76.7421 69.0399 76.7311C68.8652 76.693 68.7055 76.6147 68.5532 76.5243C68.3895 76.4271 68.2151 76.322 68.1113 76.1589C68.004 75.9899 68.1625 75.839 68.3516 75.8826C68.6782 75.9577 69.0438 76.1925 69.213 76.4857Z" fill="white"/>
<path d="M68.5998 76.8927C68.6052 76.9018 68.6102 76.9111 68.6153 76.9206C68.6522 76.9906 68.6743 77.0976 68.5803 77.1368C68.5324 77.1569 68.4777 77.1491 68.427 77.1381C68.2522 77.1 68.0923 77.0217 67.9401 76.9312C67.7763 76.8341 67.6019 76.729 67.4981 76.5658C67.3908 76.3969 67.5494 76.246 67.7384 76.2896C68.0652 76.3647 68.4307 76.5997 68.5998 76.8927Z" fill="white"/>
<path d="M67.8518 77.1524C67.8572 77.1615 67.8622 77.1708 67.8672 77.1803C67.9041 77.2504 67.9262 77.3572 67.8323 77.3965C67.7844 77.4166 67.7296 77.4087 67.6787 77.3978C67.504 77.3596 67.3443 77.2813 67.192 77.1909C67.0282 77.0938 66.8539 76.9887 66.7501 76.8255C66.6427 76.6566 66.8015 76.5057 66.9903 76.5492C67.317 76.6244 67.6826 76.8593 67.8518 77.1524Z" fill="white"/>
<path d="M77.3424 74.3814L80.653 74.0011C81.0193 74.9457 81.5306 76.7194 81.7963 77.6694C81.9047 78.0579 81.9725 78.3088 81.9725 78.3088C81.9725 78.3088 80.2385 79.5328 79.7655 79.5725C79.2928 79.6113 76.8104 78.9799 76.8104 78.6638C76.8104 78.5531 76.8641 78.1611 76.9397 77.6887C77.0429 77.0452 77.2433 75.2766 77.3424 74.3814Z" fill="#F88859"/>
<path d="M81.9725 78.3089C81.9725 78.3089 80.2385 79.5329 79.7655 79.5726C79.2926 79.6115 76.8104 78.98 76.8104 78.6639C76.8104 78.5532 76.8641 78.1612 76.9397 77.6888C77.7474 78.0062 79.4775 78.6343 80.0482 78.4289C80.4353 78.2894 81.172 77.9579 81.7963 77.6693C81.9047 78.058 81.9725 78.3089 81.9725 78.3089Z" fill="white"/>
<path d="M79.7603 75.9088C79.7701 75.9128 79.7798 75.9173 79.7893 75.9218C79.8609 75.9554 79.9426 76.0275 79.8912 76.1155C79.865 76.1603 79.8166 76.1873 79.7694 76.209C79.6069 76.284 79.4324 76.3179 79.2565 76.3376C79.0675 76.3588 78.8651 76.3802 78.684 76.3125C78.4968 76.2425 78.5327 76.0261 78.7098 75.9469C79.0159 75.8098 79.4491 75.7768 79.7603 75.9088Z" fill="white"/>
<path d="M79.7603 76.5932C79.7701 76.5973 79.7798 76.6018 79.7893 76.6062C79.8609 76.6399 79.9426 76.7119 79.8912 76.7999C79.865 76.8447 79.8166 76.8717 79.7694 76.8935C79.6069 76.9685 79.4324 77.0023 79.2565 77.022C79.0675 77.0433 78.8651 77.0646 78.684 76.9969C78.4968 76.927 78.5327 76.7106 78.7098 76.6313C79.0159 76.4942 79.4491 76.4613 79.7603 76.5932Z" fill="white"/>
<path d="M79.8271 77.2198C79.8369 77.2239 79.8466 77.2283 79.856 77.2328C79.9277 77.2665 80.0094 77.3385 79.958 77.4265C79.9318 77.4713 79.8833 77.4983 79.8362 77.5201C79.6737 77.595 79.4991 77.6289 79.3233 77.6486C79.1342 77.6698 78.9318 77.6912 78.7508 77.6235C78.5636 77.5536 78.5994 77.3372 78.7766 77.2579C79.0826 77.1208 79.5158 77.0879 79.8271 77.2198Z" fill="white"/>
<path d="M68.1259 62.0589C68.0824 61.4483 68.491 55.02 68.7829 50.5904C68.8514 49.5504 68.9134 48.6209 68.9617 47.9023H80.034L80.0139 50.0583L80.2919 61.2431C80.2919 61.2431 81.3723 70.105 81.8707 74.149C80.0373 74.5106 78.1626 74.6896 76.2719 74.7315L75.7252 61.7234L73.8564 51.1157L73.7498 50.4493L73.7169 51.1197L73.2252 61.2427L74.0166 75.4785C72.0342 75.4219 70.0445 75.2351 68.0759 74.9681C68.176 71.229 68.1665 62.6284 68.1259 62.0589Z" fill="#414C5B"/>
<path d="M72.5309 61.2428L73.5537 49.0348L73.75 50.4493L73.7171 51.1196L73.2254 61.2427L74.0168 75.4786C73.8174 75.4729 73.6181 75.466 73.4185 75.4576L72.5309 61.2428Z" fill="#343C4B"/>
<path d="M79.416 47.9022H80.034L80.014 50.0581L80.2919 61.2429C80.2919 61.2429 81.3723 70.1049 81.8707 74.1488C81.7275 74.1771 81.5842 74.2035 81.4406 74.2296L79.5484 61.2429L79.416 47.9022Z" fill="#343C4B"/>
<path d="M77.1831 61.0675C76.7711 61.2222 76.5041 61.7084 76.4298 62.1681C76.3535 62.6394 76.4812 63.1443 76.769 63.5095C76.9328 63.7173 77.1588 63.8855 77.4117 63.9049C77.6375 63.9222 77.862 63.8174 78.0306 63.6552C78.1992 63.4931 78.317 63.2777 78.4039 63.0533C78.5446 62.6889 78.6094 62.2781 78.5144 61.897C78.3998 61.4377 77.9656 61.0449 77.509 61.0183C77.3924 61.0116 77.2834 61.0297 77.1831 61.0675Z" fill="#515D6C"/>
<path d="M69.3666 60.8621C68.9546 61.0169 68.6875 61.5031 68.6133 61.9628C68.5369 62.434 68.6647 62.939 68.9525 63.3042C69.1163 63.512 69.3423 63.6802 69.5952 63.6995C69.821 63.7168 70.0455 63.6121 70.2141 63.4499C70.3827 63.2876 70.5005 63.0724 70.5874 62.848C70.7281 62.4835 70.7929 62.0727 70.6978 61.6917C70.5833 61.2324 70.1491 60.8396 69.6925 60.813C69.5757 60.8063 69.4669 60.8244 69.3666 60.8621Z" fill="#515D6C"/>
<path d="M80.1616 51.1076V51.0064C80.1616 50.7199 80.3193 46.08 80.4728 41.611C80.6012 37.8499 80.7295 34.2069 80.7588 33.3702C80.2246 33.0015 79.7956 32.738 79.762 32.717C79.76 32.715 79.76 32.715 79.76 32.715L78.2815 32.0238L77.3541 31.594L73.1669 31.5265L73.1291 31.5412L73.0659 31.5644L72.9502 31.6087L72.7967 31.6677L72.6158 31.7373C72.4854 31.7857 72.3402 31.8426 72.1889 31.9016L71.9555 31.9922C71.9156 32.0069 71.8777 32.0238 71.8377 32.0385C71.2448 32.2703 70.6432 32.5125 70.4729 32.6074C70.4729 32.6074 68.6706 48.6441 68.6327 51.1074H80.1616V51.1076Z" fill="#456997"/>
<path d="M76.4677 31.1823C76.4079 31.2422 73.7811 33.1897 73.7811 33.1897C73.7811 33.1897 73.8414 31.9901 73.8702 31.365C73.8786 31.1715 73.8845 31.0331 73.8845 31.0024C73.8845 30.7525 73.6715 29.6703 73.6715 29.6703L76.3223 28.4556C76.3223 28.4556 76.3641 29.0033 76.4047 29.6079C76.4538 30.3372 76.5005 31.1493 76.4677 31.1823Z" fill="#FFA07F"/>
<path d="M71.8378 32.0367C71.8378 32.0367 71.8378 32.0367 71.8378 32.0387C71.8358 32.123 71.8294 34.1647 73.6717 34.7063C75.5496 35.2605 78.2815 32.024 78.2815 32.024L77.3961 31.6132L77.3542 31.5943L76.4668 31.1835L73.8695 31.3647L73.167 31.5269L73.1291 31.5416L73.066 31.5649L72.9503 31.6091L72.7967 31.6681L72.6159 31.7377L72.2582 31.8746L72.1888 31.902L71.9553 31.9926L71.8378 32.0367Z" fill="#FFA07F"/>
<path d="M71.8378 32.0366C71.8378 32.0366 71.8378 32.0366 71.8378 32.0386C71.8358 32.1229 71.8294 34.1646 73.6717 34.7062C75.5496 35.2604 78.2815 32.024 78.2815 32.024L77.3961 31.6132C76.8283 32.34 75.106 34.4093 73.9703 34.1795C72.9882 33.9814 72.4729 32.6308 72.2584 31.8744L72.1889 31.9017L71.9555 31.9923L71.8378 32.0366Z" fill="white"/>
<path d="M76.4047 29.6082C75.6684 30.144 74.0464 31.3161 73.8843 31.3622C73.8794 31.3635 73.8746 31.3647 73.87 31.3652C73.8783 31.1717 73.8843 31.0333 73.8843 31.0026C73.8843 30.7527 73.6713 29.6705 73.6713 29.6705L76.322 28.4558C76.322 28.4558 76.364 29.0035 76.4047 29.6082Z" fill="#FF7D6F"/>
<path d="M76.6851 28.5484C76.6851 28.5484 76.6187 28.7402 76.3227 29.0025H76.3221C76.2618 29.0565 76.1912 29.1134 76.1099 29.1722C75.7988 29.3956 72.8873 30.6457 72.4387 30.5858C71.9901 30.5259 71.5674 28.9815 71.544 28.8191C71.3999 27.8226 71.0033 24.7432 71.0033 24.7432C72.1098 21.3874 76.0571 23.1253 76.5058 23.4548C76.9544 23.7843 76.6851 28.5484 76.6851 28.5484Z" fill="#FFA07F"/>
<path d="M76.322 29.0028C76.2617 29.0567 76.1911 29.1137 76.1098 29.1725C75.7987 29.3959 72.8873 30.6459 72.4386 30.586C71.99 30.5261 71.5673 28.9818 71.5439 28.8193C71.8232 29.4977 72.1389 30.4355 72.4566 30.4056C72.935 30.3606 75.9685 29.1892 76.322 29.0028Z" fill="#FFBF90"/>
<path d="M69.7852 24.8986C72.2037 25.8467 76.1133 23.6154 76.1133 23.6154L75.8503 24.669L76.351 25.0547V27.0227C76.6328 26.4348 77.3751 26.1083 77.3751 26.1083C77.3751 26.1083 77.5054 25.8322 77.6358 25.1979V25.1959C77.7032 24.8631 77.7704 24.4311 77.8189 23.8895C77.8421 23.624 77.8188 23.4048 77.7643 23.2258C77.6592 22.8781 77.4361 22.6802 77.2048 22.5663C77.108 22.52 77.0113 22.4863 76.9208 22.4651C76.6768 22.4061 76.4791 22.4208 76.4791 22.4208C75.3582 21.0028 73.3708 21.2766 72.1237 21.639C71.457 21.8329 71.0028 22.0521 71.0028 22.0521L71.5432 22.2986C70.8849 22.4671 70.3822 23.0528 70.0859 23.4932C69.8903 23.7883 69.785 24.0178 69.785 24.0178L70.4686 24.1591C70.1364 24.3697 69.7852 24.8986 69.7852 24.8986Z" fill="#FD7658"/>
<path d="M77.2048 22.5653C77.1669 22.993 77.1249 23.4228 77.087 23.8528C77.3121 23.6442 77.5392 23.4356 77.7643 23.2248C77.659 22.8773 77.4361 22.6792 77.2048 22.5653Z" fill="#F88859"/>
<path d="M74.1554 22.5906C73.9914 22.8498 73.8275 23.111 73.6633 23.3702C74.7884 23.2396 75.8903 22.9318 76.9209 22.4641C76.6769 22.4051 76.4792 22.4198 76.4792 22.4198C75.3583 21.0018 73.3708 21.2756 72.1237 21.6381C72.4539 21.7497 72.7863 21.8615 73.1164 21.9731C72.6559 22.2366 72.1932 22.4978 71.7327 22.7612C72.5402 22.7045 73.3478 22.6476 74.1554 22.5906Z" fill="#F88859"/>
<path d="M71.4672 25.7379C71.4672 25.7379 72.0664 25.0707 72.3383 25.3814C72.6101 25.6921 72.4734 25.7098 72.4734 25.7098L71.4672 25.7379Z" fill="#FD7658"/>
<path d="M75.7452 25.0072C75.7452 25.0072 74.3809 24.3613 74.1729 24.896C74.0517 25.208 74.2669 25.2893 74.2669 25.2893L75.7452 25.0072Z" fill="#FD7658"/>
<path d="M71.7164 26.6011C71.7164 26.8347 71.8342 27.0241 71.9794 27.0241C72.1246 27.0241 72.2423 26.8347 72.2423 26.6011C72.2423 26.3674 72.1246 26.178 71.9794 26.178C71.8342 26.178 71.7164 26.3674 71.7164 26.6011Z" fill="#343C4B"/>
<path d="M71.4906 26.3959C71.4906 26.3959 71.5829 26.5208 71.7342 26.582C71.8856 26.6434 72.0384 26.6179 72.0384 26.6179C72.0384 26.6179 71.9461 26.493 71.7948 26.4318C71.6434 26.3706 71.4906 26.3959 71.4906 26.3959Z" fill="white"/>
<path d="M75.0028 26.2495C75.0028 26.5446 74.854 26.7839 74.6708 26.7839C74.4875 26.7839 74.3387 26.5446 74.3387 26.2495C74.3387 25.9545 74.4875 25.7152 74.6708 25.7152C74.854 25.7152 75.0028 25.9545 75.0028 26.2495Z" fill="#343C4B"/>
<path d="M75.2879 25.9901C75.2879 25.9901 75.1713 26.1477 74.9804 26.2251C74.7893 26.3024 74.5962 26.2705 74.5962 26.2705C74.5962 26.2705 74.7128 26.1129 74.9037 26.0355C75.0948 25.9581 75.2879 25.9901 75.2879 25.9901Z" fill="white"/>
<path d="M71.9759 27.8967C71.93 28.0195 71.665 28.0338 71.3843 27.9285C71.1035 27.8232 70.913 27.6383 70.9588 27.5153C71.0047 27.3925 71.2697 27.3782 71.5505 27.4835C71.8314 27.5888 72.0218 27.7737 71.9759 27.8967Z" fill="#FF7D6F"/>
<path d="M75.5087 27.3232C75.5566 27.5085 75.2521 27.7477 74.8287 27.8577C74.4051 27.9676 74.023 27.9066 73.9751 27.7211C73.9271 27.5358 74.2317 27.2966 74.6551 27.1866C75.0784 27.0767 75.4608 27.1379 75.5087 27.3232Z" fill="#FF7D6F"/>
<path d="M74.6546 28.2041L72.625 28.4383C72.625 28.4383 72.7957 29.5758 73.8359 29.4197C74.8555 29.2666 74.6546 28.2041 74.6546 28.2041Z" fill="white"/>
<path d="M72.6462 27.4298C72.6462 27.4298 73.199 27.5835 73.5589 27.4025L73.277 27.8661C73.277 27.8661 72.7448 27.7788 72.6462 27.4298Z" fill="#FF7D6F"/>
<path d="M72.9946 26.1304C72.9946 26.1304 73.0406 26.9998 72.7383 27.4601C72.7383 27.4601 72.9749 27.7934 73.2772 27.866C73.2772 27.866 72.817 27.9289 72.4425 27.4727C72.4425 27.4727 72.7316 27.2392 72.9946 26.1304Z" fill="#FC5B68"/>
<path d="M76.2567 28.6672C76.8563 28.6199 77.2929 28.2634 77.5265 27.965C77.579 27.8977 77.6212 27.8333 77.6529 27.7762C77.8241 27.4649 77.8734 26.3859 77.4325 26.1351C77.1235 25.9596 76.8987 26.2143 76.7917 26.3827V26.3832C76.7462 26.4549 76.7219 26.5109 76.7219 26.5109L76.2567 28.6672Z" fill="#FFBF90"/>
<path d="M76.2567 28.6671C76.8563 28.6198 77.2929 28.2634 77.5265 27.965C77.5467 27.9344 77.5644 27.9054 77.5794 27.8779C77.7506 27.5666 77.7998 26.4876 77.359 26.2371C77.1089 26.0948 76.9137 26.2349 76.7917 26.3828V26.3834C76.7462 26.455 76.7219 26.511 76.7219 26.511L76.2567 28.6671Z" fill="#FFA07F"/>
<path d="M77.5716 26.9923C77.5937 27.0787 77.5797 27.1685 77.5513 27.2537C77.4308 27.616 77.0698 27.8922 76.7242 28.1488C76.8284 27.9732 76.8668 27.7749 76.8455 27.5817C76.8381 27.5146 76.8236 27.4478 76.823 27.3802C76.8204 27.1088 77.441 26.4822 77.5716 26.9923Z" fill="#FF7D6F"/>
<path d="M76.5508 28.252C76.5508 28.252 76.5575 28.2481 76.5705 28.2408C76.5829 28.2332 76.6031 28.2231 76.6262 28.2075C76.6724 28.1764 76.7365 28.1269 76.7966 28.0533C76.8566 27.98 76.911 27.8819 76.9368 27.7658C76.9602 27.6501 76.9554 27.5154 76.8934 27.3854C76.8867 27.3688 76.8776 27.3532 76.8683 27.3377L76.8614 27.3262C76.8598 27.3232 76.8607 27.3251 76.8605 27.3247L76.8607 27.3251L76.8603 27.3249C76.8603 27.3249 76.8598 27.3254 76.8611 27.323L76.8668 27.3126L76.8785 27.292C76.8865 27.2784 76.8943 27.2648 76.9027 27.2516C76.9354 27.1986 76.9706 27.1487 77.0068 27.1024C77.0431 27.0561 77.0808 27.0134 77.1179 26.9746C77.1554 26.9359 77.1914 26.8996 77.2273 26.8726C77.2629 26.8454 77.3023 26.828 77.339 26.8231C77.376 26.819 77.4107 26.8274 77.4343 26.8389C77.4581 26.8508 77.4713 26.8661 77.4767 26.8774C77.4824 26.8888 77.482 26.8957 77.4828 26.8957C77.4828 26.8957 77.4846 26.8892 77.4817 26.8763C77.4792 26.8637 77.4698 26.8447 77.446 26.827C77.4224 26.8099 77.3857 26.7939 77.3368 26.7926C77.288 26.7922 77.2354 26.8086 77.1886 26.835C77.1413 26.8616 77.099 26.8951 77.054 26.9316C77.0096 26.9686 76.9645 27.0101 76.9212 27.0564C76.878 27.1027 76.8362 27.1537 76.7983 27.209C76.7887 27.2227 76.7797 27.2369 76.7706 27.2512L76.7573 27.2728L76.7396 27.3035L76.7274 27.3251C76.7305 27.3321 76.7354 27.3394 76.7393 27.3467L76.7569 27.3774C76.7649 27.3908 76.7729 27.4043 76.7784 27.4187C76.8323 27.5312 76.8444 27.6494 76.8343 27.755C76.8217 27.8609 76.7862 27.955 76.743 28.0296C76.6995 28.1044 76.6498 28.1601 76.6126 28.1965C76.5942 28.2149 76.5773 28.2278 76.5671 28.2373C76.5564 28.2469 76.5508 28.252 76.5508 28.252Z" fill="#CF4A57"/>
<path d="M66.0629 45.0711C66.1134 45.9919 66.8874 47.3616 67.3416 47.4163C67.554 47.4395 69.3332 46.8684 71.1608 46.2531C71.1628 46.2511 71.165 46.2511 71.1671 46.2511C72.471 45.8127 73.8022 45.3534 74.6055 45.0732C75.0766 44.9089 75.3669 44.8077 75.3669 44.8077L73.9326 43.0695L70.3511 43.6447L69.2682 43.8196L69.6678 41.1921L67.8718 40.1175L67.3418 39.7993C67.3418 39.7993 66.0081 44.1504 66.0629 45.0711Z" fill="#FFA07F"/>
<path d="M70.351 43.6445C70.6811 43.9333 71.272 44.439 71.3793 44.4516C71.5307 44.4726 73.863 44.4516 73.863 44.4516L74.6054 45.0732C75.0765 44.9089 75.3667 44.8077 75.3667 44.8077L73.9324 43.0695L70.351 43.6445Z" fill="#FF7D6F"/>
<path d="M66.0629 45.071C66.1134 45.9917 66.8874 47.3614 67.3416 47.4161C67.554 47.4394 69.3332 46.8682 71.1608 46.2529C69.7558 46.5458 67.8653 46.9041 67.596 46.7733C67.1565 46.5625 66.5257 45.212 66.5257 45.212L67.8716 40.1171L67.3416 39.799C67.3416 39.799 66.0081 44.1502 66.0629 45.071Z" fill="#FFBF90"/>
<path d="M70.4725 32.6074C70.4725 32.6074 69.3177 33.4543 68.5913 34.2766C67.865 35.0992 66.9193 39.5455 66.9193 39.5455L69.667 41.1913L70.4725 32.6074Z" fill="#456997"/>
<path d="M69.6674 41.1918L69.7572 40.2303L67.0998 38.7466L66.7979 39.9691L69.6674 41.1918Z" fill="white"/>
<path d="M70.8551 33.9025C70.8887 33.7768 71.0818 33.8298 71.0499 33.9563C70.4837 36.2015 70.0735 38.4797 69.7259 40.7682C69.7073 40.8903 69.4947 40.8629 69.509 40.7388C69.7753 38.4242 70.2544 36.1522 70.8551 33.9025Z" fill="#254F79"/>
<path d="M78.4076 41.638L80.4614 41.9038L83.1509 42.2536C83.1509 42.2536 83.4235 36.2789 83.0226 35.3741C82.7929 34.8549 81.6368 33.9911 80.757 33.3914C80.2047 33.0113 79.7613 32.7382 79.7275 32.7168C79.7256 32.715 79.7256 32.715 79.7256 32.715L78.9455 38.4184L78.4076 41.638Z" fill="#456997"/>
<path d="M79.6083 35.1029C79.617 35.0761 79.6547 35.0872 79.6498 35.1144C79.2881 37.1457 79.0166 39.1646 79.051 41.2326C79.0538 41.4011 78.7925 41.4011 78.7897 41.2326C78.7552 39.1596 78.9572 37.0791 79.6083 35.1029Z" fill="#254F79"/>
<path d="M83.163 41.9632L83.125 43.0769L78.7834 42.3844L78.7872 41.2324L83.163 41.9632Z" fill="white"/>
<path d="M74.023 35.3334L73.4626 36.2186L70.1025 35.8756C69.6423 35.8285 69.2397 36.1844 69.2286 36.6476L69.2037 40.7615C69.1939 41.1766 69.5044 41.5293 69.9166 41.5714L77.4988 42.3457C77.9151 42.3883 78.2928 42.0996 78.3619 41.6862L79.3266 36.2841C79.4024 35.8313 79.0804 35.4084 78.6245 35.3617L74.7734 34.9684C74.4746 34.9377 74.184 35.0791 74.023 35.3334Z" fill="#FDA859"/>
<path d="M69.7319 36.1901L69.5804 37.6788L75.4625 38.2795L75.614 36.7908L69.7319 36.1901Z" fill="white"/>
<path d="M69.2509 38.7266L64.5382 36.2857C64.1687 36.0942 64.0238 35.639 64.2149 35.2685L66.6514 30.5467C66.8424 30.1764 67.2968 30.0313 67.6665 30.2227L72.3793 32.6637C72.7488 32.8551 72.8936 33.3104 72.7025 33.6808L70.2663 38.4027C70.075 38.7731 69.6206 38.918 69.2509 38.7266Z" fill="url(#paint1_linear_189_183)"/>
<path d="M70.1749 38.483L65.462 36.0419C65.0925 35.8504 64.9476 35.3952 65.1387 35.0248L67.575 30.3029C67.7661 29.9326 68.2205 29.7875 68.5902 29.979L73.3031 32.4199C73.6726 32.6113 73.8173 33.0666 73.6264 33.437L71.1899 38.1589C70.9988 38.5295 70.5444 38.6744 70.1749 38.483Z" fill="#0CC3BE"/>
<path d="M69.1296 35.7724L66.9013 34.6184C66.6983 34.5133 66.6189 34.263 66.7238 34.0597L67.7055 32.157C67.8104 31.9536 68.0602 31.874 68.2632 31.9791L70.4915 33.1332C70.6944 33.2383 70.7739 33.4885 70.669 33.6919L69.6872 35.5946C69.5823 35.7979 69.3326 35.8777 69.1296 35.7724Z" fill="white"/>
<path d="M72.0056 33.7629L69.8228 34.4593L70.5178 36.6462C70.5692 36.8081 70.7902 36.8267 70.8682 36.676L72.2323 34.0323C72.3101 33.8812 72.1671 33.7112 72.0056 33.7629Z" fill="white"/>
<path d="M73.9041 36.2085L73.2947 37.1711L69.6405 36.7979C69.14 36.7468 68.7021 37.1337 68.6903 37.6375L68.6548 42.1931C68.644 42.6445 68.9818 43.0281 69.4301 43.0739L77.6759 43.9161C78.1287 43.9624 78.5394 43.6484 78.6146 43.1989L79.6721 37.2424C79.7546 36.7497 79.4044 36.2898 78.9086 36.2392L74.7205 35.8115C74.3953 35.7782 74.0793 35.9321 73.9041 36.2085Z" fill="#FCC700"/>
<path d="M69.7852 24.898C72.2037 25.8461 76.1133 23.6149 76.1133 23.6149L75.8503 24.6685L76.351 25.0541V27.0221C76.6328 26.4342 77.3751 26.1077 77.3751 26.1077C77.3751 26.1077 77.5054 25.8316 77.6358 25.1974C77.394 25.2943 77.15 25.408 76.8913 25.4523C76.908 25.368 77.1689 24.3819 77.2256 24.3797C76.9795 24.3881 76.7335 24.3944 76.4874 24.403C76.5589 23.9563 76.6326 23.5096 76.7041 23.0629C75.2153 23.4485 73.7241 23.8361 72.2353 24.2238C72.477 23.933 72.719 23.6443 72.9608 23.3557C72.0081 23.4759 71.047 23.5222 70.0859 23.4926C69.8903 23.7877 69.785 24.0173 69.785 24.0173L70.4686 24.1585C70.1364 24.3691 69.7852 24.898 69.7852 24.898Z" fill="#DE624C"/>
<path d="M74.0504 44.11C74.0504 44.11 74.0777 44.1269 74.1282 44.1606L74.1472 44.1733V44.1712C74.7443 44.561 80.9274 49.0343 81.8883 47.8901C82.147 47.5846 82.267 44.9865 82.3216 42.9491H82.3195L80.4583 42.6519L79.9935 42.5783L80.1807 44.5483L79.5623 44.2912L75.1943 42.4771L75.1165 42.4475C75.1081 42.4432 75.1018 42.4391 75.0935 42.4369C75.0808 42.4326 75.0682 42.4263 75.0556 42.4222L74.9189 42.3652C74.9146 42.3652 74.9126 42.361 74.9105 42.361C74.9063 42.3589 74.9042 42.3567 74.9042 42.3567C74.9042 42.3567 74.9042 42.3567 74.9022 42.3567L74.7802 42.6052L74.7319 42.7065L74.7109 42.7507L74.7089 42.7571L74.242 43.7115L74.0844 44.0402L74.0528 44.1035L74.0504 44.11Z" fill="#FFA07F"/>
<path d="M70.0623 40.9485C70.1429 41.0183 70.5563 41.1906 70.5563 41.1906C70.5563 41.1906 70.4692 41.6397 70.4148 41.9493C70.3604 42.2566 70.5563 42.6665 70.5563 42.6665C70.5563 42.6665 70.4779 43.0611 70.5563 43.2922C70.6282 43.5102 71.0742 43.787 71.1286 43.8198C71.1308 43.822 71.1329 43.822 71.1351 43.8241C71.1351 43.8241 72.2883 43.9331 72.6364 43.9331C72.9846 43.9331 74.0486 44.1096 74.0486 44.1096L74.7078 42.758L74.7101 42.7515L74.9037 42.3569C74.9037 42.3569 73.6091 40.9093 73.4199 40.772C73.2305 40.6347 70.3301 40.1573 70.0623 40.24C69.7948 40.3228 69.9797 40.881 70.0623 40.9485Z" fill="#FFA07F"/>
<path d="M74.7084 42.7574L80.2814 45.2921L80.458 42.6519L79.9932 42.5783L79.6019 42.515L79.562 44.2912L75.194 42.4771L75.1162 42.4475C75.1078 42.4432 75.1015 42.4391 75.0931 42.4369C75.0805 42.4326 75.0679 42.4263 75.0552 42.4222L74.9186 42.3652C74.9143 42.3652 74.9123 42.361 74.9102 42.361C74.9059 42.3589 74.9039 42.3567 74.9039 42.3567C74.9039 42.3567 74.9039 42.3567 74.9019 42.3567L74.7715 42.6285L74.7316 42.7065L74.7106 42.7507L74.7084 42.7574Z" fill="#FFBF90"/>
<path d="M70.0626 40.9485C70.1431 41.0183 70.5565 41.1906 70.5565 41.1906C70.5565 41.1906 70.4694 41.6397 70.415 41.9493C70.3606 42.2566 70.5565 42.6665 70.5565 42.6665C70.5565 42.6665 70.4781 43.0611 70.5565 43.2922C70.6284 43.5102 71.0744 43.787 71.1288 43.8198C70.6349 43.4709 70.7959 42.6797 70.7959 42.6797C70.7959 42.6797 70.6064 42.4356 70.5652 42.2546C70.524 42.0735 70.687 41.2278 70.687 41.2278L70.2802 40.8462C70.2802 40.8462 70.1301 40.6021 70.2193 40.4799C70.3064 40.3556 73.1829 41.064 73.2438 41.064C73.3048 41.064 74.7082 42.758 74.7082 42.758L74.7105 42.7515L74.9041 42.3569C74.9041 42.3569 73.6095 40.9093 73.4203 40.772C73.2308 40.6347 70.3305 40.1573 70.0627 40.24C69.795 40.3228 69.9799 40.881 70.0626 40.9485Z" fill="#FFBF90"/>
<path d="M54.3409 29.8014H2.35095V34.0211H54.3409V29.8014Z" fill="#456997"/>
<path d="M45.5297 32.6789C45.9529 32.6789 46.296 32.3352 46.296 31.9111C46.296 31.4871 45.9529 31.1433 45.5297 31.1433C45.1064 31.1433 44.7633 31.4871 44.7633 31.9111C44.7633 32.3352 45.1064 32.6789 45.5297 32.6789Z" fill="#0CC3BE"/>
<path d="M48.6157 32.6789C49.039 32.6789 49.3821 32.3352 49.3821 31.9111C49.3821 31.4871 49.039 31.1433 48.6157 31.1433C48.1925 31.1433 47.8494 31.4871 47.8494 31.9111C47.8494 32.3352 48.1925 32.6789 48.6157 32.6789Z" fill="#FCC700"/>
<path d="M51.7017 32.6789C52.1249 32.6789 52.468 32.3352 52.468 31.9111C52.468 31.4871 52.1249 31.1433 51.7017 31.1433C51.2784 31.1433 50.9353 31.4871 50.9353 31.9111C50.9353 32.3352 51.2784 32.6789 51.7017 32.6789Z" fill="#FF7658"/>
<path d="M19.65 32.8721V47.6476C19.65 48.0179 19.3521 48.3163 18.9826 48.3163H4.72268C4.35482 48.3163 4.0553 48.0179 4.0553 47.6476V32.8721C4.0553 32.5019 4.35501 32.2035 4.72268 32.2035H18.9826C19.3521 32.2035 19.65 32.5019 19.65 32.8721Z" fill="url(#paint2_linear_189_183)"/>
<path d="M20.2088 32.2137V46.9892C20.2088 47.3594 19.911 47.6579 19.5414 47.6579H5.28152C4.91366 47.6579 4.61414 47.3594 4.61414 46.9892V32.2137C4.61414 31.8435 4.91366 31.545 5.28152 31.545H19.5414C19.911 31.545 20.2088 31.8435 20.2088 32.2137Z" fill="white"/>
<path d="M16.4463 32.6508H5.73889V34.0439H16.4463V32.6508Z" fill="#DFDEEE"/>
<path d="M19.0839 33.8465L18.7665 33.5285C18.9069 33.3157 18.8839 33.0258 18.6969 32.8385C18.4833 32.6245 18.1363 32.6247 17.9229 32.8385C17.7095 33.0523 17.7094 33.4002 17.9229 33.6139C18.1099 33.8013 18.3992 33.8244 18.6116 33.6837L18.929 34.0017L19.0839 33.8465ZM18.0776 33.4588C17.9495 33.3306 17.9495 33.1218 18.0776 32.9935C18.2057 32.8651 18.4139 32.8651 18.542 32.9935C18.67 33.1217 18.67 33.3304 18.542 33.4588C18.4141 33.5872 18.2057 33.5872 18.0776 33.4588Z" fill="#DFDEEE"/>
<path d="M12.8433 35.8939H5.73889V36.583H12.8433V35.8939Z" fill="#343C4B"/>
<path d="M16.0579 37.3319H5.73889V38.021H16.0579V37.3319Z" fill="#343C4B"/>
<path d="M17.4838 43.8678H5.73889V44.5569H17.4838V43.8678Z" fill="#0CC3BE"/>
<path d="M11.3353 45.3436H5.73889V46.0327H11.3353V45.3436Z" fill="#0CC3BE"/>
<path d="M19.0838 39.1091H7.05334V39.7983H19.0838V39.1091Z" fill="#DFDEEE"/>
<path d="M6.05847 39.7738C6.23497 39.7738 6.37805 39.6304 6.37805 39.4536C6.37805 39.2768 6.23497 39.1334 6.05847 39.1334C5.88197 39.1334 5.73889 39.2768 5.73889 39.4536C5.73889 39.6304 5.88197 39.7738 6.05847 39.7738Z" fill="#DFDEEE"/>
<path d="M19.0838 40.5851H7.05334V41.2742H19.0838V40.5851Z" fill="#DFDEEE"/>
<path d="M6.05847 41.2496C6.23497 41.2496 6.37805 41.1063 6.37805 40.9294C6.37805 40.7526 6.23497 40.6093 6.05847 40.6093C5.88197 40.6093 5.73889 40.7526 5.73889 40.9294C5.73889 41.1063 5.88197 41.2496 6.05847 41.2496Z" fill="#DFDEEE"/>
<path d="M19.0838 42.0608H7.05334V42.7499H19.0838V42.0608Z" fill="#DFDEEE"/>
<path d="M6.37805 42.4053C6.37805 42.5822 6.23506 42.7255 6.05847 42.7255C5.88206 42.7255 5.73889 42.5822 5.73889 42.4053C5.73889 42.2285 5.88206 42.0851 6.05847 42.0851C6.23506 42.0851 6.37805 42.2285 6.37805 42.4053Z" fill="#DFDEEE"/>
<path d="M57.8968 54.8718H41.5237C41.2223 54.8718 40.9781 55.1165 40.9781 55.4184V66.1634C40.9781 66.4654 41.2223 66.71 41.5237 66.71H57.8968C58.1982 66.71 58.4424 66.4654 58.4424 66.1634V55.4184C58.4424 55.1165 58.1982 54.8718 57.8968 54.8718Z" fill="url(#paint3_linear_189_183)"/>
<path d="M58.38 54.2557H42.0069C41.7055 54.2557 41.4613 54.5004 41.4613 54.8023V65.5473C41.4613 65.8493 41.7055 66.0939 42.0069 66.0939H58.38C58.6814 66.0939 58.9255 65.8493 58.9255 65.5473V54.8023C58.9255 54.5004 58.6814 54.2557 58.38 54.2557Z" fill="white"/>
<path d="M57.8738 63.5146H42.5134V64.9522H57.8738V63.5146Z" fill="#DFDEEE"/>
<path d="M45.624 63.5146H42.5134V64.9522H45.624V63.5146Z" fill="#FF7658"/>
<path d="M57.8738 60.9463H42.5134V62.3839H57.8738V60.9463Z" fill="#DFDEEE"/>
<path d="M55.9901 60.9463H42.5134V62.3839H55.9901V60.9463Z" fill="#0CC3BE"/>
<path d="M57.8738 58.3779H42.5134V59.8155H57.8738V58.3779Z" fill="#DFDEEE"/>
<path d="M48.7345 58.3779H42.5134V59.8155H48.7345V58.3779Z" fill="#FF7658"/>
<path d="M57.8738 55.8094H42.5134V57.247H57.8738V55.8094Z" fill="#DFDEEE"/>
<path d="M53.0985 55.8094H42.5134V57.247H53.0985V55.8094Z" fill="#0CC3BE"/>
<path d="M8.57983 57.4956C7.58377 56.8995 7.16188 55.6986 7.49817 54.6344L6.12218 53.8108C5.34877 55.6391 6.02135 57.8091 7.76909 58.8553C8.74342 59.4385 9.86984 59.5628 10.886 59.2856L10.2136 57.813C9.66818 57.8999 9.09011 57.8009 8.57983 57.4956Z" fill="#414C5B"/>
<path d="M11.0996 53.2701C11.5746 53.5543 11.9202 53.9752 12.1124 54.4556L13.6542 54.0686C13.3565 53.1968 12.7625 52.4206 11.9102 51.9104C10.2547 50.9195 8.16623 51.2598 6.89795 52.6148L8.30643 53.4578C9.08448 52.8388 10.1985 52.7307 11.0996 53.2701Z" fill="#FF7658"/>
<path d="M13.8759 55.4817L12.2415 55.8943C12.1882 56.1503 12.0912 56.4058 11.9484 56.645C11.822 56.8571 11.6705 57.0432 11.4957 57.2006L12.173 58.6834C12.6192 58.3675 13.0088 57.955 13.3055 57.4573C13.6752 56.8372 13.8592 56.158 13.8759 55.4817Z" fill="white"/>
<path d="M27.6328 41.0718L26.6888 42.9347L19.9569 42.8928C19.0349 42.8871 18.3034 43.6696 18.3694 44.5909L19.0993 52.7583C19.1584 53.5837 19.8414 54.2246 20.6671 54.2296L35.8585 54.3241C36.6924 54.3293 37.3873 53.6849 37.4462 52.8514L38.3368 41.9492C38.4012 41.0361 37.6824 40.2582 36.7688 40.2526L29.053 40.2046C28.4538 40.2007 27.904 40.5365 27.6328 41.0718Z" fill="#FDA859"/>
<path d="M19.2865 43.5787L19.2681 46.5618L31.0536 46.635L31.0721 43.6519L19.2865 43.5787Z" fill="white"/>
<path d="M30.6055 35.94L32.723 41.9834C32.8992 42.4865 32.6363 43.0351 32.1371 43.2107L26.8016 45.0874C26.3025 45.263 25.7549 44.9994 25.5786 44.4963L22.8127 36.6023C22.6375 36.1022 22.9004 35.5536 23.3997 35.378L26.8852 34.1521L30.6055 35.94Z" fill="url(#paint4_linear_189_183)"/>
<path d="M31.0264 35.3078L33.1439 41.3511C33.3201 41.8542 33.0572 42.4029 32.558 42.5783L27.2225 44.455C26.7234 44.6306 26.1757 44.367 25.9995 43.8639L23.2336 35.9699C23.0583 35.4698 23.3215 34.9211 23.8206 34.7455L27.3061 33.5197L31.0264 35.3078Z" fill="white"/>
<path d="M31.0263 35.3078L28.2718 36.2765L27.3058 33.5197L31.0263 35.3078Z" fill="#DFDEEE"/>
<path d="M31.1652 38.6523L26.8661 40.1643L27.0653 40.7329L31.3644 39.2209L31.1652 38.6523Z" fill="#343C4B"/>
<path d="M31.526 39.6831L27.2269 41.1951L27.4261 41.7636L31.7252 40.2516L31.526 39.6831Z" fill="#343C4B"/>
<path d="M31.8872 40.7132L27.5881 42.2252L27.7873 42.7938L32.0864 41.2818L31.8872 40.7132Z" fill="#343C4B"/>
<path d="M26.5246 40.6055C26.5795 40.7625 26.4971 40.9344 26.3404 40.9895C26.1836 41.0445 26.0121 40.9619 25.9571 40.8049C25.9021 40.6479 25.9846 40.476 26.1413 40.4209C26.2978 40.366 26.4696 40.4486 26.5246 40.6055Z" fill="#343C4B"/>
<path d="M26.8857 41.6363C26.9406 41.7933 26.8582 41.9652 26.7015 42.0203C26.5447 42.0754 26.3731 41.9928 26.3182 41.8358C26.2632 41.6787 26.3457 41.5068 26.5024 41.4518C26.6591 41.3967 26.8307 41.4793 26.8857 41.6363Z" fill="#343C4B"/>
<path d="M27.2466 42.6667C27.3015 42.8237 27.2191 42.9956 27.0624 43.0507C26.9056 43.1058 26.734 43.0232 26.6789 42.8662C26.6239 42.7091 26.7064 42.5372 26.8631 42.4822C27.0198 42.4271 27.1914 42.5097 27.2466 42.6667Z" fill="#343C4B"/>
<path d="M26.5663 37.6328L25.0309 38.1729L25.5699 39.7112L27.1053 39.1712L26.5663 37.6328Z" fill="#0CC3BE"/>
<path d="M27.5629 42.8311L26.5362 44.857L19.2149 44.8114C18.2122 44.8051 17.4167 45.6561 17.4885 46.6581L18.2814 55.7039C18.3457 56.6014 19.0885 57.2983 19.9865 57.3041L36.5076 57.4068C37.4145 57.4124 38.1701 56.7115 38.2341 55.8051L39.2038 43.7853C39.274 42.7922 38.4923 41.9465 37.4986 41.9401L29.1075 41.8878C28.4559 41.8839 27.858 42.249 27.5629 42.8311Z" fill="#FCC700"/>
<path d="M45.5577 35.2466L42.6188 40.9511C42.374 41.4261 41.7941 41.6114 41.3228 41.3679L36.2863 38.7634C35.815 38.5197 35.63 37.9387 35.8746 37.4637L39.7134 30.0121C39.9567 29.5399 40.5366 29.3544 41.0079 29.5982L44.298 31.2996L45.5577 35.2466Z" fill="url(#paint5_linear_189_183)"/>
<path d="M46.189 35.0356L43.2503 40.7402C43.0055 41.2152 42.4256 41.4005 41.9543 41.1569L36.9178 38.5525C36.4465 38.3087 36.2615 37.7277 36.5061 37.2527L40.3449 29.8012C40.5882 29.329 41.1681 29.1435 41.6394 29.3872L44.9295 31.0886L46.189 35.0356Z" fill="white"/>
<path d="M46.1891 35.0356L43.5889 33.6911L44.9296 31.0886L46.1891 35.0356Z" fill="#DFDEEE"/>
<path d="M42.6546 33.3138L40.2581 32.0743L39.5098 33.5267L41.9063 34.7662L42.6546 33.3138Z" fill="#FF7658"/>
<path d="M44.2712 36.6495L39.2411 34.048L38.9817 34.5514L44.0118 37.1529L44.2712 36.6495Z" fill="#DFDEEE"/>
<path d="M43.7797 37.6039L38.7496 35.0024L38.4903 35.5058L43.5203 38.1073L43.7797 37.6039Z" fill="#DFDEEE"/>
<path d="M43.2875 38.5587L38.2574 35.9572L37.9981 36.4606L43.0281 39.0621L43.2875 38.5587Z" fill="#DFDEEE"/>
<path d="M42.7959 39.5134L37.7659 36.9119L37.5065 37.4153L42.5366 40.0168L42.7959 39.5134Z" fill="#DFDEEE"/>
<path d="M41.0797 31.6173C41.0138 31.7451 40.8571 31.7954 40.7295 31.7293C40.6019 31.6633 40.552 31.5063 40.6177 31.3784C40.6836 31.2506 40.8403 31.2006 40.9679 31.2664C41.0955 31.3323 41.1456 31.4895 41.0797 31.6173Z" fill="#343C4B"/>
<path d="M41.9346 32.0593C41.8687 32.1872 41.712 32.2372 41.5844 32.1713C41.4569 32.1053 41.4067 31.9483 41.4726 31.8205C41.5386 31.6926 41.6953 31.6426 41.8229 31.7085C41.9504 31.7743 42.0004 31.9315 41.9346 32.0593Z" fill="#343C4B"/>
<path d="M26.3699 35.1572C26.3289 35.1572 26.2897 35.133 26.2728 35.0925C26.2045 34.9284 26.143 34.7585 26.0903 34.5877C26.0732 34.5321 26.1042 34.4731 26.1597 34.456C26.2151 34.4385 26.2741 34.47 26.2912 34.5256C26.3419 34.6901 26.4011 34.8534 26.4669 35.0114C26.4893 35.0651 26.4639 35.1267 26.4104 35.149C26.3972 35.1544 26.3835 35.1572 26.3699 35.1572Z" fill="white"/>
<path d="M25.9732 33.6246C25.9205 33.6246 25.875 33.5851 25.8688 33.5314C25.8425 33.3035 25.8291 33.0715 25.8291 32.8419C25.8291 32.7122 25.8334 32.5827 25.8415 32.453C25.8453 32.395 25.8965 32.3487 25.9533 32.3546C26.0113 32.3583 26.0553 32.4086 26.0516 32.4666C26.0434 32.5918 26.0395 32.7169 26.0395 32.8419C26.0395 33.0633 26.0525 33.2871 26.0777 33.5072C26.0844 33.565 26.0432 33.6173 25.9855 33.624C25.9812 33.6244 25.9771 33.6246 25.9732 33.6246ZM26.1106 31.5181C26.1021 31.5181 26.0935 31.517 26.0848 31.5148C26.0283 31.5007 25.9944 31.4434 26.0085 31.387C26.0874 31.0728 26.1929 30.7658 26.3217 30.4742C26.3372 30.4393 26.3529 30.4043 26.3691 30.3695C26.3938 30.3168 26.4564 30.2938 26.5089 30.3187C26.5617 30.3434 26.5843 30.406 26.5598 30.4588C26.5442 30.4923 26.529 30.5256 26.5139 30.5594C26.3899 30.8402 26.2885 31.136 26.2124 31.4385C26.2005 31.4863 26.1576 31.5181 26.1106 31.5181ZM32.3191 31.1001C32.1692 31.1001 32.0194 31.0759 31.8736 31.0281C31.8184 31.0101 31.7884 30.9503 31.8064 30.8953C31.8244 30.8398 31.8834 30.8097 31.939 30.8277C32.0935 30.8783 32.2515 30.8988 32.4112 30.886C32.5742 30.8731 32.7332 30.8266 32.8838 30.7477C32.9354 30.7215 32.9987 30.7407 33.0256 30.7924C33.0526 30.8439 33.0327 30.9075 32.9813 30.9345C32.8052 31.0266 32.6188 31.0809 32.4275 31.0958C32.3915 31.0986 32.3553 31.1001 32.3191 31.1001ZM31.0796 30.3983C31.0469 30.3983 31.0148 30.3831 30.994 30.3546C30.7761 30.0506 30.6371 29.6839 30.6027 29.3224C30.5971 29.2644 30.6397 29.213 30.6974 29.2074C30.7568 29.203 30.8066 29.2445 30.812 29.3023C30.843 29.6275 30.9683 29.9574 31.165 30.2316C31.199 30.2789 31.188 30.3448 31.141 30.3788C31.1223 30.392 31.1007 30.3983 31.0796 30.3983ZM33.6483 30.1877C33.6328 30.1877 33.6171 30.1842 33.6022 30.1769C33.55 30.1514 33.5285 30.0882 33.5539 30.0359C33.6646 29.8091 33.7231 29.5626 33.7231 29.3235C33.7231 29.275 33.7207 29.2262 33.7159 29.1777C33.7121 29.1408 33.7071 29.104 33.701 29.0675C33.6915 29.01 33.7301 28.9557 33.7873 28.946C33.8442 28.9356 33.8988 28.9751 33.9084 29.0326C33.9153 29.0735 33.9207 29.1148 33.9251 29.1565C33.9307 29.2123 33.9335 29.2679 33.9335 29.3235C33.9335 29.5946 33.8676 29.8729 33.743 30.1286C33.7246 30.166 33.6873 30.1877 33.6483 30.1877ZM27.0008 29.6063C26.9797 29.6063 26.9579 29.6 26.9394 29.5864C26.8922 29.5526 26.8816 29.4867 26.9156 29.4393C27.1252 29.1483 27.3629 28.8746 27.6225 28.6255C27.6643 28.5853 27.7308 28.5866 27.7713 28.6288C27.8114 28.6709 27.8099 28.7375 27.7679 28.7779C27.5176 29.018 27.2881 29.2822 27.0861 29.5628C27.0656 29.5913 27.0335 29.6063 27.0008 29.6063ZM40.2833 29.3611C40.2424 29.3611 40.2038 29.3373 40.1867 29.2973C40.0508 28.9799 39.8836 28.6726 39.69 28.3836C39.6577 28.3354 39.6705 28.27 39.7186 28.2376C39.7667 28.2048 39.832 28.2179 39.8645 28.2664C40.0654 28.566 40.2389 28.885 40.38 29.2141C40.4028 29.2677 40.3783 29.3295 40.3249 29.3524C40.3111 29.3585 40.297 29.3611 40.2833 29.3611ZM30.8877 28.3829C30.8738 28.3829 30.8599 28.3803 30.8465 28.3745C30.793 28.3516 30.7683 28.2897 30.791 28.2363C30.9267 27.9176 31.1297 27.6115 31.3945 27.3265C31.4342 27.2841 31.5007 27.2817 31.5432 27.3211C31.5858 27.3607 31.5882 27.4275 31.5486 27.4701C31.3005 27.7373 31.1108 28.0229 30.9847 28.3189C30.9674 28.3589 30.9284 28.3829 30.8877 28.3829ZM33.3606 28.2056C33.3302 28.2056 33.2999 28.1924 33.2791 28.1671C33.0687 27.9098 32.7956 27.6932 32.4892 27.5405C32.4372 27.5148 32.416 27.4513 32.4418 27.3993C32.4676 27.3472 32.5306 27.3256 32.5828 27.352C32.9155 27.5176 33.2126 27.7533 33.4416 28.0333C33.4783 28.0783 33.4719 28.1449 33.4269 28.1818C33.4076 28.1978 33.384 28.2056 33.3606 28.2056ZM28.5216 28.1453C28.4875 28.1453 28.4541 28.1286 28.4338 28.098C28.4019 28.0495 28.4151 27.9842 28.4635 27.9522C28.7651 27.7526 29.0847 27.5812 29.4135 27.4432C29.467 27.4208 29.5287 27.4461 29.5511 27.4995C29.5736 27.5533 29.5485 27.6149 29.4949 27.6374C29.1783 27.7706 28.87 27.9356 28.5794 28.128C28.5618 28.1397 28.5415 28.1453 28.5216 28.1453ZM39.1086 27.6093C39.0815 27.6093 39.0543 27.5989 39.0335 27.5779C38.7886 27.3287 38.5212 27.104 38.2388 26.9099C38.1909 26.877 38.1786 26.8115 38.2115 26.7637C38.2443 26.7155 38.3097 26.7032 38.3576 26.7364C38.6512 26.9379 38.929 27.1713 39.1834 27.4301C39.2241 27.4714 39.2235 27.5382 39.1823 27.5792C39.162 27.5991 39.1353 27.6093 39.1086 27.6093ZM30.4653 27.3358C30.4157 27.3358 30.3717 27.3006 30.3621 27.2502C30.3511 27.1931 30.3886 27.1379 30.4458 27.1269C30.7074 27.077 30.9656 27.0517 31.2133 27.0517C31.2142 27.0517 31.2151 27.0517 31.2162 27.0517C31.3208 27.0517 31.4251 27.0562 31.5289 27.0655C31.5869 27.0707 31.6294 27.1219 31.6244 27.1799C31.6192 27.2378 31.5698 27.2787 31.5104 27.2753C31.4127 27.2664 31.3145 27.2623 31.2162 27.2623C31.2153 27.2623 31.2144 27.2623 31.2133 27.2623C30.9787 27.2623 30.7336 27.2863 30.485 27.3338C30.4785 27.3352 30.4718 27.3358 30.4653 27.3358ZM32.2866 26.8299C32.2518 26.8299 32.2181 26.8128 32.1978 26.7814C32.1666 26.7325 32.1809 26.6672 32.2297 26.6359C32.2713 26.6091 32.3131 26.5834 32.3553 26.5585C32.619 26.4015 32.9018 26.2653 33.1955 26.1535C33.2496 26.1339 33.3105 26.1602 33.3311 26.2145C33.3517 26.269 33.3244 26.3297 33.27 26.3505C32.9876 26.4578 32.7159 26.5888 32.4622 26.7397C32.4219 26.7635 32.3822 26.7881 32.3428 26.8132C32.3256 26.8247 32.3061 26.8299 32.2866 26.8299ZM37.3701 26.4206C37.3564 26.4206 37.3426 26.418 37.3293 26.4125C37.0143 26.28 36.6808 26.1771 36.3384 26.1072C36.2816 26.0954 36.2448 26.0398 36.2565 25.9829C36.2682 25.9256 36.3237 25.8893 36.3806 25.9006C36.7365 25.9734 37.0832 26.0805 37.411 26.2184C37.4644 26.2411 37.4897 26.3027 37.4672 26.3563C37.4501 26.3965 37.4111 26.4206 37.3701 26.4206ZM34.2532 26.0791C34.2029 26.0791 34.1585 26.0428 34.1498 25.9916C34.14 25.9345 34.1782 25.8798 34.2354 25.8698C34.5619 25.8132 34.8957 25.7845 35.2281 25.7845L35.3095 25.7851C35.3674 25.7858 35.4138 25.8338 35.4129 25.8921C35.412 25.9503 35.3717 25.9983 35.3061 25.9957L35.228 25.9952C34.9076 25.9952 34.5858 26.0227 34.2713 26.0774C34.2653 26.0787 34.2592 26.0791 34.2532 26.0791Z" fill="white"/>
<path d="M40.6915 30.9107C40.6384 30.9107 40.5929 30.8705 40.5871 30.8168C40.5689 30.6469 40.5418 30.4752 40.5065 30.3064C40.4946 30.2495 40.531 30.1937 40.5879 30.1818C40.6447 30.1691 40.7004 30.2064 40.7123 30.2633C40.749 30.4387 40.7773 30.6173 40.7962 30.7944C40.8023 30.8523 40.7606 30.904 40.7028 30.9104C40.6989 30.9105 40.6952 30.9107 40.6915 30.9107Z" fill="white"/>
<path d="M48.3199 50.2219C48.3182 50.2219 48.3163 50.2219 48.3147 50.2217C47.9531 50.204 47.597 50.1597 47.2562 50.09C47.1994 50.0782 47.1626 50.0226 47.1743 49.9657C47.186 49.9086 47.2421 49.8715 47.2984 49.8834C47.6287 49.9512 47.9741 49.9941 48.3251 50.0114C48.383 50.0141 48.4278 50.0637 48.425 50.1218C48.422 50.178 48.3756 50.2219 48.3199 50.2219ZM49.3701 50.201C49.3161 50.201 49.2701 50.1597 49.2656 50.1047C49.2606 50.0466 49.3035 49.9956 49.3614 49.9906C49.6996 49.9616 50.045 49.9102 50.3883 49.8377C50.4447 49.8252 50.5008 49.862 50.5129 49.919C50.525 49.9759 50.4884 50.0319 50.4318 50.0438C50.0802 50.1179 49.7263 50.1707 49.3794 50.2005C49.3763 50.2008 49.3731 50.201 49.3701 50.201ZM46.2693 49.7967C46.2564 49.7967 46.2436 49.7945 46.2312 49.7895C45.8955 49.6587 45.5737 49.4978 45.2745 49.3114C45.2253 49.2805 45.2101 49.2155 45.2409 49.166C45.2715 49.1169 45.3365 49.1019 45.3857 49.1324C45.6739 49.3119 45.984 49.4671 46.3075 49.5932C46.3617 49.6142 46.3885 49.6753 46.3673 49.7296C46.3511 49.7713 46.3114 49.7967 46.2693 49.7967ZM51.4243 49.7711C51.3803 49.7711 51.3392 49.7432 51.3244 49.6991C51.3062 49.6438 51.3359 49.5841 51.391 49.5657C51.7179 49.4568 52.043 49.3277 52.3574 49.1826C52.4103 49.158 52.4727 49.1813 52.4968 49.2343C52.5212 49.287 52.4981 49.3495 52.4454 49.374C52.124 49.5225 51.7914 49.6546 51.4573 49.7659C51.4464 49.7694 51.4352 49.7711 51.4243 49.7711ZM53.3313 48.8922C53.2953 48.8922 53.2602 48.8736 53.2407 48.8403C53.2112 48.7902 53.2279 48.7257 53.2779 48.6961C53.5688 48.524 53.8632 48.3329 54.1525 48.1279C54.1996 48.0942 54.2656 48.1056 54.299 48.153C54.3326 48.2005 54.3213 48.2663 54.2737 48.3C53.9798 48.5082 53.6804 48.7026 53.3846 48.8777C53.3679 48.8875 53.3495 48.8922 53.3313 48.8922ZM44.4916 48.6937C44.4667 48.6937 44.4417 48.6847 44.4214 48.6669C44.1689 48.4405 43.9262 48.1904 43.6794 47.902C43.6417 47.8579 43.6467 47.7915 43.6907 47.7536C43.7347 47.7164 43.8014 47.721 43.8389 47.7651C44.0798 48.0462 44.3161 48.2898 44.5618 48.5099C44.6051 48.5487 44.6088 48.6153 44.57 48.6587C44.5492 48.6818 44.5204 48.6937 44.4916 48.6937ZM55.0492 47.6808C55.0187 47.6808 54.9885 47.6676 54.9677 47.6421C54.9309 47.5971 54.9376 47.5307 54.9825 47.4939C55.2399 47.2834 55.5054 47.0524 55.7719 46.8075C55.8146 46.7683 55.8811 46.7709 55.9205 46.8139C55.9596 46.8566 55.9569 46.9232 55.914 46.9627C55.6445 47.2103 55.3758 47.444 55.1155 47.6572C55.0962 47.673 55.0726 47.6808 55.0492 47.6808ZM43.114 47.1076C43.0811 47.1076 43.0488 47.0922 43.0282 47.0633C42.8447 46.8057 42.6575 46.5262 42.439 46.1843C42.4078 46.1353 42.4221 46.07 42.4709 46.0388C42.5199 46.0073 42.5847 46.0215 42.6163 46.0708C42.8328 46.4099 43.018 46.6864 43.1996 46.9411C43.2332 46.9884 43.2222 47.0542 43.1751 47.0881C43.1565 47.1011 43.1351 47.1076 43.114 47.1076ZM56.6014 46.2604C56.5745 46.2604 56.5477 46.2501 56.5271 46.2297C56.4859 46.1885 56.4859 46.1219 56.5269 46.0805C56.7615 45.8449 56.9993 45.5973 57.2539 45.3242C57.2937 45.2816 57.3601 45.2795 57.4027 45.319C57.445 45.3586 57.4472 45.4254 57.4077 45.4678C57.1516 45.743 56.9122 45.9919 56.6759 46.2293C56.6552 46.2501 56.6283 46.2604 56.6014 46.2604ZM41.9703 45.3389C41.935 45.3389 41.9006 45.3212 41.8808 45.2888C41.7059 45.0053 41.519 44.703 41.3241 44.396C41.2929 44.3469 41.3074 44.2817 41.3564 44.2505C41.4056 44.2194 41.4704 44.2337 41.5016 44.2829C41.6969 44.5908 41.8845 44.8938 42.0598 45.1781C42.0902 45.2274 42.075 45.2925 42.0256 45.3232C42.0083 45.3337 41.9892 45.3389 41.9703 45.3389ZM58.0398 44.7231C58.0147 44.7231 57.9896 44.7143 57.9696 44.6961C57.9263 44.6574 57.9226 44.5908 57.9614 44.5472C58.1954 44.2857 58.4271 44.0224 58.6576 43.7591C58.696 43.7152 58.7623 43.7111 58.8061 43.7495C58.8498 43.788 58.854 43.8544 58.8158 43.8983C58.5848 44.1619 58.3525 44.4257 58.1181 44.6881C58.0973 44.7111 58.0686 44.7231 58.0398 44.7231ZM40.834 43.5647C40.8006 43.5647 40.7675 43.5487 40.7473 43.519C40.5271 43.198 40.3256 42.9212 40.1308 42.6736C40.095 42.6276 40.1028 42.5614 40.1484 42.5256C40.1943 42.4894 40.2602 42.4977 40.2961 42.5431C40.4935 42.7949 40.6977 43.0749 40.9206 43.3997C40.9534 43.4477 40.9413 43.5134 40.8934 43.5461C40.8752 43.5588 40.8544 43.5647 40.834 43.5647ZM59.4308 43.1431C59.4061 43.1431 59.3812 43.1346 59.3612 43.1167C59.3177 43.078 59.3134 43.0116 59.3521 42.9679C59.5842 42.7046 59.8183 42.4421 60.0549 42.182C60.0941 42.1389 60.1608 42.1357 60.2035 42.1751C60.2464 42.2142 60.2495 42.281 60.2103 42.324C59.9743 42.5833 59.7411 42.8449 59.5095 43.1072C59.4887 43.131 59.4598 43.1431 59.4308 43.1431ZM33.33 42.0196C33.3057 42.0196 33.2813 42.0112 33.2615 41.9943C33.2175 41.9562 33.2124 41.8897 33.2501 41.8458C33.3044 41.7822 33.369 41.7206 33.4416 41.6628C33.4873 41.6261 33.5534 41.6341 33.5894 41.6797C33.6256 41.7253 33.618 41.7917 33.5727 41.8278C33.5103 41.8775 33.4555 41.9297 33.4098 41.9829C33.389 42.0069 33.3595 42.0196 33.33 42.0196ZM39.5165 41.9247C39.4902 41.9247 39.4638 41.9149 39.4434 41.8951C39.4146 41.8672 39.3858 41.8401 39.3572 41.8135C39.1869 41.6566 38.9244 41.5208 38.5769 41.4099C38.5216 41.3922 38.4911 41.3329 38.5086 41.2776C38.5262 41.222 38.5849 41.1919 38.6408 41.2092C39.0176 41.3294 39.3065 41.4806 39.4996 41.6585C39.5295 41.686 39.5594 41.7145 39.5895 41.7437C39.6313 41.7842 39.6324 41.8509 39.5919 41.8927C39.5715 41.9139 39.544 41.9247 39.5165 41.9247ZM60.8504 41.5887C60.8242 41.5887 60.7979 41.579 60.7774 41.5593C60.7357 41.5189 60.7344 41.4523 60.7745 41.4103C61.0331 41.1407 61.277 40.8959 61.5198 40.6616C61.5618 40.6216 61.6283 40.6228 61.6686 40.6646C61.7089 40.7067 61.7076 40.7733 61.6656 40.8136C61.4248 41.0458 61.1828 41.2888 60.926 41.5565C60.9056 41.5777 60.8781 41.5887 60.8504 41.5887ZM34.4514 41.401C34.4059 41.401 34.3639 41.3714 34.3506 41.3255C34.3342 41.2696 34.366 41.211 34.4217 41.1947C34.7336 41.1026 35.0863 41.0324 35.4699 40.9868C35.5277 40.9785 35.5798 41.0211 35.5867 41.0788C35.5936 41.1366 35.5524 41.1891 35.4948 41.1958C35.1228 41.2402 34.7819 41.308 34.4813 41.3965C34.4713 41.3995 34.461 41.401 34.4514 41.401ZM37.5809 41.2001C37.5766 41.2001 37.5723 41.1999 37.5679 41.1991C37.2358 41.158 36.8871 41.1368 36.5315 41.1364C36.4734 41.1364 36.4264 41.0892 36.4264 41.0309C36.4266 40.9729 36.4736 40.9258 36.5315 40.9258H36.5317C36.8958 40.9262 37.2531 40.9478 37.5937 40.9902C37.6512 40.9975 37.6923 41.0499 37.685 41.1078C37.6785 41.1608 37.6332 41.2001 37.5809 41.2001ZM62.3679 40.1312C62.3386 40.1312 62.3094 40.1189 62.2886 40.0949C62.2506 40.0508 62.2552 39.9844 62.299 39.9463C62.5729 39.7076 62.8487 39.4821 63.1185 39.2758C63.1647 39.2402 63.2306 39.2492 63.2659 39.2955C63.3012 39.3418 63.2923 39.4079 63.2461 39.4432C62.9798 39.6469 62.7075 39.8696 62.437 40.1052C62.4171 40.1228 62.3924 40.1312 62.3679 40.1312ZM64.041 38.8574C64.0067 38.8574 63.9729 38.8404 63.9526 38.8094C63.921 38.7606 63.9348 38.6953 63.9834 38.6637C64.2581 38.4849 64.5381 38.3176 64.8161 38.1669L64.8967 38.1238C64.9479 38.096 65.0116 38.116 65.0387 38.1675C65.066 38.2188 65.0465 38.2827 64.9953 38.3098L64.9165 38.3522C64.6432 38.5003 64.368 38.6646 64.0982 38.8402C64.0806 38.8518 64.0607 38.8574 64.041 38.8574ZM65.8968 37.8732C65.8556 37.8732 65.8166 37.8486 65.7997 37.808C65.7774 37.7543 65.8029 37.6927 65.8565 37.6704C66.1806 37.5359 66.5165 37.4144 66.8546 37.3096C66.91 37.2923 66.969 37.3236 66.9861 37.3792C67.0032 37.4348 66.9722 37.4938 66.9166 37.5109C66.5848 37.6138 66.2552 37.7329 65.9371 37.865C65.9239 37.8707 65.9104 37.8732 65.8968 37.8732ZM73.1138 37.3515C73.105 37.3515 73.0961 37.3504 73.0874 37.3481C72.7541 37.2622 72.4111 37.1907 72.068 37.1364C72.0106 37.1271 71.9714 37.0732 71.9805 37.0159C71.9896 36.9584 72.0438 36.9202 72.1006 36.9282C72.4503 36.9839 72.8 37.0564 73.1396 37.144C73.1959 37.1587 73.2298 37.216 73.2153 37.2724C73.2033 37.32 73.1606 37.3515 73.1138 37.3515ZM67.903 37.2508C67.8544 37.2508 67.8108 37.2168 67.8002 37.1673C67.7881 37.1106 67.8245 37.0546 67.8813 37.0425C68.2256 36.9693 68.5777 36.9111 68.9279 36.8696C68.9864 36.8611 69.0378 36.904 69.0447 36.9617C69.0514 37.0196 69.0103 37.0719 68.9528 37.0786C68.6089 37.1195 68.2631 37.1766 67.925 37.2484C67.9177 37.2501 67.9103 37.2508 67.903 37.2508ZM71.0398 37.0218C71.0375 37.0218 71.0353 37.0218 71.0331 37.0216C70.6877 36.9995 70.3377 36.9932 69.9917 37.0026C69.9238 37.0028 69.8853 36.9582 69.8836 36.9001C69.8822 36.8419 69.9278 36.7935 69.986 36.7919C70.3388 36.7824 70.6949 36.7887 71.0465 36.8112C71.1044 36.8149 71.1484 36.8652 71.1447 36.9232C71.141 36.979 71.0947 37.0218 71.0398 37.0218Z" fill="white"/>
<path d="M58.5926 48.7377L51.6997 52.8775C51.4093 53.052 51.0327 52.9575 50.8585 52.6665L47.1827 46.5229C47.0085 46.2319 47.1029 45.8546 47.3933 45.6801L54.2862 41.5403C54.5767 41.3658 54.9532 41.4603 55.1274 41.7513L58.8032 47.8949C58.9774 48.1859 58.8831 48.5632 58.5926 48.7377Z" fill="url(#paint6_linear_189_183)"/>
<path d="M58.803 47.8944L51.91 52.0341C51.6196 52.2086 51.243 52.1141 51.0688 51.8231L47.3931 45.6795C47.2189 45.3885 47.3132 45.0112 47.6036 44.8367L54.4966 40.6969C54.787 40.5224 55.1636 40.6169 55.3377 40.9079L59.0135 47.0516C59.1877 47.3425 59.0934 47.7198 58.803 47.8944Z" fill="#343C4B"/>
<path d="M55.0341 41.404L58.4345 47.0875C58.5528 47.2851 58.4863 47.5391 58.2889 47.6576L51.9442 51.4682C51.747 51.5867 51.492 51.5259 51.3737 51.3281L47.9733 45.6447C47.855 45.4472 47.9195 45.1895 48.1167 45.0712L54.4614 41.2605C54.6588 41.1418 54.9158 41.2064 55.0341 41.404Z" fill="white"/>
<path d="M57.4305 47.1436L57.8836 47.9011L52.5873 51.082L53.134 46.2366L54.3959 46.5034L57.4305 47.1436Z" fill="#0797A7"/>
<path d="M57.8477 46.1067L58.4345 47.0875C58.5528 47.2851 58.4863 47.5391 58.2889 47.6576L53.9716 50.2505L54.3959 46.5033L54.5182 45.4049L57.8477 46.1067Z" fill="#0CC3BE"/>
<path d="M52.1743 45.3255C52.5774 45.9991 52.359 46.8728 51.6867 47.2765C51.0143 47.6805 50.1423 47.4617 49.7391 46.788C49.336 46.1143 49.5543 45.2406 50.2267 44.8369C50.8993 44.433 51.7711 44.6518 52.1743 45.3255Z" fill="#FDA859"/>
<path d="M56.7821 39.2778L50.7545 37.2385C50.3486 37.1012 50.1307 36.6603 50.2678 36.2536L52.3032 30.2145C52.4402 29.8078 52.8803 29.5895 53.2862 29.7269L59.3138 31.7661C59.7198 31.9034 59.9376 32.3443 59.8005 32.751L57.7651 38.7901C57.6281 39.1968 57.188 39.4151 56.7821 39.2778Z" fill="url(#paint7_linear_189_183)"/>
<path d="M57.5386 38.9527L51.511 36.9134C51.105 36.7761 50.8872 36.3352 51.0243 35.9285L53.0596 29.8894C53.1967 29.4827 53.6368 29.2645 54.0427 29.4018L60.0703 31.441C60.4762 31.5783 60.694 32.0193 60.557 32.426L58.5216 38.4651C58.3844 38.8716 57.9443 39.09 57.5386 38.9527Z" fill="#FF7658"/>
<path d="M54.8749 35.1401C54.8272 34.7607 54.3035 34.5144 53.7056 34.5899C53.1075 34.6654 52.6614 35.0344 52.7093 35.4137C52.7571 35.7931 53.2807 36.0394 53.8786 35.9639C54.4766 35.8883 54.9226 35.5196 54.8749 35.1401Z" fill="white"/>
<path d="M55.8346 32.4256L55.2162 32.2164L54.2304 35.1413L54.8488 35.3505L55.8346 32.4256Z" fill="white"/>
<path d="M57.4614 35.6668C57.4136 35.2874 56.89 35.0411 56.292 35.1166C55.6939 35.1922 55.2479 35.5611 55.2956 35.9405C55.3433 36.3198 55.867 36.5661 56.4649 36.4906C57.0632 36.4151 57.5091 36.0461 57.4614 35.6668Z" fill="white"/>
<path d="M58.4215 32.9522L57.8031 32.743L56.8174 35.6679L57.4357 35.8771L58.4215 32.9522Z" fill="white"/>
<path d="M55.2178 32.2207L58.5722 32.5139L58.2498 33.4704L54.9138 33.1228L55.2178 32.2207Z" fill="white"/>
<path d="M67.0402 26.2819L61.7361 29.216C61.3632 29.4224 60.8942 29.2867 60.6884 28.9131L57.7599 23.5989C57.5541 23.2253 57.6893 22.7554 58.0622 22.549L63.3663 19.6149C63.7392 19.4085 64.2082 19.5442 64.4142 19.9178L67.3427 25.232C67.5485 25.6056 67.4131 26.0757 67.0402 26.2819Z" fill="url(#paint8_linear_189_183)"/>
<path d="M67.2505 25.4385L61.9464 28.3727C61.5735 28.579 61.1045 28.4434 60.8987 28.0698L57.9702 22.7555C57.7642 22.382 57.8996 21.912 58.2725 21.7057L63.5766 18.7715C63.9495 18.5654 64.4185 18.7008 64.6243 19.0744L67.5528 24.3887C67.7588 24.7623 67.6234 25.2324 67.2505 25.4385Z" fill="#FCC700"/>
<path d="M63.9816 25.786C62.7633 26.4601 61.2248 26.0152 60.5521 24.7946C59.8793 23.5739 60.3233 22.0323 61.5416 21.3585C62.76 20.6844 64.2984 21.1293 64.9712 22.3499C65.644 23.5706 65.2 25.112 63.9816 25.786ZM61.7448 21.7272C60.7294 22.2889 60.3595 23.5735 60.9201 24.5909C61.4807 25.6082 62.7629 25.9788 63.7783 25.4171C64.7937 24.8554 65.1636 23.5708 64.603 22.5534C64.0424 21.5361 62.7602 21.1655 61.7448 21.7272Z" fill="white"/>
<path d="M61.4393 22.9596L62.5745 25.0195C62.6237 25.1088 62.7516 25.109 62.8012 25.0201L63.8844 23.077C63.9312 22.9931 63.8738 22.8889 63.778 22.8839L61.5597 22.767C61.4581 22.7618 61.3901 22.8703 61.4393 22.9596Z" fill="white"/>
<path d="M46.8759 52.6865C43.1619 54.1632 39.0356 53.6077 35.8381 51.2L37.761 48.6361C40.8442 52.5611 46.8759 52.6865 46.8759 52.6865Z" fill="#343C4B"/>
<path d="M39.5786 47.7577L32.2773 46.9899L35.2635 53.7093L39.5786 47.7577Z" fill="#343C4B"/>
<path d="M41.0334 25.8078C42.5494 22.1038 45.8121 19.5124 49.7612 18.8765L50.2694 22.0428C45.3094 21.5436 41.0334 25.8078 41.0334 25.8078Z" fill="#343C4B"/>
<path d="M49.6394 23.964L55.2575 19.2295L48.3564 16.7208L49.6394 23.964Z" fill="#343C4B"/>
<path d="M66.72 6.37591C66.5712 6.37591 66.426 6.3906 66.2832 6.41181C65.5534 4.86911 63.9854 3.80176 62.1683 3.80176C60.0746 3.80176 58.3123 5.21851 57.7813 7.14689C57.6043 7.10763 57.421 7.08531 57.2322 7.08531C55.8356 7.08531 54.7034 8.21964 54.7034 9.6189C53.9549 9.6189 53.348 10.2269 53.348 10.9769C53.348 11.0816 53.361 11.183 53.3833 11.2809H55.3266H56.0235H58.6713H59.1377H64.4985H65.6652H68.9416C69.396 10.7605 69.6736 10.0809 69.6736 9.33499C69.6736 7.70075 68.3511 6.37591 66.72 6.37591Z" fill="#50AA9E"/>
<path d="M60.8742 13.3046H63.2258V8.96055H64.5117L62.05 6.12854L59.5883 8.96055H60.8742V13.3046Z" fill="white"/>
<path d="M81.7103 24.6623L81.4933 24.0186L81.2762 24.6623C80.9967 25.4911 80.4163 26.1843 79.6503 26.6041C80.4164 27.0238 80.9967 27.717 81.2762 28.5458L81.4933 29.1896L81.7103 28.5458C81.9898 27.717 82.5703 27.0238 83.3363 26.6041C82.5701 26.1843 81.9898 25.4911 81.7103 24.6623Z" fill="#FDA859"/>
<path d="M84.4296 28.8392L84.279 28.3927L84.1284 28.8392C83.9346 29.4141 83.532 29.8948 83.0007 30.186C83.5322 30.4772 83.9348 30.9579 84.1284 31.5328L84.279 31.9793L84.4296 31.5328C84.6235 30.9579 85.0261 30.4772 85.5574 30.186C85.0261 29.8948 84.6235 29.4141 84.4296 28.8392Z" fill="#FDA859"/>
<path d="M69.373 15.1969L71.6771 14.4017L72.3584 18.8609L69.373 15.1969Z" fill="white"/>
<path d="M73.8149 15.1659L75.0391 15.8827L73.3337 17.8759L73.8149 15.1659Z" fill="white"/>
<path d="M68.1201 17.962L68.7231 16.676L70.8572 18.1992L68.1201 17.962Z" fill="white"/>
<defs>
<linearGradient id="paint0_linear_189_183" x1="48.3412" y1="26.579" x2="48.3412" y2="82.0904" gradientUnits="userSpaceOnUse">
<stop stop-color="#9AF2E8"/>
<stop offset="1" stop-color="#60CEBF"/>
</linearGradient>
<linearGradient id="paint1_linear_189_183" x1="68.489" y1="33.6615" x2="68.2603" y2="39.7719" gradientUnits="userSpaceOnUse">
<stop stop-color="#E1E0F0" stop-opacity="0"/>
<stop offset="1" stop-color="#C3C0D9"/>
</linearGradient>
<linearGradient id="paint2_linear_189_183" x1="11.8526" y1="30.4901" x2="11.8526" y2="51.0683" gradientUnits="userSpaceOnUse">
<stop stop-color="#E1E0F0" stop-opacity="0"/>
<stop offset="1" stop-color="#C3C0D9"/>
</linearGradient>
<linearGradient id="paint3_linear_189_183" x1="49.7102" y1="55.4874" x2="49.7102" y2="70.9483" gradientUnits="userSpaceOnUse">
<stop stop-color="#E1E0F0" stop-opacity="0"/>
<stop offset="1" stop-color="#C3C0D9"/>
</linearGradient>
<linearGradient id="paint4_linear_189_183" x1="27.7681" y1="38.0439" x2="27.7681" y2="47.079" gradientUnits="userSpaceOnUse">
<stop stop-color="#E1E0F0" stop-opacity="0"/>
<stop offset="1" stop-color="#C3C0D9"/>
</linearGradient>
<linearGradient id="paint5_linear_189_183" x1="40.6623" y1="34.2069" x2="40.6623" y2="41.0903" gradientUnits="userSpaceOnUse">
<stop stop-color="#E1E0F0" stop-opacity="0"/>
<stop offset="1" stop-color="#C3C0D9"/>
</linearGradient>
<linearGradient id="paint6_linear_189_183" x1="52.9931" y1="42.4861" x2="52.9931" y2="52.5745" gradientUnits="userSpaceOnUse">
<stop stop-color="#E1E0F0" stop-opacity="0"/>
<stop offset="1" stop-color="#C3C0D9"/>
</linearGradient>
<linearGradient id="paint7_linear_189_183" x1="55.0341" y1="30.9259" x2="55.0341" y2="38.2655" gradientUnits="userSpaceOnUse">
<stop stop-color="#E1E0F0" stop-opacity="0"/>
<stop offset="1" stop-color="#C3C0D9"/>
</linearGradient>
<linearGradient id="paint8_linear_189_183" x1="62.5512" y1="23.1902" x2="62.5512" y2="29.4351" gradientUnits="userSpaceOnUse">
<stop stop-color="#E1E0F0" stop-opacity="0"/>
<stop offset="1" stop-color="#C3C0D9"/>
</linearGradient>
</defs>
</svg>
