<svg width="292" height="316" viewBox="0 0 292 316" fill="none" xmlns="http://www.w3.org/2000/svg">
<g opacity="0.2">
<path d="M132.532 121.443C132.511 127.577 136.827 135.04 142.164 138.125L281.237 218.415C286.574 221.499 290.917 219.03 290.931 212.896L291.225 109.992L291.253 99.9618C291.267 93.8278 286.958 86.3568 281.621 83.2798L142.548 2.98284C137.211 -0.0941591 132.868 2.37484 132.854 8.50884L132.826 18.5458L132.532 121.443Z" fill="#BFBEED"/>
</g>
<g opacity="0.2">
<path d="M121.647 132.923C121.626 139.057 125.942 146.52 131.279 149.605L270.351 229.895C275.688 232.98 280.031 230.511 280.045 224.376L280.339 121.472L280.367 111.442C280.381 105.308 276.072 97.8378 270.735 94.7598L131.663 14.4628C126.326 11.3858 121.983 13.8538 121.969 19.9888L121.941 30.0258L121.647 132.923Z" fill="#BFBEED"/>
</g>
<path d="M117.028 21.6828L114.599 23.0948C116.331 22.0888 118.729 22.2298 121.375 23.7578L123.804 22.3458C121.158 20.8188 118.759 20.6768 117.028 21.6828Z" fill="#F4F4FA"/>
<mask id="mask0_447_3588" style="mask-type:luminance" maskUnits="userSpaceOnUse" x="114" y="21" width="10" height="3">
<path d="M117.028 21.6828L114.599 23.0948C116.331 22.0888 118.729 22.2298 121.375 23.7578L123.804 22.3458C121.158 20.8188 118.759 20.6768 117.028 21.6828Z" fill="white"/>
</mask>
<g mask="url(#mask0_447_3588)">
<path d="M121.375 23.7578L123.804 22.3458C121.158 20.8178 118.759 20.6768 117.028 21.6828L114.599 23.0948C116.33 22.0888 118.728 22.2298 121.375 23.7578Z" fill="#FE8786"/>
</g>
<path d="M264.832 236.73L267.261 235.319C268.969 234.326 270.028 232.215 270.037 229.214L267.608 230.626C267.599 233.627 266.54 235.737 264.832 236.73Z" fill="#F4F4FA"/>
<mask id="mask1_447_3588" style="mask-type:luminance" maskUnits="userSpaceOnUse" x="264" y="229" width="7" height="8">
<path d="M264.832 236.73L267.261 235.319C268.969 234.326 270.028 232.215 270.037 229.214L267.608 230.626C267.599 233.627 266.54 235.737 264.832 236.73Z" fill="white"/>
</mask>
<g mask="url(#mask1_447_3588)">
<path d="M264.832 236.73L267.261 235.319C268.969 234.326 270.028 232.215 270.037 229.214L267.608 230.626C267.599 233.627 266.54 235.737 264.832 236.73Z" fill="#D3D3F5"/>
</g>
<path d="M267.924 119.329L270.353 117.918L270.325 127.812L267.896 129.214L267.924 119.329Z" fill="#FF6661"/>
<path d="M270.325 127.812L270.037 229.214L267.608 230.626L267.896 129.214L270.325 127.812Z" fill="#D3D3F5"/>
<path d="M258.431 102.887L260.86 101.476L123.804 22.3457L121.375 23.7577L258.431 102.887Z" fill="#FE8786"/>
<path d="M267.924 119.329L270.353 117.917C270.37 111.874 266.119 104.511 260.86 101.475L258.431 102.887C263.69 105.924 267.941 113.286 267.924 119.329Z" fill="#F4F4FA"/>
<mask id="mask2_447_3588" style="mask-type:luminance" maskUnits="userSpaceOnUse" x="258" y="101" width="13" height="19">
<path d="M267.924 119.329L270.353 117.917C270.37 111.874 266.119 104.511 260.86 101.475L258.431 102.887C263.69 105.924 267.941 113.286 267.924 119.329Z" fill="white"/>
</mask>
<g mask="url(#mask2_447_3588)">
<path d="M267.924 119.329L270.353 117.917C270.37 111.874 266.119 104.511 260.86 101.475L258.431 102.887C263.69 105.924 267.941 113.286 267.924 119.329Z" fill="#FF6661"/>
</g>
<path d="M111.506 140.498C111.485 146.543 115.738 153.898 120.998 156.938L258.053 236.064C263.313 239.104 267.593 236.671 267.607 230.626L267.896 129.215L267.924 119.33C267.938 113.285 263.692 105.923 258.432 102.89L121.377 23.7568C116.117 20.7238 111.837 23.1568 111.823 29.2028L111.795 39.0938L111.506 140.498Z" fill="#F4F4FA"/>
<path d="M111.795 39.0938L267.895 129.214L267.923 119.329C267.937 113.284 263.691 105.922 258.431 102.889L121.377 23.7568C116.117 20.7238 111.837 23.1568 111.823 29.2028L111.795 39.0938Z" fill="#FE4340"/>
<path d="M248.072 107.883C248.072 109.177 247.163 109.702 246.042 109.055C244.921 108.408 244.012 106.834 244.012 105.539C244.012 104.244 244.921 103.72 246.042 104.367C247.163 105.014 248.072 106.588 248.072 107.883Z" fill="#F4F4FA"/>
<path d="M254.466 111.575C254.466 112.869 253.557 113.394 252.436 112.747C251.315 112.1 250.406 110.526 250.406 109.231C250.406 107.937 251.315 107.412 252.436 108.059C253.557 108.706 254.466 110.28 254.466 111.575Z" fill="#F4F4FA"/>
<path d="M260.86 115.266C260.86 116.56 259.951 117.085 258.83 116.438C257.709 115.79 256.8 114.217 256.8 112.922C256.8 111.627 257.709 111.103 258.83 111.75C259.951 112.398 260.86 113.972 260.86 115.266Z" fill="#F4F4FA"/>
<g opacity="0.9">
<path d="M260.354 131.527L190.018 90.918V188.465L260.354 229.074V131.527Z" fill="white"/>
<path opacity="0.9" d="M260.354 131.527L190.018 90.918L190.019 127.783L260.354 168.391V131.527Z" fill="#194D4D"/>
<path opacity="0.9" d="M256.537 174.15L207.528 145.855V155.197L256.537 183.493V174.15Z" fill="#194D4D"/>
<path opacity="0.9" d="M256.537 187.127L207.528 158.832V168.175L256.537 196.47V187.127Z" fill="#194D4D"/>
<path opacity="0.9" d="M256.537 200.105L207.528 171.81V181.152L256.537 209.448V200.105Z" fill="#194D4D"/>
<path opacity="0.9" d="M256.537 213.083L207.528 184.787L207.529 194.131L256.537 222.425V213.083Z" fill="#194D4D"/>
<path opacity="0.9" d="M202.647 147.708C202.647 145.13 200.846 142.001 198.625 140.719C196.403 139.437 194.602 140.486 194.602 143.063C194.602 145.64 196.403 148.769 198.625 150.053C200.847 151.335 202.647 150.285 202.647 147.708Z" fill="#194D4D"/>
<path opacity="0.9" d="M202.648 186.641C202.648 184.063 200.847 180.935 198.625 179.652C196.403 178.369 194.602 179.419 194.602 181.996C194.602 184.573 196.404 187.704 198.625 188.985C200.847 190.268 202.648 189.218 202.648 186.641Z" fill="#194D4D"/>
<path opacity="0.9" d="M202.648 173.663C202.648 171.086 200.847 167.957 198.625 166.675C196.403 165.391 194.602 166.441 194.602 169.019C194.602 171.597 196.403 174.725 198.625 176.008C200.847 177.291 202.648 176.241 202.648 173.663Z" fill="#194D4D"/>
<path opacity="0.9" d="M202.647 160.685C202.647 158.108 200.847 154.979 198.625 153.697C196.403 152.414 194.602 153.464 194.602 156.041C194.602 158.618 196.403 161.746 198.625 163.029C200.847 164.313 202.647 163.263 202.647 160.685Z" fill="#194D4D"/>
<path d="M183.873 131.189L116.132 92.0789L116.131 46.8989L183.873 86.0089V131.189Z" fill="white"/>
<path opacity="0.9" d="M148.054 91.123L121.443 75.759C120.614 75.28 119.942 74.113 119.942 73.151V55.858C119.942 54.897 120.613 54.505 121.443 54.983L148.053 70.346C148.882 70.826 149.554 71.992 149.554 72.954V90.248C149.555 91.209 148.883 91.6 148.054 91.123Z" fill="#194D4D"/>
<path d="M147.516 81.7641L121.647 66.8271V63.1001L147.516 78.0351V81.7641Z" fill="#FFDE38"/>
<path d="M147.517 73.6421L142.79 70.9131V69.0491L147.517 71.7781V73.6421Z" fill="#FFDE38"/>
<path d="M126.521 75.884L121.647 73.071V71.207L126.521 74.021V75.884Z" fill="#FFDE38"/>
<g opacity="0.9">
<path d="M154.834 81.8608C154.834 80.1928 155.742 80.1388 156.85 80.7328V79.7368L157.927 80.3588V81.3538C158.655 81.8088 159.074 82.1788 159.603 82.7038V84.4508C158.965 84.0008 158.167 83.5058 157.509 83.1258C156.97 82.8148 156.771 82.7228 156.771 83.2088V83.3358C156.771 83.6948 156.831 83.9248 157.369 84.2348L158.008 84.6038C159.525 85.4798 159.875 87.2098 159.875 88.1358V88.5178C159.875 90.6118 158.896 90.5208 157.928 89.9858V90.9348L156.851 90.3128V89.3638C155.974 88.8458 155.844 88.6898 155.065 87.9388V86.1918C155.464 86.4688 156.422 87.1028 157.35 87.6388C157.779 87.8858 157.938 87.8508 157.939 87.5038V87.3178C157.939 86.9828 157.85 86.7568 157.41 86.5038L156.811 86.1578C154.915 85.0638 154.836 83.1078 154.836 82.5638V81.8608H154.834Z" fill="#FE4340"/>
<path d="M160.391 83.0769C161.209 83.3419 161.987 83.6509 163.424 84.4829C164.98 85.3799 165.698 86.9519 165.698 88.5729C165.698 90.1689 164.222 90.8689 163.604 91.1589L165.698 92.3689V94.3819L160.471 91.3649V89.4199C161.279 89.2609 163.763 88.3579 163.763 87.4909C163.763 86.7849 163.433 86.5129 162.626 86.0469L160.391 84.7569V83.0769Z" fill="#FE4340"/>
<path d="M166.148 86.4719C167.026 86.6199 168.253 87.3389 169.42 88.0369C170.519 88.6939 171.306 89.8889 171.306 91.2659V91.7179C171.306 92.5619 171.077 93.0199 170.468 92.9229C171.096 93.5179 171.306 94.3099 171.306 95.1899V95.5259C171.306 96.9249 170.567 97.2739 169.351 96.5719C168.213 95.9139 167.086 95.2979 166.208 94.4329L166.218 92.7379L168.393 93.9939C169.171 94.4429 169.371 94.5469 169.371 94.0029V93.8979C169.371 93.3649 169.092 93.1809 168.453 92.7779L166.827 91.7579V89.9299L168.453 90.7529C169.141 91.1139 169.391 91.2599 169.391 90.7269V90.6229C169.391 90.0329 168.972 89.7909 168.453 89.4909L166.149 88.1599L166.148 86.4719Z" fill="#FE4340"/>
<path d="M171.885 89.4829L176.683 92.2529L177.152 93.4259L174.868 99.6759L172.813 98.4889L174.788 93.1719L171.885 91.4959V89.4829Z" fill="#FE4340"/>
</g>
<path d="M130.02 90.006C130.02 86.777 127.764 82.858 124.981 81.251C122.198 79.645 119.942 80.959 119.942 84.187C119.942 87.415 122.198 91.336 124.981 92.942C127.764 94.549 130.021 93.235 130.02 90.006Z" fill="#BFBEED"/>
<path d="M146.701 99.6369C146.701 96.4089 144.445 92.4889 141.662 90.8829C138.879 89.2749 136.623 90.5909 136.623 93.8189C136.623 97.0469 138.879 100.967 141.662 102.573C144.445 104.18 146.701 102.866 146.701 99.6369Z" fill="#BFBEED"/>
<path d="M163.381 109.268C163.381 106.039 161.125 102.12 158.342 100.513C155.559 98.9059 153.303 100.221 153.303 103.449C153.303 106.678 155.559 110.597 158.342 112.204C161.125 113.81 163.381 112.496 163.381 109.268Z" fill="#BFBEED"/>
<path d="M180.062 118.899C180.062 115.67 177.806 111.751 175.023 110.144C172.24 108.537 169.984 109.851 169.984 113.08C169.984 116.308 172.24 120.227 175.023 121.835C177.806 123.44 180.062 122.127 180.062 118.899Z" fill="#BFBEED"/>
<path d="M183.872 183.556L116.131 144.445V99.2659L183.873 138.376L183.872 183.556Z" fill="white"/>
<path opacity="0.9" d="M148.053 143.489L121.442 128.126C120.613 127.648 119.941 126.48 119.941 125.519V108.226C119.941 107.264 120.614 106.872 121.442 107.351L148.053 122.715C148.882 123.194 149.554 124.361 149.554 125.322V142.614C149.554 143.576 148.883 143.968 148.053 143.489Z" fill="#FE4340"/>
<path d="M147.516 134.13L121.647 119.195V115.468L147.516 130.403V134.13Z" fill="#FFDE38"/>
<path d="M147.516 126.009L142.79 123.28V121.417L147.516 124.145V126.009Z" fill="#FFDE38"/>
<path d="M126.521 128.253L121.647 125.439V123.575L126.521 126.389V128.253Z" fill="#FFDE38"/>
<g opacity="0.9">
<path d="M156.238 138.449C156.238 136.992 157.032 136.946 158 137.463V136.594L158.942 137.138V138.007C159.579 138.406 159.945 138.729 160.407 139.188V140.715C159.849 140.323 159.151 139.889 158.575 139.556C158.104 139.285 157.93 139.204 157.93 139.63V139.741C157.93 140.054 157.982 140.256 158.453 140.528L159.011 140.85C160.337 141.615 160.642 143.128 160.642 143.937V144.271C160.642 146.102 159.786 146.023 158.941 145.554V146.383L157.999 145.84V145.01C157.232 144.558 157.118 144.421 156.438 143.765V142.238C156.786 142.479 157.624 143.033 158.435 143.501C158.81 143.718 158.95 143.688 158.95 143.384V143.223C158.95 142.929 158.871 142.731 158.488 142.51L157.965 142.208C156.308 141.252 156.237 139.541 156.237 139.066V138.449H156.238Z" fill="#FE4340"/>
<path d="M161.053 139.55C161.82 139.679 162.893 140.309 163.913 140.918C164.872 141.492 165.561 142.537 165.561 143.741V144.136C165.561 144.874 165.36 145.274 164.829 145.19C165.378 145.71 165.561 146.402 165.561 147.17V147.464C165.561 148.688 164.916 148.994 163.852 148.379C162.858 147.805 161.872 147.267 161.105 146.51L161.114 145.028L163.015 146.125C163.695 146.517 163.87 146.609 163.87 146.133V146.041C163.87 145.576 163.626 145.415 163.068 145.063L161.647 144.171V142.573L163.068 143.292C163.67 143.609 163.888 143.735 163.888 143.269V143.179C163.888 142.662 163.522 142.451 163.068 142.19L161.054 141.027L161.053 139.55Z" fill="#FE4340"/>
<path d="M166.295 147.949L168.597 149.277C169.138 149.59 169.111 149.24 169.111 149.038V148.724C169.111 148.39 169.024 148.138 168.692 147.947L168.309 147.725C168.03 147.564 167.925 147.645 167.925 147.958L166.303 147.022L166.495 142.429L170.533 144.76V146.52L168.143 145.14L168.109 146.153C168.335 146.121 168.562 146.222 168.675 146.277C168.902 146.388 169.225 146.585 169.339 146.661C170.35 147.346 170.804 148.416 170.804 149.489V150.44C170.804 151.827 169.889 151.834 169.033 151.34C167.952 150.716 167.463 150.424 166.295 149.517V147.949Z" fill="#FE4340"/>
<path d="M171.423 147.318C171.423 146.003 172.025 145.622 173.115 146.251L174.545 147.077C175.809 147.807 176.158 148.898 176.158 149.951V153.471C176.158 154.674 175.583 155.082 174.536 154.477L173.106 153.651C171.973 152.997 171.423 151.952 171.423 150.738V147.318ZM173.611 152.182L173.977 152.394C174.265 152.561 174.466 152.636 174.466 152.09V149.378C174.466 148.913 174.283 148.685 174.047 148.549L173.55 148.263C173.096 148.001 173.113 148.465 173.113 148.597V151.298C173.114 151.866 173.42 152.072 173.611 152.182Z" fill="#FE4340"/>
</g>
<path d="M155.886 129.949L157.703 130.998V131.643L157.095 131.292V133.363L156.475 133.005V130.935L155.887 130.595V129.949H155.886Z" fill="#BFBEED"/>
<path d="M158.138 131.976C158.732 132.318 158.934 132.684 158.934 133.467C158.934 134.198 158.748 134.336 158.138 133.984C157.54 133.638 157.341 133.253 157.341 132.547C157.341 131.742 157.549 131.636 158.138 131.976ZM158.138 133.449C158.314 133.55 158.314 133.521 158.314 133.109C158.314 132.683 158.317 132.614 158.138 132.511C157.949 132.402 157.962 132.483 157.962 132.907C157.962 133.296 157.975 133.355 158.138 133.449Z" fill="#BFBEED"/>
<path d="M159.059 132.663L159.299 132.661L159.388 132.163L159.919 132.47V133.019L160.204 133.183V133.68L159.919 133.516V134.139C159.919 134.403 159.964 134.481 160.034 134.565C160.034 134.565 160.168 134.721 160.191 134.734V135.153L159.712 134.877C159.456 134.729 159.299 134.453 159.299 133.93V133.158L159.059 133.019V132.663Z" fill="#BFBEED"/>
<path d="M160.326 134.546C160.326 134.268 160.438 134.031 160.882 134.288C160.882 134.288 161.209 134.48 161.209 134.477C161.209 134.477 161.212 134.456 161.209 134.451C161.209 134.254 161.139 134.217 161.01 134.144C160.931 134.098 160.383 133.822 160.383 133.822V133.402C160.603 133.407 160.795 133.492 161.112 133.675C161.56 133.933 161.829 134.218 161.829 134.772V136.097L161.329 135.808L161.208 135.538C161.179 135.599 161.083 135.699 160.85 135.554C160.447 135.303 160.325 134.906 160.325 134.698L160.326 134.546ZM161.08 135.151C161.211 135.227 161.209 135.104 161.209 135.104V134.881L161.043 134.803C160.941 134.756 160.947 134.856 160.947 134.915C160.947 135.068 161.02 135.116 161.08 135.151Z" fill="#BFBEED"/>
<path d="M162.025 133.303L162.645 133.661V135.716C162.645 135.972 162.694 136.053 162.763 136.137C162.763 136.137 162.897 136.292 162.921 136.306V136.726L162.479 136.47C162.175 136.294 162.025 136.03 162.025 135.507V133.303Z" fill="#BFBEED"/>
<path d="M163.9 134.575L164.918 135.162C165.416 135.45 165.621 135.85 165.621 136.31C165.621 136.54 165.51 136.787 165.279 136.676C165.519 136.86 165.679 137.203 165.679 137.486C165.679 138.094 165.426 138.171 164.934 137.887L163.901 137.291L163.9 134.575ZM164.869 136.144C164.965 136.199 165.013 136.142 165.013 136.038C165.013 135.875 164.939 135.783 164.869 135.743L164.52 135.541V135.942L164.869 136.144ZM164.901 137.261C165.023 137.331 165.058 137.255 165.058 137.092C165.058 136.954 165.026 136.806 164.901 136.735L164.52 136.514V137.042L164.901 137.261Z" fill="#BFBEED"/>
<path d="M165.78 137.694C165.78 137.416 165.893 137.181 166.337 137.437C166.337 137.437 166.663 137.629 166.663 137.625V137.599C166.663 137.403 166.593 137.367 166.465 137.292C166.385 137.246 165.838 136.97 165.838 136.97V136.55C166.059 136.555 166.251 136.642 166.568 136.824C167.016 137.082 167.284 137.368 167.284 137.92V139.245L166.786 138.958L166.663 138.686C166.634 138.747 166.539 138.847 166.305 138.702C165.902 138.451 165.78 138.054 165.78 137.846V137.694ZM166.536 138.301C166.667 138.377 166.663 138.252 166.663 138.252V138.029L166.498 137.952C166.395 137.904 166.401 138.004 166.401 138.063V138.086C166.401 138.239 166.475 138.266 166.536 138.301Z" fill="#BFBEED"/>
<path d="M167.48 136.453L168.1 136.811V138.866C168.1 139.122 168.148 139.201 168.218 139.287C168.218 139.287 168.352 139.442 168.375 139.455V139.875L167.934 139.62C167.63 139.444 167.48 139.18 167.48 138.656V136.453Z" fill="#BFBEED"/>
<path d="M168.481 139.254C168.481 138.976 168.592 138.739 169.037 138.996C169.037 138.996 169.363 139.187 169.363 139.184V139.158C169.363 138.961 169.293 138.925 169.165 138.851C169.086 138.805 168.538 138.53 168.538 138.53V138.111C168.758 138.115 168.95 138.2 169.267 138.384C169.714 138.641 169.983 138.927 169.983 139.48V140.804L169.484 140.516L169.362 140.245C169.334 140.307 169.238 140.408 169.004 140.261C168.601 140.01 168.48 139.615 168.48 139.407L168.481 139.254ZM169.236 139.861C169.367 139.936 169.363 139.811 169.363 139.811V139.588L169.197 139.512C169.094 139.464 169.101 139.564 169.101 139.623V139.646C169.102 139.798 169.175 139.824 169.236 139.861Z" fill="#BFBEED"/>
<path d="M170.18 138.947L170.698 139.245L170.801 139.498C170.906 139.444 171.009 139.392 171.268 139.541C171.709 139.795 171.76 140.151 171.76 140.568V141.829L171.14 141.471V140.194C171.14 140.039 171.104 139.98 171.035 139.941C170.917 139.872 170.84 139.865 170.802 139.943V141.276L170.181 140.917L170.18 138.947Z" fill="#BFBEED"/>
<path d="M172.495 140.265C172.662 140.361 172.995 140.535 173.321 140.875V141.298C173.321 141.298 173.129 141.165 172.844 141.001C172.627 140.875 172.556 140.826 172.556 141.309C172.556 141.761 172.614 141.806 172.844 141.939C173.139 142.109 173.343 142.198 173.343 142.198V142.621C173.102 142.679 172.76 142.421 172.494 142.272C172.178 142.089 171.935 141.715 171.935 140.943C171.936 140.173 172.17 140.078 172.495 140.265Z" fill="#BFBEED"/>
<path d="M174.182 141.243C174.748 141.569 174.959 141.773 174.959 142.426C174.959 142.831 174.764 142.84 174.457 142.664L174.06 142.434C174.06 142.702 174.211 142.732 174.447 142.869C174.677 143.002 174.687 143.008 174.927 143.106V143.573C174.703 143.562 174.265 143.295 173.999 143.142C173.567 142.891 173.439 142.487 173.439 141.805C173.44 140.984 173.631 140.925 174.182 141.243ZM174.246 142.085C174.301 142.116 174.339 142.09 174.339 142.02C174.339 141.886 174.336 141.83 174.226 141.766C174.092 141.688 174.054 141.692 174.06 141.978L174.246 142.085Z" fill="#BFBEED"/>
<path d="M130.02 142.374C130.02 139.146 127.764 135.226 124.981 133.619C122.198 132.013 119.942 133.327 119.942 136.556C119.942 139.784 122.198 143.704 124.981 145.31C127.765 146.918 130.02 145.602 130.02 142.374Z" fill="#BFBEED"/>
<path d="M146.701 152.004C146.701 148.776 144.445 144.856 141.662 143.249C138.879 141.643 136.623 142.958 136.622 146.186C136.622 149.415 138.878 153.334 141.661 154.941C144.444 156.547 146.701 155.233 146.701 152.004Z" fill="#BFBEED"/>
<path d="M163.382 161.635C163.382 158.407 161.126 154.487 158.343 152.88C155.559 151.273 153.304 152.588 153.304 155.817C153.304 159.045 155.559 162.964 158.343 164.572C161.125 166.178 163.382 164.863 163.382 161.635Z" fill="#BFBEED"/>
<path d="M180.062 171.266C180.062 168.037 177.806 164.117 175.023 162.511C172.24 160.903 169.983 162.218 169.983 165.446C169.983 168.674 172.239 172.594 175.023 174.202C177.806 175.809 180.062 174.494 180.062 171.266Z" fill="#BFBEED"/>
<path d="M202.648 113.498C202.648 110.441 204.314 110.341 206.345 111.428V109.602L208.322 110.743V112.57C209.658 113.405 210.427 114.082 211.397 115.046V118.253C210.226 117.428 208.761 116.519 207.554 115.821C206.565 115.25 206.198 115.08 206.198 115.972V116.206C206.198 116.864 206.309 117.289 207.297 117.86L208.468 118.537C211.25 120.142 211.891 123.316 211.891 125.014V125.715C211.891 129.559 210.098 129.394 208.322 128.411V130.152L206.344 129.009V127.268C204.734 126.318 204.496 126.031 203.068 124.656V121.45C203.8 121.957 205.558 123.121 207.26 124.104C208.046 124.558 208.339 124.493 208.339 123.856V123.517C208.339 122.901 208.175 122.488 207.37 122.023L206.271 121.388C202.793 119.38 202.647 115.792 202.647 114.795V113.498H202.648Z" fill="white"/>
<path d="M213.211 126.136C213.211 125.075 213.54 124.033 214.565 124.433C213.211 122.867 213.211 121.762 213.211 120.467V119.087C213.211 116.114 214.914 116.396 216.799 117.484L219.655 119.134C221.815 120.38 222.986 122.033 222.986 124.752V125.686C222.986 126.26 222.803 127.851 221.612 127.356C222.875 128.361 222.986 130.251 222.986 131.164V132.778C222.986 136.239 221.411 135.798 219.636 134.772L216.798 133.134C213.32 131.126 213.21 128.622 213.21 127.262L213.211 126.136ZM217.622 124.054L218.574 124.603C219.38 125.069 219.434 124.803 219.434 124.165V123.528C219.434 122.509 219.013 122.246 218.574 121.992L217.622 121.442C217.073 121.126 216.762 121.009 216.762 121.986V122.623C216.762 123.451 216.999 123.695 217.622 124.054ZM217.622 130.128L218.574 130.677C219.38 131.142 219.434 130.791 219.434 130.196V129.346C219.434 128.795 219.324 128.285 218.61 127.873L217.621 127.303C216.853 126.859 216.761 127.231 216.761 127.804V128.653C216.762 129.396 216.982 129.758 217.622 130.128Z" fill="white"/>
<path d="M227.801 123.943L231.609 126.142L228.735 133.337L230.51 134.362V131.517L231.004 130.144L234.062 131.91V136.412L235.161 137.046V140.209L234.062 140.191V143.058L230.511 141.008V138.141L224.562 134.707L223.939 132.5L227.801 123.943Z" fill="white"/>
<path d="M235.764 128.965C237.265 129.449 238.694 130.019 241.329 131.542C244.184 133.19 245.503 136.075 245.503 139.048C245.503 141.978 242.793 143.259 241.658 143.793L245.503 146.012L245.504 149.708L235.911 144.168V140.601C237.394 140.311 241.952 138.655 241.952 137.061C241.952 135.766 241.347 135.267 239.864 134.411L235.764 132.043V128.965Z" fill="white"/>
</g>
<path d="M52.4629 91.9257L89.8179 70.2177C90.7299 69.6877 91.9939 69.7627 93.3909 70.5687L56.0359 92.2767C54.6399 91.4707 53.3759 91.3957 52.4629 91.9257Z" fill="#FE4340"/>
<mask id="mask3_447_3588" style="mask-type:luminance" maskUnits="userSpaceOnUse" x="52" y="69" width="42" height="24">
<path d="M52.4629 91.9257L89.8179 70.2177C90.7299 69.6877 91.9939 69.7627 93.3909 70.5687L56.0359 92.2767C54.6399 91.4707 53.3759 91.3957 52.4629 91.9257Z" fill="white"/>
</mask>
<g mask="url(#mask3_447_3588)">
<path d="M52.4629 91.9258L89.8179 70.2178C90.7159 69.6958 91.9539 69.7608 93.3229 70.5308L55.9679 92.2388C54.5989 91.4688 53.3609 91.4038 52.4629 91.9258Z" fill="#FE4340"/>
<path d="M55.969 92.2388L93.324 70.5308C93.346 70.5438 93.369 70.5558 93.391 70.5688L56.036 92.2768C56.014 92.2648 55.991 92.2518 55.969 92.2388Z" fill="#FE4340"/>
</g>
<path d="M196.03 239.788L158.675 261.496C165.627 257.456 169.954 248.892 169.988 236.755L207.343 215.047C207.309 227.184 202.983 235.748 196.03 239.788Z" fill="#E5322B"/>
<mask id="mask4_447_3588" style="mask-type:luminance" maskUnits="userSpaceOnUse" x="158" y="215" width="50" height="47">
<path d="M196.03 239.788L158.675 261.496C165.627 257.456 169.954 248.892 169.988 236.755L207.343 215.047C207.309 227.184 202.983 235.748 196.03 239.788Z" fill="white"/>
</mask>
<g mask="url(#mask4_447_3588)">
<path d="M169.988 236.756L207.343 215.048C207.309 227.185 202.982 235.749 196.03 239.789L158.675 261.497C165.627 257.456 169.954 248.892 169.988 236.756Z" fill="#E5322B"/>
</g>
<path d="M170.194 163.964L207.55 142.256L207.343 215.047L169.988 236.756L170.194 163.964Z" fill="#E5322B"/>
<path d="M56.0359 92.2766L93.3909 70.5686L202.547 133.59L165.191 155.298L56.0359 92.2766Z" fill="#FF6661"/>
<path d="M165.191 155.298L202.546 133.59C205.321 135.192 207.558 139.068 207.549 142.256L170.194 163.964C170.204 160.775 167.966 156.9 165.191 155.298Z" fill="#FE4340"/>
<mask id="mask5_447_3588" style="mask-type:luminance" maskUnits="userSpaceOnUse" x="165" y="133" width="43" height="31">
<path d="M165.191 155.298L202.546 133.59C205.321 135.192 207.558 139.068 207.549 142.256L170.194 163.964C170.204 160.775 167.966 156.9 165.191 155.298Z" fill="white"/>
</mask>
<g mask="url(#mask5_447_3588)">
<path d="M165.191 155.298L202.546 133.59C203.146 133.937 203.721 134.389 204.253 134.918L166.898 156.626C166.366 156.097 165.791 155.645 165.191 155.298Z" fill="#FE4340"/>
<path d="M166.898 156.625L204.253 134.917C206.183 136.835 207.556 139.756 207.549 142.255L170.194 163.963C170.201 161.464 168.829 158.543 166.898 156.625Z" fill="#FE4340"/>
</g>
<path d="M165.191 155.298C167.966 156.9 170.203 160.775 170.194 163.964L169.988 236.756C169.919 261.188 152.457 271.139 131.195 258.863L89.3349 234.695C68.0719 222.419 50.7239 192.371 50.7929 167.938L50.9989 95.1467C51.0079 91.9577 53.2599 90.6747 56.0349 92.2767L165.191 155.298Z" fill="#FE4340"/>
<path d="M90.2789 91.2278C85.5929 93.9338 77.9249 93.9338 73.2389 91.2278C68.5529 88.5218 68.5529 84.0949 73.2389 81.3899C77.9249 78.6839 85.5929 78.6839 90.2789 81.3899C94.9649 84.0959 94.9649 88.5228 90.2789 91.2278Z" fill="#E5322B"/>
<path d="M181.73 143.758C177.044 146.463 169.376 146.463 164.69 143.758C160.004 141.052 160.004 136.625 164.69 133.919C169.376 131.214 177.044 131.214 181.73 133.919C186.416 136.625 186.416 141.052 181.73 143.758Z" fill="#E5322B"/>
<path d="M70.6699 39.3188L70.8449 85.7028C70.8509 87.3158 71.9099 88.9208 74.0259 90.1458C78.2579 92.5928 85.0959 92.5668 89.3099 90.0888C91.4229 88.8468 92.4699 87.2178 92.4579 85.5998L92.2829 39.2378C92.2529 31.1488 94.5229 25.1738 98.5169 22.8488C102.51 20.5238 108.826 21.4968 115.85 25.5188L127.786 32.3468C146.485 43.0498 162.346 70.2928 162.427 91.8378L162.602 138.222C162.608 139.835 163.673 141.445 165.788 142.665C168.5 144.234 172.289 144.786 175.769 144.325C177.71 144.069 179.559 143.496 181.067 142.607C181.638 142.271 182.13 141.912 182.54 141.531C183.669 140.491 184.225 139.306 184.214 138.123L184.045 91.7558C183.992 77.6608 179.263 61.8218 170.728 47.1698C162.2 32.5228 150.759 20.5928 138.522 13.5908L126.586 6.75678C119.841 2.89878 113.125 0.665778 106.63 0.123778C99.7379 -0.445222 93.1709 0.954781 87.6409 4.17378C82.1109 7.39378 77.6579 12.4138 74.7549 18.6858C72.0129 24.6068 70.6409 31.5468 70.6699 39.3188Z" fill="#DADAF9"/>
<path d="M92.5529 25.3958C93.7699 24.6868 95.2049 24.2888 96.8069 24.1848C93.8869 27.0718 92.2579 32.3918 92.2829 39.2398L92.4579 85.6008C92.4719 87.2208 91.4229 88.8448 89.3099 90.0888C88.4669 90.5838 87.5159 90.9778 86.5049 91.2768L86.3189 41.7838C86.2879 33.6948 88.5609 27.7208 92.5529 25.3958Z" fill="#BFBEED"/>
<path d="M86.1899 6.91367C89.9629 5.84667 94.0079 5.46967 98.1759 5.81667C104.676 6.35267 111.387 8.58667 118.138 12.4447L130.074 19.2787C142.311 26.2807 153.746 38.2107 162.28 52.8637C170.814 67.5107 175.538 83.3487 175.591 97.4507L175.767 144.327C177.708 144.071 179.557 143.498 181.065 142.609C181.636 142.273 182.128 141.914 182.538 141.533L182.362 94.6227C182.309 80.5217 177.58 64.6887 169.051 50.0357C160.515 35.3837 149.076 23.4587 136.839 16.4567L124.903 9.62367C118.158 5.75967 111.441 3.53167 104.946 2.98967C98.146 2.42567 91.6689 3.78667 86.1899 6.91367Z" fill="#F4F4FA"/>
<path d="M96.1 170.458C96.076 164.251 100.424 161.719 105.812 164.802C111.199 167.885 115.585 175.417 115.608 181.623C115.623 185.714 113.734 188.193 110.906 188.537L110.972 206.206L100.94 200.464L100.874 182.796C98.031 179.207 96.115 174.549 96.1 170.458Z" fill="#19121B"/>
<path d="M30.9311 303.499C31.3401 302.565 34.7001 301.673 35.6851 301.345C38.1911 300.511 40.7601 300.346 43.3331 299.876C43.8541 299.781 44.4011 299.695 44.9071 299.852C46.1851 300.253 46.6791 302.475 46.3871 303.586C46.1811 304.371 45.5721 304.996 44.8861 305.431C43.8581 306.084 42.4551 306.559 41.2381 306.615C39.9341 306.676 38.7131 306.956 37.5961 307.66C36.1501 308.571 35.0821 309.58 33.2941 309.525C31.4991 309.47 30.1331 308.239 30.2521 306.39C30.2951 305.728 30.4781 305.084 30.6601 304.446C30.7761 304.047 30.8301 303.731 30.9311 303.499Z" fill="#19121B"/>
<path d="M25.023 303.497C25.105 303.382 25.183 303.264 25.258 303.142C26.014 301.894 27.177 301.207 28.384 300.408C28.833 300.11 29.312 299.802 29.85 299.768C31.077 299.691 31.942 301.114 31.83 302.339C31.779 302.906 31.588 303.453 31.504 304.017C31.345 305.086 31.478 306.589 32.406 307.302C33.653 308.26 35.41 308.828 36.769 309.661C37.299 309.985 37.837 310.336 38.176 310.857C38.974 312.084 38.04 314.103 36.943 314.827C36.266 315.275 35.395 315.333 34.594 315.199C33.392 314.998 32.031 314.416 31.086 313.644C30.075 312.818 28.98 312.212 27.677 311.989C25.442 311.609 22.691 311.383 22.074 308.65C21.909 307.92 22.119 307.145 22.494 306.497C23.157 305.351 24.257 304.56 25.023 303.497Z" fill="#262028"/>
<path d="M33.2339 246.72C34.2209 247.718 37.9499 245.881 37.9999 245.391C42.4329 241.955 41.9069 255.678 40.6339 261.131C39.9509 264.071 40.1289 267.131 39.7219 270.117C39.2679 273.444 38.5659 276.739 37.6249 279.962C37.4229 280.658 37.1929 281.378 36.6949 281.906C35.6679 282.997 33.9299 282.892 32.4529 282.649C31.1719 282.439 29.7399 282.078 29.1099 280.945C28.7209 280.247 28.7329 279.404 28.7389 278.606C28.7529 276.5 28.7659 274.325 28.3459 272.256C27.8989 270.049 27.4499 267.842 27.0029 265.634C26.6119 263.702 26.2199 261.768 26.0249 259.808C25.6729 256.264 25.9709 252.689 26.5179 249.18C26.8059 247.338 26.1929 243.887 28.8079 243.515C31.1739 243.18 32.5769 246.055 33.2339 246.72Z" fill="#19121B"/>
<path d="M38.5139 274.071L39.2479 270.989C38.9549 272.005 38.7129 273.035 38.5139 274.071Z" fill="#F7736A"/>
<path d="M37.095 278.799C36.335 277.748 34.455 277.804 33.827 278.082C33.333 278.302 29.734 276.237 28.676 275.441C28.756 275.501 28.614 276.374 28.606 276.505C28.582 276.869 28.56 277.235 28.541 277.601C28.501 278.322 28.468 279.044 28.442 279.767C28.39 281.18 28.366 282.593 28.376 284.007C28.386 285.449 28.432 286.891 28.52 288.331C28.598 289.617 28.816 290.912 28.709 292.19C28.654 292.845 28.831 293.553 28.913 294.203C29.004 294.935 29.096 295.667 29.187 296.399C29.369 297.863 29.552 299.327 29.735 300.791C29.761 300.996 29.786 301.201 29.812 301.406C29.951 302.525 30.007 304.332 30.861 305.163C31.744 306.021 33.229 306.331 34.408 306.122C35.404 305.946 36.325 305.399 36.975 304.626C37.712 303.75 37.613 302.425 37.621 301.325C37.656 296.705 37.334 292.089 37.327 287.47C37.323 283.908 37.513 280.321 38.187 276.831L37.095 278.799Z" fill="#19121B"/>
<path d="M40.0799 247.681C40.5039 247.461 42.6839 246.368 42.6659 245.776C42.6539 245.379 43.7269 245.048 44.0029 245.053C44.5029 245.063 45.0069 245.384 45.4099 245.672C46.4039 246.382 47.1359 247.474 47.5889 248.642C48.2089 250.247 48.3579 252.008 48.4549 253.741C48.7419 258.905 48.6069 264.096 48.0599 269.237C47.7829 271.834 47.4009 274.416 46.9139 276.977C46.6719 278.258 46.4019 279.533 46.1069 280.801C45.8229 282.02 45.5699 282.401 44.5469 283.045C42.3499 284.427 38.3939 284.244 36.8239 281.758C35.1319 279.084 35.8359 274.918 35.2949 271.91C34.5109 267.538 31.5999 264.332 30.2639 260.179C29.2809 257.131 29.4149 254.254 29.9289 251.146C30.1709 249.677 30.6259 246.164 32.1219 245.305C32.5189 245.078 35.2119 244.465 37.3889 246.628C38.6609 247.892 38.5129 248.487 40.0799 247.681Z" fill="#262028"/>
<path d="M25.319 232.856C25.298 232.099 25.248 231.34 25.109 230.549C24.465 226.883 23.368 223.303 22.907 219.604C22.55 216.732 22.291 213.15 24.569 210.931C24.941 210.569 25.367 210.269 25.818 210.014C30.246 207.514 34.481 210.558 38.63 212.053C41.357 213.035 43.971 214.323 46.412 215.884C47.262 216.427 48.132 216.799 48.704 217.645C49.417 218.7 49.333 219.468 49.221 220.666C49.091 222.07 48.976 223.475 48.875 224.881C48.673 227.694 48.529 230.51 48.443 233.328C48.27 238.964 48.33 244.608 48.622 250.239C48.714 252.018 48.939 253.813 48.965 255.593C48.983 256.861 48.125 257.465 46.935 257.776C43.595 258.651 39.722 258.94 36.281 258.868C32.704 258.793 29.065 258.019 26.062 256.074C25.294 255.576 25.667 254.783 25.736 253.95C25.82 252.944 25.883 251.937 25.926 250.928C26.009 248.967 26.013 247.003 25.94 245.042C25.885 243.566 25.536 242.144 25.468 240.705C25.386 238.966 25.435 237.217 25.366 235.476C25.329 234.573 25.343 233.715 25.319 232.856Z" fill="#35353F"/>
<path d="M43.9131 284.814C42.7081 286.711 41.5161 288.616 40.3421 290.532C39.4131 292.047 38.4951 293.569 37.5931 295.101C36.8991 296.281 36.2141 297.466 35.5391 298.656C34.6731 300.184 33.8051 301.722 32.9161 303.222C32.2551 304.338 31.7571 305.945 30.4551 306.502C29.3021 306.995 27.5711 306.188 26.6541 305.544C25.9291 305.035 24.5671 304.044 24.2401 303.194C23.9111 302.338 24.4191 301.021 24.7071 300.219C25.4731 298.087 26.4571 296.04 27.4751 294.015C29.1871 290.613 31.0051 287.265 32.9241 283.976C34.7561 280.837 36.2161 277.587 37.8721 274.353C38.0541 273.998 38.4681 273.748 38.8481 273.708C39.3401 273.657 45.3881 280.764 45.7021 281.983C45.7001 281.984 45.4011 282.47 43.9131 284.814Z" fill="#262028"/>
<path d="M39.738 208.448C39.897 207.351 40.726 207.606 40.307 206.611C39.951 205.766 39.411 204.989 38.686 204.429C37.962 203.868 37.046 203.536 36.131 203.586C35.816 203.604 35.605 203.784 35.293 203.785C34.43 203.788 33.561 203.623 32.7 203.748C31.842 203.872 31.05 203.935 31.05 204.902C31.051 206.192 31.11 207.434 30.697 208.702C30.476 209.38 30.143 210.034 30.083 210.744C29.967 212.141 30.987 213.443 32.248 214.052C33.799 214.802 35.553 214.734 37.202 214.494C38.03 214.374 39.196 214.208 39.682 213.42C40.047 212.825 39.891 212.046 39.813 211.395C39.693 210.411 39.593 209.438 39.738 208.448Z" fill="#F9D5C3"/>
<mask id="mask6_447_3588" style="mask-type:luminance" maskUnits="userSpaceOnUse" x="34" y="191" width="5" height="4">
<path d="M37.877 191.96L34.282 194.049C34.537 193.902 34.888 193.921 35.275 194.145L38.87 192.056C38.485 191.833 38.133 191.813 37.877 191.96Z" fill="white"/>
</mask>
<g mask="url(#mask6_447_3588)">
<path d="M35.275 194.145L38.87 192.056C38.485 191.833 38.133 191.813 37.877 191.961L34.282 194.05C34.537 193.902 34.888 193.922 35.275 194.145Z" fill="#7F89A6"/>
</g>
<path d="M43.441 194.425C43.962 195.059 44.37 195.774 44.494 196.61C44.772 198.475 44.022 200.392 44.427 202.242C44.82 204.035 44.05 208.107 40.515 209.15C38.727 209.678 35.197 209.06 34.062 208.516C32.538 207.786 31.532 206.31 30.631 204.88C23.246 193.153 38.432 188.331 43.441 194.425Z" fill="#F9D5C3"/>
<path d="M27.3089 199.618C27.5349 201.536 27.9549 203.428 28.1369 205.35C28.4449 208.588 28.0929 211.961 29.2439 215.004C29.9149 216.777 31.0979 218.347 32.5949 219.507C32.5949 219.654 33.8659 220.689 34.0059 220.819C34.6619 221.422 35.3179 222.026 35.9739 222.629C36.1489 222.79 36.3479 222.96 36.5849 222.96C36.8289 222.959 37.0309 222.779 37.2019 222.605C38.9359 220.841 40.1709 218.638 41.0789 216.337C41.0789 216.213 41.2029 216.018 41.2469 215.9C41.3019 215.754 41.3559 215.607 41.4079 215.461C41.5159 215.16 41.6189 214.857 41.7189 214.553C42.2299 212.991 42.6369 211.398 43.0319 209.803C43.4369 208.17 43.9279 206.556 44.3819 204.936C44.4999 204.516 44.6179 204.094 44.6589 203.66C44.6819 203.418 44.6789 203.173 44.6399 202.933C44.6199 202.813 44.5919 202.696 44.5519 202.582C44.5269 202.509 44.4659 202.423 44.4889 202.348C44.0829 202.603 43.6829 202.872 43.2829 203.137C42.5389 203.631 41.4469 203.508 40.8319 202.86C39.1919 201.13 41.4099 199.259 43.1119 199.1C43.6899 199.046 44.3409 199.072 44.7629 198.673C45.0729 198.379 45.1689 197.928 45.2179 197.503C45.5389 194.735 44.6859 192.4 42.6549 190.531C42.0169 189.944 41.3099 189.414 40.5129 189.069C39.8129 188.77 39.0569 188.621 38.3049 188.514C34.1899 187.93 29.3659 189.236 27.7769 193.501C27.0799 195.374 27.0649 197.434 27.2849 199.42C27.2939 199.485 27.3019 199.552 27.3089 199.618Z" fill="#35353F"/>
<path d="M43.612 214.24C42.098 214.827 40.734 215.598 40.227 217.185C39.759 218.654 39.714 220.152 40.496 221.537C41.308 222.976 42.877 223.96 44.526 224.064C46.065 224.162 47.551 223.548 48.971 222.947C52.953 221.262 56.939 219.849 60.595 217.482C62.117 216.488 63.653 215.194 63.991 213.407C64.218 212.201 63.821 210.895 62.96 210.021C60.872 207.9 59.083 209.315 58.728 209.435C47.567 213.163 43.369 214.335 43.612 214.24Z" fill="#35353F"/>
<path d="M94.91 178.155L98.662 175.975L98.627 188.365L94.875 190.545L94.91 178.155Z" fill="#FFB700"/>
<path d="M91.5918 176.24L95.3438 174.059L98.6618 175.975L94.9098 178.155L91.5918 176.24Z" fill="#FFDE38"/>
<path d="M94.9099 178.155L94.8749 190.545L91.5569 188.63L91.5919 176.24L94.9099 178.155Z" fill="#FFC400"/>
<path d="M89.1688 185.441L92.9208 183.26L92.8858 195.65L89.1338 197.831L89.1688 185.441Z" fill="#FFB700"/>
<path d="M85.8508 183.525L89.6028 181.344L92.9208 183.26L89.1688 185.441L85.8508 183.525Z" fill="#FFDE38"/>
<path d="M89.1689 185.441L89.1339 197.831L85.8159 195.915L85.8509 183.525L89.1689 185.441Z" fill="#FFC400"/>
<path d="M96.9362 175.779L24.2432 218.023C24.8382 217.677 25.6612 217.726 26.5692 218.25L99.2612 176.006C98.3542 175.482 97.5312 175.434 96.9362 175.779Z" fill="#FFC400"/>
<mask id="mask7_447_3588" style="mask-type:luminance" maskUnits="userSpaceOnUse" x="24" y="175" width="76" height="44">
<path d="M96.9362 175.779L24.2432 218.023C24.8382 217.677 25.6612 217.726 26.5692 218.25L99.2612 176.006C98.3542 175.482 97.5312 175.434 96.9362 175.779Z" fill="white"/>
</mask>
<g mask="url(#mask7_447_3588)">
<path d="M26.5702 218.251L99.2622 176.007C99.2572 176.004 99.2512 176.001 99.2462 175.998L26.5532 218.242C26.5582 218.244 26.5642 218.248 26.5702 218.251Z" fill="#FFC400"/>
<path d="M26.5532 218.241L99.2462 175.997C98.3442 175.482 97.5282 175.436 96.9362 175.779L24.2432 218.023C24.8342 217.68 25.6522 217.726 26.5532 218.241Z" fill="#FFC400"/>
</g>
<path d="M28.8801 226.003L101.573 183.759C102.16 183.418 102.524 182.693 102.527 181.662C102.533 179.582 101.072 177.052 99.2621 176.007L26.5701 218.251C28.3801 219.296 29.8411 221.826 29.8351 223.906C29.8311 224.936 29.4671 225.661 28.8801 226.003Z" fill="#FFB700"/>
<mask id="mask8_447_3588" style="mask-type:luminance" maskUnits="userSpaceOnUse" x="26" y="176" width="77" height="51">
<path d="M28.8801 226.003L101.573 183.759C102.16 183.418 102.524 182.693 102.527 181.662C102.533 179.582 101.072 177.052 99.2621 176.007L26.5701 218.251C28.3801 219.296 29.8411 221.826 29.8351 223.906C29.8311 224.936 29.4671 225.661 28.8801 226.003Z" fill="white"/>
</mask>
<g mask="url(#mask8_447_3588)">
<path d="M28.8801 226.003L101.573 183.759C101.919 183.558 102.187 183.224 102.35 182.772L29.6571 225.016C29.4951 225.467 29.2261 225.801 28.8801 226.003Z" fill="#FFB700"/>
<path d="M29.657 225.016L102.35 182.772C102.464 182.457 102.526 182.085 102.527 181.662C102.527 181.642 102.527 181.621 102.527 181.601L29.835 223.845C29.835 223.866 29.835 223.886 29.835 223.906C29.833 224.329 29.771 224.701 29.657 225.016Z" fill="#FFB700"/>
<path d="M29.8341 223.844L102.526 181.6C102.52 181.075 102.423 180.524 102.251 179.976L29.5591 222.22C29.7311 222.768 29.8281 223.32 29.8341 223.844Z" fill="#FFB700"/>
<path d="M29.559 222.22L102.251 179.976C102.033 179.28 101.696 178.589 101.275 177.967L28.583 220.211C29.004 220.833 29.341 221.524 29.559 222.22Z" fill="#FFC400"/>
<path d="M28.5831 220.211L101.275 177.967C100.997 177.556 100.683 177.174 100.342 176.841L27.6501 219.085C27.9901 219.418 28.3051 219.8 28.5831 220.211Z" fill="#FFDE38"/>
<path d="M27.6501 219.085L100.342 176.841C100.004 176.51 99.6401 176.226 99.2611 176.007L26.5691 218.251C26.9481 218.469 27.3121 218.753 27.6501 219.085Z" fill="#FFDE38"/>
</g>
<path d="M26.5701 218.251C24.7641 217.208 23.2941 218.046 23.2881 220.126C23.2821 222.201 24.7431 224.731 26.5491 225.774C28.3591 226.819 29.8291 225.981 29.8351 223.906C29.8401 221.826 28.3791 219.296 26.5701 218.251Z" fill="#8A781E"/>
<path d="M15.607 237.548L9.20904 233.83C9.87004 234.214 10.28 235.03 10.283 236.192C10.29 238.527 8.64504 241.376 6.61304 242.549L13.011 246.267C15.043 245.093 16.688 242.245 16.681 239.91C16.678 238.748 16.268 237.932 15.607 237.548Z" fill="#FFDE38"/>
<mask id="mask9_447_3588" style="mask-type:luminance" maskUnits="userSpaceOnUse" x="6" y="233" width="11" height="14">
<path d="M15.607 237.548L9.20904 233.83C9.87004 234.214 10.28 235.03 10.283 236.192C10.29 238.527 8.64504 241.376 6.61304 242.549L13.011 246.267C15.043 245.093 16.688 242.245 16.681 239.91C16.678 238.748 16.268 237.932 15.607 237.548Z" fill="white"/>
</mask>
<g mask="url(#mask9_447_3588)">
<path d="M15.6071 237.548L9.20906 233.83C9.87006 234.214 10.2801 235.03 10.2831 236.192C10.2881 238.023 9.27806 240.17 7.86206 241.577L14.2601 245.295C15.6761 243.888 16.6861 241.741 16.6811 239.91C16.6781 238.748 16.2681 237.932 15.6071 237.548Z" fill="#FFDE38"/>
<path d="M14.26 245.296L7.86204 241.578C7.47204 241.965 7.05104 242.296 6.61304 242.55L13.011 246.268C13.449 246.014 13.87 245.683 14.26 245.296Z" fill="#FFC400"/>
</g>
<path d="M3.98901 242.806L10.387 246.524C11.057 246.914 11.986 246.859 13.011 246.267L6.61301 242.549C5.58801 243.141 4.65901 243.196 3.98901 242.806Z" fill="#FFDE38"/>
<mask id="mask10_447_3588" style="mask-type:luminance" maskUnits="userSpaceOnUse" x="3" y="242" width="11" height="5">
<path d="M3.98901 242.806L10.387 246.524C11.057 246.914 11.986 246.859 13.011 246.267L6.61301 242.549C5.58801 243.141 4.65901 243.196 3.98901 242.806Z" fill="white"/>
</mask>
<g mask="url(#mask10_447_3588)">
<path d="M13.011 246.267L6.61296 242.549C6.59696 242.558 6.57996 242.568 6.56396 242.577L12.962 246.295C12.978 246.286 12.994 246.277 13.011 246.267Z" fill="#FFC400"/>
<path d="M12.962 246.295L6.56402 242.577C5.55802 243.143 4.64901 243.189 3.98901 242.806L10.387 246.524C11.046 246.908 11.956 246.861 12.962 246.295Z" fill="#FFC400"/>
</g>
<path d="M30.2309 208.903L23.8329 205.185C22.1509 204.226 21.2089 203.689 19.5259 202.731L25.9239 206.449C27.6069 207.407 28.5489 207.944 30.2309 208.903Z" fill="#FFDE38"/>
<mask id="mask11_447_3588" style="mask-type:luminance" maskUnits="userSpaceOnUse" x="19" y="202" width="12" height="7">
<path d="M30.2309 208.903L23.8329 205.185C22.1509 204.226 21.2089 203.689 19.5259 202.731L25.9239 206.449C27.6069 207.407 28.5489 207.944 30.2309 208.903Z" fill="white"/>
</mask>
<g mask="url(#mask11_447_3588)">
<path d="M30.2309 208.903L23.8329 205.185C22.1509 204.226 21.2089 203.689 19.5259 202.731L25.9239 206.449C27.6069 207.407 28.5489 207.944 30.2309 208.903Z" fill="#FFDE38"/>
</g>
<path d="M6.398 222.662L0 218.944L0.0719986 244.492L6.471 248.21L6.398 222.662Z" fill="#FFC400"/>
<path d="M25.924 206.448L19.5261 202.73L4.27905 211.533L10.6771 215.251L25.924 206.448Z" fill="#FFDE38"/>
<path d="M10.677 215.251L4.279 211.533C2.608 214.428 1.672 216.049 0 218.944L6.398 222.662C8.07 219.767 9.006 218.146 10.677 215.251Z" fill="#FFDE38"/>
<mask id="mask12_447_3588" style="mask-type:luminance" maskUnits="userSpaceOnUse" x="0" y="211" width="11" height="12">
<path d="M10.677 215.251L4.279 211.533C2.608 214.428 1.672 216.049 0 218.944L6.398 222.662C8.07 219.767 9.006 218.146 10.677 215.251Z" fill="white"/>
</mask>
<g mask="url(#mask12_447_3588)">
<path d="M10.677 215.251L4.279 211.533C2.608 214.428 1.672 216.049 0 218.944L6.398 222.662C8.07 219.767 9.006 218.146 10.677 215.251Z" fill="#FFC400"/>
</g>
<path d="M25.924 206.448C27.607 207.407 28.549 207.943 30.231 208.902L30.303 234.45L26.024 241.866L10.777 250.669L6.46997 248.21L6.39697 222.662C8.06897 219.767 9.00397 218.146 10.676 215.251L25.924 206.448ZM13.011 246.267C15.043 245.093 16.688 242.245 16.681 239.91C16.674 237.57 15.019 236.631 12.987 237.805C10.951 238.981 9.30597 241.825 9.31297 244.164C9.31897 246.5 10.974 247.443 13.011 246.267Z" fill="#FFB700"/>
<path d="M98.645 173.431L94.623 171.094L91.875 172.68L95.897 175.018L98.645 173.431Z" fill="#FFDE38"/>
<path d="M93.9859 169.394L89.9639 167.056L89.9689 168.874L93.9909 171.212L93.9859 169.394Z" fill="#FFC400"/>
<path d="M95.8779 168.301L91.8549 165.964L89.9639 167.056L93.9859 169.394L95.8779 168.301Z" fill="#FFDE38"/>
<path d="M93.9908 171.212L89.9688 168.874L87.8008 170.125L91.8228 172.463L93.9908 171.212Z" fill="#FFDE38"/>
<path d="M87.5448 174.933L83.5228 172.596L81.3518 173.849L85.3738 176.187L87.5448 174.933Z" fill="#FFDE38"/>
<path d="M91.8139 169.225L87.7919 166.888L83.5139 169.358L87.5359 171.696L91.8139 169.225Z" fill="#FFDE38"/>
<path d="M87.5359 171.696L83.5139 169.358L83.5229 172.596L87.5449 174.933L87.5359 171.696Z" fill="#FFC400"/>
<path d="M85.3689 174.369L81.3469 172.031L79.5979 173.041L83.6199 175.379L85.3689 174.369Z" fill="#FFDE38"/>
<path d="M87.5359 171.696L87.5449 174.933L85.3739 176.187L85.3689 174.369L83.6199 175.379L83.6559 188.144L98.6619 179.481L98.6449 173.431L95.8969 175.018L95.8779 168.301L93.9859 169.394L93.9909 171.212L91.8229 172.463L91.8139 169.225L87.5359 171.696Z" fill="#FFB700"/>
<path d="M83.6199 175.379L79.5979 173.041L79.6339 185.807L83.6559 188.144L83.6199 175.379Z" fill="#FFC400"/>
<path d="M74.4698 180.892L78.2218 178.712L78.1858 191.102L74.4338 193.282L74.4698 180.892Z" fill="#FFB700"/>
<path d="M71.1509 178.977L74.9029 176.796L78.2219 178.712L74.4699 180.892L71.1509 178.977Z" fill="#FFDE38"/>
<path d="M74.4699 180.892L74.4339 193.282L71.1169 191.367L71.1509 178.977L74.4699 180.892Z" fill="#FFC400"/>
<path d="M70.6591 195.102C70.4531 195.307 70.0061 195.52 69.8801 195.129C69.6701 194.475 69.8941 193.723 69.6011 193.102C69.4961 192.881 69.2791 192.671 69.0391 192.718C68.7551 192.775 68.6601 193.127 68.6261 193.415C68.5451 194.107 68.4841 194.811 68.2461 195.467C68.0681 195.957 67.7941 196.405 67.5531 196.867C67.2631 197.423 67.0191 198.045 66.9821 198.673C66.9371 199.435 66.8021 200.185 66.5521 200.907C66.4031 201.338 66.2141 201.79 66.3141 202.235C66.4181 202.702 66.8131 203.041 67.2031 203.318C67.5211 203.545 67.8771 203.762 68.2681 203.756C68.6131 203.751 68.9361 203.567 69.1801 203.323C69.4241 203.079 69.6011 202.777 69.7751 202.479C70.1451 201.846 70.4911 201.191 70.8991 200.584C71.3001 199.986 71.7861 199.451 72.2261 198.882C72.9021 198.009 73.6211 196.853 73.2951 195.71C73.1011 195.033 72.7621 194.404 72.3271 193.851C71.9411 193.361 71.5441 192.84 70.8811 192.774C70.7131 192.757 70.5071 192.791 70.4411 192.946C70.3731 193.106 70.4951 193.275 70.5931 193.419C70.9281 193.913 71.1191 194.628 70.6591 195.102Z" fill="#19121B"/>
<path d="M69.187 199.789C69.24 199.819 69.293 199.849 69.345 199.88C69.806 200.154 70.265 200.512 70.416 201.026C70.565 201.531 70.379 202.048 70.168 202.506C69.952 202.975 69.786 203.474 69.573 203.951C69.116 204.979 68.644 206 68.174 207.022C67.865 207.693 67.555 208.364 67.225 209.023C66.256 210.954 65.106 212.777 63.794 214.463C63.285 215.117 62.465 216.217 61.674 216.533C60.89 216.846 60.09 216.489 59.373 215.984C58.091 215.085 57.11 213.695 57.288 212.121C57.466 210.542 58.387 209.376 59.252 208.176C60.239 206.806 61.27 205.467 62.342 204.162C62.878 203.511 63.423 202.868 63.979 202.235C64.495 201.646 64.99 201.012 65.517 200.446C65.795 200.148 66.08 199.855 66.362 199.56C66.529 199.384 66.735 199.157 66.962 199.057C67.192 198.957 67.422 199.057 67.652 199.129C68.185 199.293 68.7 199.515 69.187 199.789Z" fill="#35353F"/>
<path d="M128.484 102.141L130.448 101L130.39 126.186L128.426 127.327L128.484 102.141Z" fill="#E5E3E8"/>
<path d="M38.5071 50.1928L40.4711 49.0518L130.448 101L128.484 102.141L38.5071 50.1928Z" fill="#E5E3E8"/>
<path d="M128.484 102.141L128.426 127.327L38.449 75.3789L38.507 50.1929L128.484 102.141Z" fill="#F9F7FC"/>
<path d="M52.1949 70.9639L48.8119 69.0099C50.7759 69.6149 52.2379 68.4289 52.2379 66.0009C52.2379 63.1719 50.2519 59.7319 47.8019 58.3169C45.3519 56.9029 43.3659 58.0489 43.3659 60.8779C43.3659 63.3059 44.8289 66.1819 46.7919 67.8439L43.4079 65.8899C42.1189 65.1469 41.0649 65.7549 41.0649 67.2429V73.6179L54.5379 81.3959V75.0219C54.5379 73.5349 53.4839 71.7089 52.1949 70.9639Z" fill="#194D4D"/>
<path d="M99.485 132.865L101.45 131.724L101.392 156.91L99.427 158.051L99.485 132.865Z" fill="#E5E3E8"/>
<path d="M9.50781 80.9169L11.4728 79.7749L101.45 131.724L99.4848 132.865L9.50781 80.9169Z" fill="#E5E3E8"/>
<path d="M99.4849 132.865L99.4269 158.051L9.45093 106.103L9.50793 80.917L99.4849 132.865Z" fill="#F9F7FC"/>
<path d="M15.2339 94.5639L18.9459 96.1209L19.0799 99.0969L15.2339 96.7229V94.5639ZM17.1839 98.1569L19.6139 100.3L18.3049 103.708L16.5149 102.027L17.1839 98.1569ZM20.4679 94.2559L22.0969 99.0819L19.7459 98.7729L18.6789 93.9009L20.4679 94.2559ZM20.5479 100.655L23.5929 105.157L22.4709 106.236L19.1859 102.304L20.5479 100.655ZM23.8069 99.0199L24.9019 101.41L22.2039 102.844L20.6289 99.6829L23.8069 99.0199Z" fill="#194D4D"/>
<path d="M26.3979 101.01L30.1099 102.567L30.2439 105.544L26.3979 103.169V101.01ZM28.3479 104.603L30.7779 106.746L29.4699 110.154L27.6799 108.473L28.3479 104.603ZM31.6329 100.702L33.2619 105.528L30.9119 105.219L29.8439 100.347L31.6329 100.702ZM31.7129 107.1L34.7569 111.602L33.6349 112.682L30.3499 108.75L31.7129 107.1ZM34.9709 105.466L36.0659 107.856L33.3679 109.29L31.7929 106.129L34.9709 105.466Z" fill="#194D4D"/>
<path d="M37.563 107.456L41.275 109.013L41.408 111.988L37.563 109.614V107.456ZM39.512 111.048L41.942 113.191L40.633 116.599L38.844 114.918L39.512 111.048ZM42.797 107.147L44.426 111.973L42.076 111.664L41.008 106.792L42.797 107.147ZM42.877 113.546L45.921 118.049L44.799 119.128L41.514 115.197L42.877 113.546ZM46.136 111.912L47.231 114.302L44.533 115.736L42.957 112.575L46.136 111.912Z" fill="#194D4D"/>
<path d="M48.7278 113.902L52.4398 115.459L52.5738 118.435L48.7278 116.061V113.902ZM50.6768 117.494L53.1078 119.637L51.7988 123.045L50.0088 121.364L50.6768 117.494ZM53.9618 113.593L55.5918 118.419L53.2418 118.11L52.1738 113.238L53.9618 113.593ZM54.0418 119.992L57.0858 124.494L55.9638 125.574L52.6788 121.642L54.0418 119.992ZM57.3008 118.357L58.3948 120.747L55.6978 122.182L54.1228 119.021L57.3008 118.357Z" fill="#194D4D"/>
<path d="M59.8918 120.347L63.6028 121.904L63.7368 124.879L59.8918 122.505V120.347ZM61.8408 123.94L64.2718 126.083L62.9628 129.491L61.1738 127.811L61.8408 123.94ZM65.1258 120.038L66.7548 124.864L64.4048 124.555L63.3368 119.683L65.1258 120.038ZM65.2058 126.437L68.2498 130.939L67.1278 132.019L63.8428 128.087L65.2058 126.437ZM68.4648 124.803L69.5598 127.193L66.8618 128.627L65.2868 125.466L68.4648 124.803Z" fill="#194D4D"/>
<path d="M71.0559 126.793L74.7669 128.35L74.9009 131.326L71.0559 128.952V126.793ZM73.0059 130.385L75.4369 132.528L74.1279 135.936L72.3389 134.255L73.0059 130.385ZM76.2899 126.484L77.9199 131.31L75.5689 131.001L74.5009 126.129L76.2899 126.484ZM76.3709 132.883L79.4149 137.386L78.2929 138.465L75.0079 134.534L76.3709 132.883ZM79.6289 131.249L80.7229 133.639L78.0249 135.073L76.4499 131.912L79.6289 131.249Z" fill="#194D4D"/>
</svg>
