<svg width="428" height="203" viewBox="0 0 428 203" fill="none" xmlns="http://www.w3.org/2000/svg">
<path d="M0 0.0306557C17.8333 12.7463 35.6667 25.4619 53.5 22.0551C71.3333 18.6493 89.1667 -0.877076 107 0.0306557C124.833 0.939309 142.667 22.283 160.5 22.0551C178.333 21.8282 196.167 0.0315782 214 0.0306557C231.833 0.0306557 249.667 21.8282 267.5 22.0551C285.333 22.283 303.167 0.939309 321 0.0306557C338.833 -0.877076 356.667 18.6493 374.5 22.0551C392.333 25.4619 410.167 12.7463 428 0.0306557V152C410.167 152 392.333 152 374.5 152C356.667 152 338.833 152 321 152C303.167 152 285.333 152 267.5 152C249.667 152 231.833 152 214 152C196.167 152 178.333 152 160.5 152C142.667 152 124.833 152 107 152C89.1667 152 71.3333 152 53.5 152C35.6667 152 17.8333 152 0 152V0.0306557Z" fill="#D89B1A" fill-opacity="0.25"/>
<path d="M0 44.0796C17.8333 32.6361 35.6667 21.1926 53.5 24.258C71.3333 27.3235 89.1667 44.8979 107 44.0796C124.833 43.2623 142.667 24.0532 160.5 24.258C178.333 24.4628 196.167 44.0796 214 44.0796C231.833 44.0796 249.667 24.4628 267.5 24.258C285.333 24.0532 303.167 43.2623 321 44.0796C338.833 44.8979 356.667 27.3235 374.5 24.258C392.333 21.1926 410.167 32.6361 428 44.0796V152C410.167 152 392.333 152 374.5 152C356.667 152 338.833 152 321 152C303.167 152 285.333 152 267.5 152C249.667 152 231.833 152 214 152C196.167 152 178.333 152 160.5 152C142.667 152 124.833 152 107 152C89.1667 152 71.3333 152 53.5 152C35.6667 152 17.8333 152 0 152V44.0796Z" fill="#D89B1A" fill-opacity="0.52"/>
<path d="M0 46.2825C17.8333 58.9981 35.6667 71.7128 53.5 68.307C71.3333 64.9011 89.1667 45.3738 107 46.2825C124.833 47.1911 142.667 68.5339 160.5 68.307C178.333 68.08 196.167 46.2825 214 46.2825C231.833 46.2825 249.667 68.08 267.5 68.307C285.333 68.5339 303.167 47.1911 321 46.2825C338.833 45.3738 356.667 64.9011 374.5 68.307C392.333 71.7128 410.167 58.9981 428 46.2825V152C410.167 152 392.333 152 374.5 152C356.667 152 338.833 152 321 152C303.167 152 285.333 152 267.5 152C249.667 152 231.833 152 214 152C196.167 152 178.333 152 160.5 152C142.667 152 124.833 152 107 152C89.1667 152 71.3333 152 53.5 152C35.6667 152 17.8333 152 0 152V46.2825Z" fill="#F9D75C"/>
<path d="M0 90.3315C17.8333 77.6159 35.6667 64.9012 53.5 68.307C71.3333 71.7128 89.1667 91.2401 107 90.3315C124.833 89.4228 142.667 68.0801 160.5 68.307C178.333 68.5339 196.167 90.3315 214 90.3315C231.833 90.3315 249.667 68.5339 267.5 68.307C285.333 68.0801 303.167 89.4228 321 90.3315C338.833 91.2401 356.667 71.7128 374.5 68.307C392.333 64.9012 410.167 77.6159 428 90.3315V204C410.167 204 392.333 204 374.5 204C356.667 204 338.833 204 321 204C303.167 204 285.333 204 267.5 204C249.667 204 231.833 204 214 204C196.167 204 178.333 204 160.5 204C142.667 204 124.833 204 107 204C89.1667 204 71.3333 204 53.5 204C35.6667 204 17.8333 204 0 204V90.3315Z" fill="url(#paint0_linear_56_153)"/>
<defs>
<linearGradient id="paint0_linear_56_153" x1="228.095" y1="119.836" x2="225.817" y2="194.996" gradientUnits="userSpaceOnUse">
<stop stop-color="#F7BD42"/>
<stop offset="1" stop-color="#916F27"/>
</linearGradient>
</defs>
</svg>
