<svg width="428" height="236" viewBox="0 0 428 236" fill="none" xmlns="http://www.w3.org/2000/svg">
<path d="M0 18.5598C23.7771 17.8963 47.5557 17.2343 71.3328 12.8526C95.1115 8.47103 118.889 0.371364 142.667 0.0126443C166.444 -0.346075 190.223 7.03462 214 8.57265C237.777 10.1107 261.556 5.8045 285.333 5.71982C309.111 5.63515 332.889 9.77197 356.667 14.2798C380.444 18.7877 404.223 23.6666 428 28.5455V234.324C404.223 234.324 380.444 234.324 356.667 234.324C332.889 234.324 309.111 234.324 285.333 234.324C261.556 234.324 237.777 234.324 214 234.324C190.223 234.324 166.444 234.324 142.667 234.324C118.889 234.324 95.1115 234.324 71.3328 234.324C47.5557 234.324 23.7771 234.324 0 234.324V18.5598Z" fill="white" fill-opacity="0.19"/>
<path d="M0 8.57264C23.7771 9.27314 47.5557 9.97518 71.3328 15.7055C95.1115 21.4373 118.889 32.1973 142.667 37.1055C166.444 42.0136 190.223 41.0683 214 38.5326C237.777 35.997 261.556 31.8694 285.333 24.2655C309.111 16.6631 332.889 5.58587 356.667 7.14546C380.444 8.70658 404.223 22.906 428 37.1055L428 233.554C404.223 233.554 380.444 233.554 356.667 233.554C332.889 233.554 309.111 233.554 285.333 233.554C261.556 233.554 237.777 233.554 214 233.554C190.223 233.554 166.444 233.554 142.667 233.554C118.889 233.554 95.1115 233.554 71.3328 233.554C47.5557 233.554 23.7771 233.554 0 233.554V8.57264Z" fill="white" fill-opacity="0.19"/>
<path d="M0 42.8126C23.7771 37.1793 47.5557 31.5476 71.3328 27.1198C95.1115 22.692 118.889 19.4697 142.667 21.4126C166.444 23.3556 190.223 30.4638 214 37.1055C237.777 43.7472 261.556 49.9239 285.333 48.5198C309.111 47.1157 332.889 38.1308 356.667 34.2526C380.444 30.3745 404.223 31.6 428 32.8254V235.093C404.223 235.093 380.444 235.093 356.667 235.093C332.889 235.093 309.111 235.093 285.333 235.093C261.556 235.093 237.777 235.093 214 235.093C190.223 235.093 166.444 235.093 142.667 235.093C118.889 235.093 95.1115 235.093 71.3328 235.093C47.5557 235.093 23.7771 235.093 0 235.093V42.8126Z" fill="white" fill-opacity="0.19"/>
<path d="M0 52.7998C23.7771 48.3966 47.5557 43.9935 71.3328 42.8126C95.1115 41.6318 118.889 43.6748 142.667 39.9598C166.444 36.2433 190.223 26.7703 214 29.9726C237.777 33.1749 261.556 49.0525 285.333 51.3726C309.111 53.6927 332.889 42.457 356.667 37.1054C380.444 31.7554 404.223 32.2912 428 32.8254V235.093C404.223 235.093 380.444 235.093 356.667 235.093C332.889 235.093 309.111 235.093 285.333 235.093C261.556 235.093 237.777 235.093 214 235.093C190.223 235.093 166.444 235.093 142.667 235.093C118.889 235.093 95.1115 235.093 71.3328 235.093C47.5557 235.093 23.7771 235.093 0 235.093V52.7998Z" fill="white" fill-opacity="0.19"/>
<path d="M0 48.5198C23.7771 57.223 47.5557 65.9262 71.3328 64.2126C95.1115 62.4991 118.889 50.3704 142.667 48.5198C166.444 46.6692 190.223 55.0984 214 54.2254C237.777 53.354 261.556 43.1821 285.333 44.2398C309.111 45.2975 332.889 57.5848 356.667 58.5054C380.444 59.4261 404.223 48.9801 428 38.5326V233.554C404.223 233.554 380.444 233.554 356.667 233.554C332.889 233.554 309.111 233.554 285.333 233.554C261.556 233.554 237.777 233.554 214 233.554C190.223 233.554 166.444 233.554 142.667 233.554C118.889 233.554 95.1115 233.554 71.3328 233.554C47.5557 233.554 23.7771 233.554 0 233.554V48.5198Z" fill="white" fill-opacity="0.19"/>
<path d="M0 58.5055C23.7771 50.2996 47.5557 42.0937 71.3328 41.3855C95.1115 40.6773 118.889 47.4668 142.667 54.2255C166.444 60.9857 190.223 67.7152 214 65.6398C237.777 63.563 261.556 52.6797 285.333 52.7998C309.111 52.9199 332.889 64.0433 356.667 65.6398C380.444 67.2348 404.223 59.3045 428 51.3726V233.554C404.223 233.554 380.444 233.554 356.667 233.554C332.889 233.554 309.111 233.554 285.333 233.554C261.556 233.554 237.777 233.554 214 233.554C190.223 233.554 166.444 233.554 142.667 233.554C118.889 233.554 95.1115 233.554 71.3328 233.554C47.5557 233.554 23.7771 233.554 0 233.554V58.5055Z" fill="white" fill-opacity="0.19"/>
<path d="M0 61.3598C23.7771 58.2945 47.5557 55.2293 71.3328 57.0798C95.1115 58.9288 118.889 65.6937 142.667 64.2126C166.444 62.7316 190.223 53.0061 214 54.2255C237.777 55.4463 261.556 67.6136 285.333 74.1998C309.111 80.7846 332.889 81.7868 356.667 79.9055C380.444 78.0241 404.223 73.2591 428 68.4926V234.324C404.223 234.324 380.444 234.324 356.667 234.324C332.889 234.324 309.111 234.324 285.333 234.324C261.556 234.324 237.777 234.324 214 234.324C190.223 234.324 166.444 234.324 142.667 234.324C118.889 234.324 95.1115 234.324 71.3328 234.324C47.5557 234.324 23.7771 234.324 0 234.324V61.3598Z" fill="white" fill-opacity="0.19"/>
<path d="M0 58.5055C23.7771 61.132 47.5557 63.7585 71.3328 69.9199C95.1115 76.0797 118.889 85.7743 142.667 82.7599C166.444 79.7454 190.223 64.0218 214 62.7855C237.777 61.5492 261.556 74.7987 285.333 81.3327C309.111 87.8666 332.889 87.6834 356.667 87.0399C380.444 86.3948 404.223 85.2909 428 84.1855V232.784C404.223 232.784 380.444 232.784 356.667 232.784C332.889 232.784 309.111 232.784 285.333 232.784C261.556 232.784 237.777 232.784 214 232.784C190.223 232.784 166.444 232.784 142.667 232.784C118.889 232.784 95.1115 232.784 71.3328 232.784C47.5557 232.784 23.7771 232.784 0 232.784V58.5055Z" fill="white" fill-opacity="0.19"/>
<path d="M0 99.8798C23.7771 101.721 47.5557 103.562 71.3328 99.8798C95.1115 96.1956 118.889 86.9859 142.667 85.6126C166.444 84.2393 190.223 90.7009 214 91.3198C237.777 91.9372 261.556 86.7119 285.333 82.7598C309.111 78.8062 332.889 76.1273 356.667 78.4798C380.444 80.8307 404.223 88.216 428 95.5998V233.554C404.223 233.554 380.444 233.554 356.667 233.554C332.889 233.554 309.111 233.554 285.333 233.554C261.556 233.554 237.777 233.554 214 233.554C190.223 233.554 166.444 233.554 142.667 233.554C118.889 233.554 95.1115 233.554 71.3328 233.554C47.5557 233.554 23.7771 233.554 0 233.554V99.8798Z" fill="white" fill-opacity="0.19"/>
<path d="M0 81.3326C23.7771 82.5427 47.5557 83.7513 71.3328 87.0398C95.1115 90.3268 118.889 95.6922 142.667 98.4526C166.444 101.213 190.223 101.37 214 102.733C237.777 104.095 261.556 106.666 285.333 108.44C309.111 110.212 332.889 111.188 356.667 107.013C380.444 102.837 404.223 93.5121 428 84.1854V235.093C404.223 235.093 380.444 235.093 356.667 235.093C332.889 235.093 309.111 235.093 285.333 235.093C261.556 235.093 237.777 235.093 214 235.093C190.223 235.093 166.444 235.093 142.667 235.093C118.889 235.093 95.1115 235.093 71.3328 235.093C47.5557 235.093 23.7771 235.093 0 235.093V81.3326Z" fill="white" fill-opacity="0.19"/>
</svg>
